<svg xmlns="http://www.w3.org/2000/svg" xmlns:xlink="http://www.w3.org/1999/xlink" viewBox="0 0 500 500"><defs><clipPath id="freepik--clip-path--inject-4"><polygon points="185.71 102.23 82.15 153.18 49.52 112.78 173.63 51.73 185.71 102.23" style="fill:#fff;stroke:#263238;stroke-linecap:round;stroke-linejoin:round"></polygon></clipPath></defs><g id="freepik--background-simple--inject-4"><path d="M306.27,438.93C285,462.4,204.62,464.2,161,423.94c-13.83-12.77-27.46-25.72-41.33-38.44-26.94-24.72-65.41-70.89-71.56-136.79q-1.77-19-1.76-36.49c0-1.46,0-2.91,0-4.36,0-1.29,0-2.58.07-3.87,0-.52,0-1,0-1.55,0-1.25.08-2.5.13-3.74s.12-2.68.19-4c0-.23,0-.47,0-.7.07-1.36.15-2.7.25-4.05s.19-2.7.3-4c0-.31,0-.62.08-.92.1-1.2.21-2.38.33-3.56s.26-2.52.4-3.76l.12-1.07c.13-1.16.28-2.32.43-3.47.17-1.37.36-2.72.56-4.07s.4-2.68.61-4a.69.69,0,0,0,0-.13c.21-1.29.43-2.56.66-3.82s.47-2.6.73-3.89.51-2.56.79-3.82.55-2.53.84-3.77.61-2.61.94-3.89a1.17,1.17,0,0,1,.05-.2c.39-1.55.8-3.08,1.23-4.6.2-.73.4-1.46.62-2.18s.36-1.24.55-1.86.41-1.35.63-2c.1-.34.2-.67.32-1,.36-1.14.74-2.28,1.12-3.4l.06-.18q.57-1.65,1.17-3.27c.07-.2.14-.4.22-.59.37-1,.75-2,1.13-3l.08-.18c.45-1.14.9-2.27,1.37-3.39s1-2.27,1.47-3.38l.6-1.36c.19-.43.39-.87.59-1.3,1.61-3.44,3.32-6.77,5.13-10,.32-.57.65-1.13,1-1.69q1.92-3.31,4-6.42c.37-.56.74-1.1,1.12-1.65.63-.93,1.28-1.84,1.93-2.74.42-.58.84-1.15,1.27-1.71.54-.72,1.08-1.42,1.64-2.12a.35.35,0,0,1,.07-.09c.49-.62,1-1.23,1.49-1.84.15-.2.31-.39.47-.57.41-.5.82-1,1.25-1.47l.57-.65c.36-.42.73-.84,1.11-1.25.21-.24.43-.48.64-.7.4-.44.81-.87,1.22-1.3.17-.19.33-.36.5-.53.43-.45.85-.88,1.29-1.31s1-1,1.53-1.51.87-.84,1.31-1.24.65-.61,1-.9a3.81,3.81,0,0,1,.37-.34c.49-.45,1-.88,1.48-1.31.24-.21.47-.42.71-.61.51-.44,1-.88,1.56-1.3s1.34-1.09,2-1.61,1.37-1,2.06-1.56,1.39-1,2.09-1.5,1.35-.94,2-1.39a1.5,1.5,0,0,1,.23-.15c.49-.33,1-.65,1.48-1,.32-.21.64-.42,1-.6.59-.37,1.18-.73,1.78-1.08,1.47-.89,3-1.72,4.49-2.51.76-.4,1.52-.79,2.3-1.17s1.54-.75,2.33-1.11,1.48-.68,2.23-1l.2-.09c.74-.32,1.48-.63,2.23-.93l.1,0h0q1.55-.63,3.12-1.2l1.26-.44.89-.29,1.06-.33,1.06-.3.6-.16L133,52l.13,0c.56-.14,1.13-.26,1.69-.38l.25,0c.75-.15,1.49-.28,2.23-.38l1.1-.15,1-.11c.41,0,.82-.08,1.23-.11l1.08-.07,1.08,0c.72,0,1.44,0,2.15,0s1.11,0,1.67.08h.24c.49,0,1,.06,1.47.11l1.08.12c.48,0,1,.12,1.43.2.67.1,1.33.22,2,.35l1,.21c.65.14,1.29.3,1.93.47,1.31.35,2.61.76,3.9,1.21l.65.23c.87.32,1.74.67,2.61,1l1,.44c1,.44,2,.92,3,1.42q.5.24,1,.51a85.79,85.79,0,0,1,8.43,5.12c.6.41,1.19.83,1.79,1.26,2.08,1.49,4.15,3.08,6.2,4.74q.68.54,1.35,1.11c3.24,2.68,6.46,5.54,9.66,8.49l1.78,1.66.13.12L199,81.22,200.81,83l2.55,2.43c.06.07.13.13.2.2l2.75,2.64,2.22,2.12,2.66,2.53c.52.51,1,1,1.57,1.49l.21.19c.3.29.59.57.89.84.89.83,1.78,1.66,2.68,2.48.59.56,1.19,1.1,1.79,1.64l1.15,1c.82.74,1.64,1.46,2.47,2.17,1.81,1.58,3.64,3.12,5.48,4.6l.92.74a96.44,96.44,0,0,0,20.18,12.72c.29.14.58.26.88.39,1.39.6,2.79,1.15,4.2,1.64l1,.34,1.59.49,1.08.31.88.23.67.17,1.06.25,1.07.22,1,.19c.66.12,1.32.23,2,.32l1.13.14q.57.07,1.14.12a49.47,49.47,0,0,0,9.11,0l2.68-.22c1.56-.12,3.12-.23,4.69-.32l.29,0q3.69-.21,7.42-.3h.12c1.68,0,3.38-.06,5.07-.06h2q1,0,2,0c1.57,0,3.15.07,4.72.13,1,0,2.06.09,3.09.15l2.13.13,1.95.14,2,.16q1,.07,2,.18l2,.2,2,.22c3.14.36,6.27.81,9.38,1.33l2.1.37,2.49.47q1.25.24,2.49.51l2.08.46c2.74.61,5.45,1.3,8.14,2,.55.16,1.1.31,1.64.48l.89.26c1.26.38,2.52.77,3.77,1.19h0l1.65.56.38.13c.57.19,1.14.39,1.7.6q5.85,2.1,11.45,4.74c.54.24,1.07.5,1.6.76s1.33.66,2,1c1,.49,1.93,1,2.89,1.52,1.15.63,2.29,1.27,3.42,1.94l.1.06c.53.31,1,.62,1.58.95l1.53,1c1.7,1.08,3.37,2.2,5,3.38l1.23.89.75.55,1.18.9c.85.65,1.69,1.31,2.52,2s1.52,1.26,2.27,1.91l1.05.92.66.59,1,1c1,.9,1.93,1.83,2.87,2.78l1.14,1.17c.14.14.28.29.41.44.41.43.82.86,1.22,1.3s.9,1,1.35,1.5l1.32,1.53c.44.52.87,1,1.3,1.57s.85,1.07,1.27,1.6.84,1.09,1.25,1.64.79,1.05,1.17,1.59,1,1.37,1.46,2.08l.83,1.26.89,1.36c.74,1.17,1.47,2.37,2.19,3.59.29.51.58,1,.86,1.52s.7,1.25,1,1.88.74,1.4,1.09,2.11l.11.21c.33.65.65,1.31,1,2,.1.2.2.4.29.6.37.77.72,1.55,1.07,2.33a0,0,0,0,1,0,0c.38.84.75,1.7,1.1,2.56a2.6,2.6,0,0,1,.1.25c.27.63.52,1.27.77,1.92.13.32.26.65.38,1,.3.78.59,1.58.88,2.38s.62,1.77.92,2.67l.07.22c.31.93.6,1.86.89,2.81a168.74,168.74,0,0,1,6.73,33.62c.21,2.33.37,4.62.47,6.9C437.26,344.47,342.21,399.25,306.27,438.93Z" style="fill:#FF5151"></path><path d="M306.07,439c-21.26,23.47-101.65,25.27-145.24-15C147,411.2,133.37,398.25,119.5,385.53c-26.94-24.72-65.41-70.89-71.56-136.79q-1.77-19-1.76-36.49c0-1.46,0-2.91,0-4.36,0-1.29,0-2.58.07-3.87,0-.52,0-1,0-1.55,0-1.25.08-2.5.13-3.74s.12-2.68.19-4c0-.23,0-.47,0-.7.07-1.36.15-2.7.25-4.05s.19-2.7.3-4c0-.31.05-.62.08-.92.1-1.2.21-2.38.33-3.56s.26-2.52.4-3.76l.12-1.07c.13-1.16.28-2.32.43-3.47.17-1.37.36-2.72.56-4.07s.4-2.68.61-4a.69.69,0,0,0,0-.13c.21-1.29.43-2.56.66-3.82s.47-2.6.73-3.89.51-2.56.79-3.82.55-2.53.84-3.77.59-2.48.9-3.71a7.42,7.42,0,0,1,.09-.38c.39-1.55.8-3.08,1.23-4.6.2-.73.4-1.46.62-2.18s.36-1.24.55-1.86.41-1.35.63-2c.1-.34.2-.67.32-1,.36-1.14.74-2.28,1.12-3.4l.06-.18q.57-1.65,1.17-3.27c.07-.2.14-.4.22-.59.37-1,.75-2,1.13-3l.08-.18c.45-1.14.9-2.27,1.37-3.39s1-2.27,1.47-3.38l.6-1.36c.19-.43.39-.87.59-1.3,1.61-3.44,3.32-6.77,5.13-10,.32-.57.65-1.13,1-1.69q1.92-3.31,4-6.42c.37-.56.74-1.1,1.12-1.65.63-.93,1.28-1.84,1.93-2.74.42-.58.84-1.15,1.27-1.71.54-.72,1.08-1.42,1.64-2.12a.35.35,0,0,1,.07-.09c.49-.62,1-1.23,1.49-1.84.15-.2.31-.39.47-.57.41-.5.82-1,1.25-1.47l.57-.65c.36-.42.73-.84,1.11-1.25.21-.24.43-.48.64-.7.4-.44.81-.87,1.22-1.3.17-.19.33-.36.5-.53.43-.45.85-.88,1.29-1.31s1-1,1.53-1.51.87-.84,1.31-1.24.65-.61,1-.9a3.81,3.81,0,0,1,.37-.34c.49-.45,1-.88,1.48-1.31.24-.21.47-.42.71-.61.51-.44,1-.88,1.56-1.3s1.34-1.09,2-1.61,1.37-1,2.06-1.56,1.39-1,2.09-1.5,1.35-.94,2-1.39a1.5,1.5,0,0,1,.23-.15c.49-.33,1-.65,1.48-1,.32-.21.64-.42,1-.6.59-.37,1.18-.73,1.78-1.08,1.47-.88,3-1.71,4.49-2.51.76-.4,1.52-.79,2.3-1.17s1.54-.75,2.33-1.11,1.48-.68,2.23-1l.2-.09c.74-.32,1.48-.63,2.23-.93l.1,0h0q1.55-.63,3.12-1.2l1.26-.44.89-.29,1.06-.33,1.06-.3.6-.16.72-.18.13,0c.56-.14,1.13-.27,1.69-.38l.25,0c.75-.15,1.49-.28,2.23-.38l1.1-.15,1-.11c.41-.05.82-.08,1.23-.11l1.08-.07,1.08,0c1.37,0,2.72,0,4.06.09.49,0,1,.06,1.47.11l1.08.12.81.12.62.08c.67.1,1.33.22,2,.35l1,.21c.65.14,1.29.3,1.93.47,1.31.35,2.61.76,3.9,1.21l.65.23c.87.32,1.74.67,2.61,1l1,.44c1,.44,2,.92,3,1.42q.49.24,1,.51a85.79,85.79,0,0,1,8.43,5.12c.6.41,1.19.83,1.79,1.26,2.08,1.49,4.15,3.08,6.2,4.74q.67.54,1.35,1.11c3.24,2.68,6.46,5.54,9.66,8.49l1.78,1.66.13.12,1.76,1.66L200.61,83l2.55,2.43.2.2c.92.87,1.83,1.75,2.75,2.64l2.22,2.12L211,92.91l1.57,1.49.21.19.89.84c.89.83,1.78,1.66,2.68,2.48l1.79,1.64,1.15,1c.82.74,1.64,1.46,2.47,2.17,1.81,1.58,3.64,3.12,5.48,4.6l.92.74a96.44,96.44,0,0,0,20.18,12.72l.88.39c1.39.6,2.79,1.15,4.2,1.64l1,.34,1.59.49,1.08.31.88.23.67.17,1.06.25,1.07.22,1,.19c.66.12,1.32.23,2,.32l1.13.14q.57.07,1.14.12a49.47,49.47,0,0,0,9.11,0l2.68-.22c1.55-.13,3.12-.23,4.69-.32l.29,0q3.69-.21,7.42-.3h.12c1.68,0,3.38-.06,5.07-.06h2q1,0,2,0c1.57,0,3.15.07,4.72.13,1,0,2.06.09,3.09.15l2.13.13,2,.14,2,.16q1,.07,2,.18l2,.2,2,.22c3.14.36,6.27.81,9.38,1.33l2.1.37,2.49.47q1.25.24,2.49.51l2.08.46c2.74.61,5.45,1.3,8.14,2,.55.16,1.1.31,1.64.48l.89.26c1.26.38,2.52.77,3.77,1.19h0l1.65.56.38.13c.57.19,1.14.39,1.7.6q5.85,2.1,11.45,4.74c.54.24,1.07.5,1.6.76s1.33.66,2,1c1,.49,1.93,1,2.89,1.52,1.15.63,2.29,1.27,3.42,1.94l.1.06c.53.31,1.05.62,1.58.95l1.53,1c1.7,1.08,3.37,2.2,5,3.38l1.23.89.75.55,1.18.9q1.28,1,2.52,2c.77.62,1.52,1.26,2.27,1.91l1.05.92.66.59,1,1c1,.91,1.93,1.83,2.87,2.78l1.14,1.17c.14.14.28.29.41.44.41.43.82.86,1.22,1.3l1.35,1.5,1.32,1.53c.44.52.87,1,1.3,1.57s.85,1.07,1.27,1.6.84,1.09,1.25,1.64.79,1.05,1.17,1.59,1,1.37,1.46,2.08l.83,1.26.89,1.36c.74,1.17,1.47,2.37,2.19,3.59.29.51.58,1,.86,1.52s.7,1.25,1,1.88.74,1.4,1.09,2.11l.11.21c.33.65.65,1.31,1,2,.1.2.2.4.29.6.36.77.72,1.54,1.07,2.33a0,0,0,0,1,0,0c.38.84.75,1.7,1.1,2.56a2.6,2.6,0,0,1,.1.25c.27.63.52,1.27.77,1.92.13.32.26.65.38,1,.3.78.59,1.58.88,2.38s.62,1.77.92,2.67l.07.22c.31.93.6,1.86.89,2.81A168.74,168.74,0,0,1,432.11,240c.21,2.33.37,4.62.47,6.9C437.06,344.5,342,399.28,306.07,439Z" style="fill:#fff;opacity:0.7000000000000001"></path></g><g id="freepik--Stain--inject-4"><path d="M205.43,251.42c-.33-2.67,1.4-5.22,3.63-6.68a20.78,20.78,0,0,1,7.36-2.54,24.46,24.46,0,0,0,7.43-2.32c2.44-1.4,4.45-4.33,3.39-6.93a5,5,0,0,0-4-2.85,10.05,10.05,0,0,0-5,.75c-8,3.09-12.94,10-13.71,10.76a6.41,6.41,0,0,1-5.26,1.7h0a5.44,5.44,0,0,1-4.49-5.65,25,25,0,0,1,.57-4.79c.35-1.49.8-3.17-.31-4.43a2.9,2.9,0,0,0-2.38-.94,4.27,4.27,0,0,0-3.66,3.81,9.28,9.28,0,0,0,.58,4.42,33.18,33.18,0,0,1,1.64,4.2c.53,2.62-2.15,3.16-3.36,3a4.7,4.7,0,0,1-3-1.94,10.9,10.9,0,0,0-1.26-1.61,1.9,1.9,0,0,0-1.88-.5c-1,.41-1.09,2-.39,2.87a8,8,0,0,0,2.82,1.79,3.43,3.43,0,0,1,2.15,2.41,6.52,6.52,0,0,1-5.46,3.32,15.6,15.6,0,0,1-6.61-1.17,39.76,39.76,0,0,0-6.44-2c-2.56-.45-5.68,0-6.5,2.92a4.54,4.54,0,0,0,.15,2.75h0a5,5,0,0,0,4.7,3.3c5,0,10.45-1.39,15.34-1.49a7.09,7.09,0,0,1,3,.49c1,.57.25,2.81-.6,3.63a9.73,9.73,0,0,1-4.54,2.65,4.73,4.73,0,0,0-2.35.81c-.63.55-1.79,1.84-1.24,2.48,3.11,3.64,6.39-1.15,7.21-2.05a4.75,4.75,0,0,1,3-1.82,1.74,1.74,0,0,1,1.75,1.33c.38,1.52-.37,2.83-.88,4.18a12.38,12.38,0,0,0,.93,10.47,6.38,6.38,0,0,0,3,2.83,3.33,3.33,0,0,0,3.81-.81,3.54,3.54,0,0,0,.51-3,5.87,5.87,0,0,0-1.28-2.83c-4.56-4.72-3.15-10.36-2.45-10.56,1.09-.31,1.37-1.11,2.16-.29,2.64,2.72,5.2,5.53,7.67,8.4a4,4,0,0,0,3.22,1.28,3.08,3.08,0,0,0,2.22-.85c1.3-1.36.62-3.1-.5-4.14-1.58-1.48-3.84-1.88-5.91-2.46a7,7,0,0,1-3.58-2.56,1.83,1.83,0,0,1,1-2.72c.71-.21,1.33.14,2.56.6,1.84.7,3.63,1.74,5.59,1.71a2.86,2.86,0,0,0,2.55-1.29,11.53,11.53,0,0,1,.62-1.64c.63-.9,2-.77,3.05-.51s2.2.45,3-.18a1.86,1.86,0,0,0-.21-2.83,4.11,4.11,0,0,0-3.39-.6,23.38,23.38,0,0,1-3,.52A2.71,2.71,0,0,1,205.43,251.42Z" style="fill:none;stroke:#5c5c5c;stroke-linecap:round;stroke-linejoin:round"></path></g><g id="freepik--Brushes--inject-4"><path d="M70.05,245.61l-16.89-9.29s.85-12.65,9-16.77l3.73,4.08-1-5.37a11.71,11.71,0,0,1,6.75-1.3l1.87,4,.6-4s5.42,1.77,6.26,2.91,1,18.54,1,18.54S72.3,240.57,70.05,245.61Z" style="fill:none;stroke:#5c5c5c;stroke-linecap:round;stroke-linejoin:round"></path><path d="M129.15,326.44l-59.1-80.83c2.25-5,11.37-7.14,11.37-7.14s53.12,81.78,52.51,85.74S129.15,326.44,129.15,326.44Z" style="fill:none;stroke:#5c5c5c;stroke-linecap:round;stroke-linejoin:round"></path><path d="M93.88,258.59c-.28-.2,0,.45-.3.54a17.06,17.06,0,0,0-9.45,6.23" style="fill:none;stroke:#5c5c5c;stroke-linecap:round;stroke-linejoin:round"></path><path d="M81.44,244.09q4.84,6.24,9.37,12.73" style="fill:none;stroke:#5c5c5c;stroke-linecap:round;stroke-linejoin:round"></path><path d="M77.45,243.56a1.87,1.87,0,0,1,2-1.05" style="fill:none;stroke:#5c5c5c;stroke-linecap:round;stroke-linejoin:round"></path><path d="M58.56,231.61a35.68,35.68,0,0,1,8.4,5.44" style="fill:none;stroke:#5c5c5c;stroke-linecap:round;stroke-linejoin:round"></path><path d="M61.79,228.7a45.54,45.54,0,0,1,9.65,8.89" style="fill:none;stroke:#5c5c5c;stroke-linecap:round;stroke-linejoin:round"></path><path d="M68.19,229.26,71.55,233" style="fill:none;stroke:#5c5c5c;stroke-linecap:round;stroke-linejoin:round"></path><path d="M74,225a18.73,18.73,0,0,0,2.1,8.52" style="fill:none;stroke:#5c5c5c;stroke-linecap:round;stroke-linejoin:round"></path><path d="M78.65,227.47c-.08,1.27-.17,2.53-.25,3.8" style="fill:none;stroke:#5c5c5c;stroke-linecap:round;stroke-linejoin:round"></path><path d="M93.49,261.7c.27,1.1,38,58.76,38.13,60.75" style="fill:none;stroke:#5c5c5c;stroke-linecap:round;stroke-linejoin:round"></path><path d="M424.33,291a10.85,10.85,0,0,1-3.09,4.26,7.07,7.07,0,0,1-3.46,1.42,10.18,10.18,0,0,1-7.9-2.44,8.62,8.62,0,0,1-1.78-2.1,8.45,8.45,0,0,1-1-7.51c.91-2.21,2.79-3.86,4.27-5.74,1.86-2.34,3.18-5.39,2.47-8.3,0,0,2.9,3.94,2.53,5.38,1.62-3.84.72-5.91-1-9.81a14.84,14.84,0,0,0,3.49,3.91,18.47,18.47,0,0,1,3.4,3.82,6.36,6.36,0,0,0,.39.75q.3.6.54,1.23a18.19,18.19,0,0,1,.92,6.7,8.77,8.77,0,0,0,.66-3.42A17.25,17.25,0,0,1,424.33,291Z" style="fill:none;stroke:#5c5c5c;stroke-linecap:round;stroke-linejoin:round"></path><path d="M417.78,296.67a12.79,12.79,0,0,1-.94,2.19q-4.17,8.28-9,16a6.8,6.8,0,0,0-.68-3.48c-1.58-3.17-5.57-4.38-9.15-3,1.65-2.44,7-10,11.86-14.16A10.18,10.18,0,0,0,417.78,296.67Z" style="fill:none;stroke:#5c5c5c;stroke-linecap:round;stroke-linejoin:round"></path><path d="M407.85,314.91h0a6.8,6.8,0,0,0-.68-3.48c-1.58-3.17-5.57-4.38-9.15-3a8.7,8.7,0,0,0-1.41.68c-3.95,2.36-7.3,6.63-10.37,10.92-5.83,8.11-11.16,16.72-16.5,25.32-3.15,5.11-6.32,10.22-9.46,15.35-5.5,9-10.9,18-16,27.19-1.26,2.25-6,10-6.42,11.48-1.34,4.82,4.39,2.4,7,0a104.63,104.63,0,0,0,9-9.84c16.45-19.54,32.35-38.45,46.38-58.17a48.42,48.42,0,0,0,6-10.14A20.27,20.27,0,0,0,407.85,314.91Z" style="fill:none;stroke:#5c5c5c;stroke-linecap:round;stroke-linejoin:round"></path><path d="M399.7,326.77a40.94,40.94,0,0,1-4.52,6.77q-22.12,28.07-45.67,55" style="fill:none;stroke:#5c5c5c;stroke-linecap:round;stroke-linejoin:round"></path><path d="M401,317.06a9.92,9.92,0,0,1,.45,4.34" style="fill:none;stroke:#5c5c5c;stroke-linecap:round;stroke-linejoin:round"></path><path d="M418.9,274.44a15.58,15.58,0,0,1-2.11,14.3" style="fill:none;stroke:#5c5c5c;stroke-linecap:round;stroke-linejoin:round"></path><path d="M421.71,286.12a9.86,9.86,0,0,1-5.49,7" style="fill:none;stroke:#5c5c5c;stroke-linecap:round;stroke-linejoin:round"></path></g><g id="freepik--Pen--inject-4"><path d="M249.28,245.62A128,128,0,0,0,266,218.87" style="fill:none;stroke:#5c5c5c;stroke-linecap:round;stroke-linejoin:round"></path><path d="M277.69,165.32a1.77,1.77,0,0,1,0,.23" style="fill:none;stroke:#5c5c5c;stroke-linecap:round;stroke-linejoin:round"></path><path d="M277.54,160.71c0-.72-.08-1.43-.14-2.13h0c-1.33-17.46-6.86-26.59-9.54-30.07" style="fill:none;stroke:#5c5c5c;stroke-linecap:round;stroke-linejoin:round"></path><rect x="265.36" y="125.37" width="2.98" height="2.98" transform="translate(55.73 -79.85) rotate(18.97)" style="fill:none;stroke:#5c5c5c;stroke-miterlimit:10"></rect><rect x="246.74" y="245.35" width="2.98" height="2.98" transform="matrix(0.95, 0.33, -0.33, 0.95, 93.72, -67.29)" style="fill:none;stroke:#5c5c5c;stroke-miterlimit:10"></rect><path d="M277.89,185.23v2.25a1.18,1.18,0,0,1-.59.16,1.2,1.2,0,0,1-.57-.14v-2.28l0-19.89h1.16Z" style="fill:#5c5c5c;stroke:#5c5c5c;stroke-miterlimit:10"></path><path d="M278.57,186.36a1.25,1.25,0,0,1-.68,1.12,1.18,1.18,0,0,1-.59.16,1.2,1.2,0,0,1-.57-.14,1.27,1.27,0,0,1,0-2.28,1.2,1.2,0,0,1,.57-.14,1.18,1.18,0,0,1,.59.15A1.26,1.26,0,0,1,278.57,186.36Z" style="fill:#5c5c5c"></path><line x1="277.41" y1="160.58" x2="277.32" y2="141.13" style="fill:none;stroke:#5c5c5c;stroke-linecap:round;stroke-linejoin:round"></line><path d="M278.58,140.24a1.34,1.34,0,0,1-2.53-.9,1.34,1.34,0,1,1,2.53.9Z" style="fill:none;stroke:#5c5c5c;stroke-miterlimit:10"></path><polygon points="280.04 163.22 277.92 165.32 277.69 165.32 277.43 165.33 276.53 165.33 274.43 163.2 277.24 160.41 280.04 163.22" style="fill:none;stroke:#5c5c5c;stroke-miterlimit:10"></polygon><polygon points="277.92 165.32 277.43 165.81 277.22 166.02 276.53 165.33 277.43 165.33 277.69 165.32 277.92 165.32" style="fill:none;stroke:#5c5c5c;stroke-miterlimit:10"></polygon><polygon points="291.68 189.73 285.9 202.59 269.42 202.61 263.6 189.78 274.86 165.33 277.43 165.33 277.69 165.32 280.34 165.32 291.68 189.73" style="fill:none;stroke:#5c5c5c;stroke-linecap:round;stroke-linejoin:round"></polygon><polygon points="290.96 219.49 265.81 219.52 269.42 202.61 285.9 202.59 290.96 219.49" style="fill:none;stroke:#5c5c5c;stroke-linecap:round;stroke-linejoin:round"></polygon><polyline points="274.45 205.77 284.61 205.75 286.81 213" style="fill:none;stroke:#5c5c5c;stroke-linecap:round;stroke-linejoin:round"></polyline><line x1="271.29" y1="205.77" x2="272.31" y2="205.77" style="fill:none;stroke:#5c5c5c;stroke-linecap:round;stroke-linejoin:round"></line></g><g id="freepik--color-code--inject-4"><path d="M339.1,250.34l-1.39,3,.86.3-.39.82-.85-.29-1.45,3.13-1-.34,1.44-3.12-1.4-.48-1.45,3.12-1-.33,1.45-3.12-.89-.31.39-.82.87.29,1.41-3-.91-.31.39-.83.89.31,1.18-2.55,1,.33-1.18,2.55,1.42.48,1.17-2.55,1,.34-1.17,2.55.86.29-.39.83Zm-1-.34-1.4-.47-1.41,3,1.42.48Z" style="fill:#5c5c5c"></path><path d="M346.15,251.72l-1.86,5.49c-.58,1.7-1.72,2.51-3.44,1.93s-2.06-1.89-1.5-3.53l.06-.2,1.13.38-.1.28c-.33,1-.11,1.67.75,2s1.52-.14,1.91-1.27l.82-2.41a1.82,1.82,0,0,1-2.12.54c-1.39-.47-1.66-1.66-1.14-3.21l.56-1.65c.56-1.64,1.72-2.43,3.38-1.86S346.71,250.08,346.15,251.72Zm-3.72-1.33-.55,1.61c-.33,1-.12,1.69.74,2s1.48-.15,1.81-1.11l.54-1.62c.34-1,.13-1.68-.74-2S342.76,249.4,342.43,250.39Z" style="fill:#5c5c5c"></path><path d="M352.13,253.78c-1.1,3.24-5.13,3.16-6,5.63l-.06.17,3.53,1.2-.37,1.09-4.71-1.6.31-.92c1.18-3.47,5.05-2.91,6.08-5.94.38-1.1.21-1.81-.68-2.11s-1.48.2-1.8,1.15l-.32,1L347,253l.3-.88c.56-1.64,1.69-2.47,3.34-1.91S352.69,252.13,352.13,253.78Z" style="fill:#5c5c5c"></path><path d="M356.33,257.6l-.36,1.08-2.63-.9-1.3,3.83,3.22,1.09-.37,1.09-4.42-1.5,3.66-10.75,4.42,1.51-.37,1.09L355,253l-1.25,3.67Z" style="fill:#5c5c5c"></path><path d="M363.55,257.64l-.1.28a2.25,2.25,0,0,1-2.05,1.77,2.25,2.25,0,0,1,.54,2.67l-.28.83c-.56,1.64-1.69,2.45-3.35,1.89s-2-1.9-1.49-3.54l.26-.74,1.12.38-.28.82c-.33,1-.13,1.68.73,2s1.45-.14,1.82-1.23l.29-.83c.36-1.06.08-1.72-.81-2.06l-.65-.22.37-1.07.71.24a1.36,1.36,0,0,0,1.79-1l.16-.49c.38-1.11.19-1.8-.69-2.1s-1.46.17-1.79,1.14l-.18.55-1.13-.38.17-.49c.56-1.65,1.69-2.45,3.33-1.89S364.11,256,363.55,257.64Z" style="fill:#5c5c5c"></path><path d="M363.89,264.44l-1.15,2-1.11-.37,5.72-10,1.73.59-1.6,11.45-1.19-.41.32-2.3Zm.5-1,2.4.82.9-6.62Z" style="fill:#5c5c5c"></path><path d="M376,261.88l-1.87,5.49c-.58,1.7-1.71,2.51-3.43,1.93s-2.07-1.88-1.51-3.53l.07-.2,1.12.38-.1.28c-.32,1-.1,1.68.76,2s1.52-.14,1.9-1.27l.82-2.41a1.8,1.8,0,0,1-2.12.54c-1.38-.47-1.66-1.66-1.13-3.21l.56-1.64c.56-1.65,1.72-2.43,3.37-1.87S376.57,260.24,376,261.88Zm-3.73-1.33-.55,1.61c-.33,1-.11,1.69.75,2s1.47-.15,1.8-1.12l.55-1.61c.33-1,.13-1.69-.75-2S372.62,259.57,372.29,260.55Z" style="fill:#5c5c5c"></path></g><g id="freepik--palette-3--inject-4"><path d="M311.4,361s6.88-8,13.67-10.06,20,1.09,27.88-4.3,29.53-17,25.84-44.44-19.47,23.59-19.47,23.59S315,339.14,311.76,347.07,311.4,361,311.4,361Z" style="fill:#263238"></path><path d="M261.58,357.38s3.23-5.33,8.74-6.48c20.68-4.3,16.64,16.18,15.73,16.87s12.36-11-1-18.38S263.31,351,261.58,357.38Z" style="fill:#263238"></path><path d="M366.69,277.83c-82.78-61.95-185.81-12.36-218.34,35.07-18.52,27-12.09,66.88,8.74,92.17s54,38.52,86.78,39.45c14.65.42,29.92-.33,43.93-4.63s27.33-12.93,34.07-25.95,5.33-30.72-5.66-40.43c-6.39-5.64-4.35-17.39,1.8-23.3a30.39,30.39,0,0,1,23.66-8.2C372.44,345.32,392.55,297.18,366.69,277.83Zm-90.38,89.94c-8.12,0-14.71-5.41-14.73-12.11s6.57-12.15,14.69-12.17S291,348.9,291,355.61,284.44,367.76,276.31,367.77Z" style="opacity:0.1"></path><path d="M367.23,285c-88.47-53.52-197.51-.31-225.22,50.09-15.78,28.71-5.47,67.74,17.74,90.86S217.3,459,250,456.71c14.63-1,29.75-3.26,43.27-8.92s25.93-15.55,31.36-29.17S326.89,387.53,315,379c-6.91-5-6-16.89-.49-23.37a30.37,30.37,0,0,1,22.74-10.48C368.19,345.37,394.86,301.74,367.23,285Zm-90,86.29c-8.08.82-15.18-3.93-15.85-10.6s5.34-12.74,13.42-13.55,15.19,3.93,15.86,10.61S285.3,370.5,277.21,371.31Z" style="fill:#fff;opacity:0.2"></path><path d="M367.23,285c-88.47-53.52-197.51-.31-225.22,50.09-15.78,28.71-5.47,67.74,17.74,90.86S217.3,459,250,456.71c14.63-1,29.75-3.26,43.27-8.92s25.93-15.55,31.36-29.17S326.89,387.53,315,379c-6.91-5-6-16.89-.49-23.37a30.37,30.37,0,0,1,22.74-10.48C368.19,345.37,394.86,301.74,367.23,285Zm-90,86.29c-8.08.82-15.18-3.93-15.85-10.6s5.34-12.74,13.42-13.55,15.19,3.93,15.86,10.61S285.3,370.5,277.21,371.31Z" style="fill:#FF5151;stroke:#263238;stroke-miterlimit:10"></path><path d="M282.82,262.53a5.44,5.44,0,0,1-1.33.11c-2.51,1.27-5,2.5-7.55,3.7a185.14,185.14,0,0,0-17.46,9.19c-11.21,7-20.81,16.42-30.1,25.55l-3.79,3.71c-27.35,26.68-57.32,51.15-87.05,74.7a6.52,6.52,0,0,1,.29.73c29.8-23.61,59.86-48.14,87.28-74.89q1.9-1.84,3.79-3.72c9.26-9.1,18.84-18.51,30-25.45A184.53,184.53,0,0,1,274.27,267c3.16-1.52,6.35-3.07,9.49-4.71C283.45,262.39,283.14,262.47,282.82,262.53Z" style="fill:#999"></path><path d="M312.54,265.1c-36.3,22.58-72.79,48.34-100.62,81.91-.86,1-1.7,2.07-2.55,3.11-4.24,5.2-8.62,10.57-13.9,14.82-8.95,7.22-20.2,11-31.09,14.74-8.79,3-17.8,6.05-25.69,10.93a4.31,4.31,0,0,1,.13.8c7.88-4.93,17-8,25.8-11,10.95-3.72,22.27-7.57,31.32-14.87,5.34-4.3,9.74-9.7,14-14.92.85-1,1.69-2.08,2.55-3.12,27.91-33.66,64.57-59.45,101-82.09A4.71,4.71,0,0,1,312.54,265.1Z" style="fill:#999"></path><path d="M294.68,263.1c-1.34,1.08-2.67,2.09-4,3a105,105,0,0,1-23.39,11.11l-.87.29c-7,2.33-13.59,4.54-19.58,9.53-4.67,3.89-8.61,8.69-12.42,13.33-4.71,5.75-9.59,11.68-15.85,15.85a.38.38,0,0,0-.1.52.37.37,0,0,0,.31.17.39.39,0,0,0,.21-.06c6.35-4.23,11.26-10.22,16-16,3.79-4.62,7.7-9.39,12.32-13.24,5.88-4.9,12.42-7.08,19.34-9.38l.87-.3a106.12,106.12,0,0,0,23.56-11.19,52.09,52.09,0,0,0,4.67-3.5A5,5,0,0,1,294.68,263.1Z" style="fill:#999"></path><path d="M244.13,303.18l-.11,0a.38.38,0,0,1-.25-.47h0c1-3.16,7.71-14.31,13.76-16.42a4.75,4.75,0,0,1,4.4.41,2.31,2.31,0,0,1,1.22,2c-.1,3-6.68,6.79-12.48,10.11-2.8,1.61-6,3.42-6.18,4.09h0A.38.38,0,0,1,244.13,303.18Zm15.31-16.51a5.15,5.15,0,0,0-1.66.31c-4.84,1.69-10.5,10-12.6,14.29,1.09-.77,2.79-1.75,5.12-3.09,5.07-2.9,12-6.88,12.1-9.49a1.61,1.61,0,0,0-.88-1.39A3.66,3.66,0,0,0,259.44,286.67Z" style="fill:#999"></path><path d="M175.6,369.57a6.6,6.6,0,0,1-1.25-.11,4.59,4.59,0,0,1-3.79-3.52c-.26-1.77.8-3.34,2-4.78a78.15,78.15,0,0,1,8.18-8.59.38.38,0,0,1,.53,0,.37.37,0,0,1,0,.53,76.57,76.57,0,0,0-8.1,8.5c-1.06,1.31-2,2.72-1.81,4.2a3.86,3.86,0,0,0,3.19,2.89,9.84,9.84,0,0,0,4.77-.62,36.49,36.49,0,0,0,23.09-23.56A19.67,19.67,0,0,0,182,351.62a.37.37,0,0,1-.48.1.36.36,0,0,1-.17-.46l.45-1.15a.37.37,0,0,1,.49-.21l.09.05a20.51,20.51,0,0,1,20.54-6,.36.36,0,0,1,.22.18.37.37,0,0,1,0,.29,37.24,37.24,0,0,1-23.68,24.42A12.63,12.63,0,0,1,175.6,369.57Z" style="fill:#999"></path><path d="M207.52,339.4a.37.37,0,0,1-.26-.1.38.38,0,0,1,0-.53,298,298,0,0,1,30.42-27.61.38.38,0,0,1,.53.07.37.37,0,0,1-.06.52,295.49,295.49,0,0,0-30.35,27.54A.39.39,0,0,1,207.52,339.4Z" style="fill:#999"></path><path d="M323,267a71.82,71.82,0,0,0-16.62,19.2,142.44,142.44,0,0,0-6.83,13.65A116.15,116.15,0,0,1,291,316.32c-10.58,15.86-28.57,25.7-44.45,34.38-19.69,10.75-39.62,21.84-58.89,32.57l-.21.11c-13.46,7.49-28.18,15.7-40.28,26.76a5.28,5.28,0,0,1,.33.73c12.07-11.1,26.83-19.33,40.31-26.83l.21-.12c19.28-10.72,39.21-21.81,58.89-32.57,16-8.72,34-18.6,44.71-34.61a116.23,116.23,0,0,0,8.64-16.54,147,147,0,0,1,6.79-13.58,71.23,71.23,0,0,1,17.15-19.56A4.14,4.14,0,0,1,323,267Z" style="fill:#999"></path><path d="M241.09,337.71a6.09,6.09,0,0,1-.88-.06,3,3,0,0,1-2.2-1.37c-4.34-6.95,33.37-31.72,33.75-32a16,16,0,0,1,5.36-2.48,6.15,6.15,0,0,1,5.72,1.55c1.75,1.9,1.54,4.79.55,6.79a16.24,16.24,0,0,1-4.62,5.14C278.48,315.55,251,337.71,241.09,337.71Zm37.49-35.26a6.76,6.76,0,0,0-1.31.13,15.3,15.3,0,0,0-5.11,2.38h0c-8.35,5.27-36.84,25.59-33.51,30.92a2.28,2.28,0,0,0,1.68,1c7.54,1.27,31.86-17.17,38-22.17a15.76,15.76,0,0,0,4.43-4.89c.84-1.72,1.07-4.32-.43-6A5,5,0,0,0,278.58,302.45ZM272,304.64h0Z" style="fill:#999"></path><path d="M257.71,323.07a9.7,9.7,0,0,1-1.42-.11.37.37,0,0,1-.29-.24.36.36,0,0,1,.06-.37,28.17,28.17,0,0,1,9.58-7.61.37.37,0,0,1,.5.18.38.38,0,0,1-.17.5,27.5,27.5,0,0,0-8.89,6.87,9.77,9.77,0,0,0,9.59-6.23.37.37,0,0,1,.48-.23.38.38,0,0,1,.23.47A10.44,10.44,0,0,1,257.71,323.07Z" style="fill:#999"></path><path d="M336.62,270.74a40.11,40.11,0,0,0-10.24,13.18,69,69,0,0,0-4.23,13.42c-.59,2.44-1.19,5-1.93,7.39-6.08,19.88-22.25,37.52-48.06,52.43-8.52,4.93-17.53,9.35-26.23,13.62-12.85,6.31-26.14,12.83-38.12,21.1-15.92,11-29.41,24.85-42,39.33a4.37,4.37,0,0,1,.62.44c12.53-14.43,26-28.24,41.79-39.16,11.94-8.23,25.2-14.74,38-21,8.71-4.28,17.73-8.7,26.27-13.64,26-15,42.27-32.8,48.4-52.86.75-2.45,1.36-5,1.95-7.43a68.7,68.7,0,0,1,4.17-13.28A39.78,39.78,0,0,1,337.5,271,4.72,4.72,0,0,1,336.62,270.74Z" style="fill:#999"></path><path d="M248.25,266.65c-10,8.65-21.36,15.82-32.48,22.82-15.36,9.68-31.26,19.69-43.31,33.51a187.66,187.66,0,0,0-13.69,18.58c-2.91,4.29-5.91,8.74-9.11,12.92a81.71,81.71,0,0,1-14.92,15.43,6.54,6.54,0,0,1,.06.89,81.64,81.64,0,0,0,15.46-15.87c3.21-4.2,6.22-8.65,9.13-12.95A188.18,188.18,0,0,1,173,323.47c12-13.73,27.83-23.71,43.15-33.36,11.41-7.19,23.1-14.57,33.31-23.54A5.82,5.82,0,0,1,248.25,266.65Z" style="fill:#999"></path><path d="M178.94,333.75a3.36,3.36,0,0,1-1.2-.21,3,3,0,0,1-1.82-2.26c-.67-2.58,5.58-8.21,11.79-13.37l1.06-.88c7.31-6.27,14.86-10.3,22.43-12h0a.38.38,0,0,1,.45.29.38.38,0,0,1-.29.44c-1.24.27-4.3,4.73-6.53,8a46.12,46.12,0,0,1-3.39,4.61,81.47,81.47,0,0,1-13.31,11l-.64.43C185.52,331.14,181.72,333.75,178.94,333.75Zm10.32-16.15-1.07.89c-3,2.51-12.19,10.13-11.55,12.6a2.29,2.29,0,0,0,1.36,1.75c2.4.9,7.07-2.3,9.07-3.66l.65-.44a80.85,80.85,0,0,0,13.19-10.88,48,48,0,0,0,3.3-4.5,62.72,62.72,0,0,1,5.33-7.11c-6.84,1.85-13.65,5.66-20.28,11.35Z" style="fill:#999"></path><path d="M258.72,264.57l-41.34,33.35a.38.38,0,0,0-.06.53.41.41,0,0,0,.3.14.4.4,0,0,0,.23-.08l42-33.9A4.85,4.85,0,0,1,258.72,264.57Z" style="fill:#999"></path><path d="M359.92,280.68c-32.09,37.75-66.29,74.27-101.81,108.7-9.4,9.12-18,17.13-28.4,22.86-7.51,4.15-15.82,7-23.85,9.69-3.33,1.12-6.77,2.29-10.11,3.53-6.49,2.43-15,6.05-22.27,11.79a5.93,5.93,0,0,1,.63.45c7.17-5.59,15.51-9.15,21.91-11.53,3.33-1.24,6.76-2.41,10.08-3.53,8.06-2.73,16.4-5.56,24-9.75,10.44-5.77,19.11-13.82,28.55-23,35.59-34.5,69.85-71.09,102-108.91A4.47,4.47,0,0,1,359.92,280.68Z" style="fill:#999"></path><path d="M333.93,296.57a3.72,3.72,0,0,1-2.75-1.08c-1.42-1.45-1.36-4,.15-6.78h0c2.55-4.72,8.33-11.7,13.84-11.7h.09c3.22.05,4.43,1.51,4.88,2.73,1.07,2.93-1.14,7.54-3.8,9.85a49.06,49.06,0,0,1-7.91,5.58A10,10,0,0,1,333.93,296.57Zm-1.94-7.5c-.5.93-2,4.12-.27,5.89s5,.29,6.34-.45a47.56,47.56,0,0,0,7.79-5.49c2.47-2.15,4.55-6.38,3.59-9-.54-1.45-1.95-2.21-4.19-2.24h-.08c-5.15,0-10.81,6.92-13.18,11.31Z" style="fill:#999"></path><path d="M244.24,358.58a.38.38,0,0,1-.36-.27.38.38,0,0,1,.25-.47c33.12-9.74,61.56-35.73,74.24-67.83a.38.38,0,0,1,.49-.22.39.39,0,0,1,.21.49c-12.77,32.31-41.4,58.48-74.72,68.28Z" style="fill:#999"></path><path d="M280.05,317.54a.38.38,0,0,1-.37-.31.39.39,0,0,1,.31-.44c3.11-.56,4.89-3.94,6.21-7.17l9.1-22.28-32.47,19.31a.38.38,0,0,1-.51-.13.38.38,0,0,1,.13-.52l33.43-19.88a.39.39,0,0,1,.44,0,.39.39,0,0,1,.1.43l-9.53,23.31c-1.4,3.43-3.3,7-6.77,7.63Z" style="fill:#999"></path><path d="M213.3,362.47a.36.36,0,0,1-.2-.06.38.38,0,0,1-.14-.49,22.13,22.13,0,0,1,4.11-5.59l14.57-19.82a.37.37,0,0,1,.53-.08.38.38,0,0,1,.08.52l-12.51,17a71,71,0,0,1,11.64-7l10.86-5.56a.38.38,0,1,1,.34.67l-10.86,5.56c-5.48,2.79-10.43,5.52-14.09,9.19l-4,5.48A.38.38,0,0,1,213.3,362.47Z" style="fill:#999"></path><path d="M203.44,412.57c-1.44,0-2.18-.28-2.41-.86-.41-1,1.1-2.42,4.43-4.94,4.06-3.06,8.27-6.12,12.52-9.08,8.73-6.09,17.81-11.9,27-17.28h0a8.47,8.47,0,0,1,3.91-1.47,3.2,3.2,0,0,1,3.36,2.48,4.38,4.38,0,0,1-1.48,3.26c-10.45,11.8-28.64,26.16-45.54,27.79C204.53,412.53,203.94,412.57,203.44,412.57ZM249,379.69h-.08a7.92,7.92,0,0,0-3.55,1.36h0c-9.16,5.37-18.22,11.18-26.93,17.25-4.24,3-8.45,6-12.5,9.07-1.33,1-4.45,3.37-4.18,4.07,0,.1.38.57,3.41.28,16.68-1.61,34.69-15.84,45.05-27.54a3.74,3.74,0,0,0,1.29-2.67A2.45,2.45,0,0,0,249,379.69Zm-3.82,1h0Z" style="fill:#999"></path><path d="M372.32,288.77c-2.92,11-10.64,20-15.92,25A190,190,0,0,1,340.46,327a180,180,0,0,0-17,14.3c-8.05,8-14.54,17.53-20.83,26.76-6,8.79-12.15,17.87-19.65,25.57-14.58,15-33.79,24.51-52.36,33.72-12.44,6.17-25.26,12.55-36.78,20.56a4.11,4.11,0,0,1,.62.48c11.42-7.92,24.14-14.25,36.49-20.37,18.63-9.24,37.89-18.78,52.57-33.87,7.54-7.75,13.74-16.86,19.73-25.66,6.27-9.21,12.74-18.72,20.74-26.66a179,179,0,0,1,17-14.24,189.14,189.14,0,0,0,16-13.27c5.29-5.09,13-14,16.05-25.06A4.49,4.49,0,0,1,372.32,288.77Z" style="fill:#999"></path><path d="M377.45,296.51c-4.79,10.67-14.34,19.12-23,26.73-7.54,6.66-15,13.77-19.74,22a4.88,4.88,0,0,1,.75.2c4.68-8.11,12.05-15.11,19.49-21.68,8.55-7.55,18-15.93,22.92-26.52A4.61,4.61,0,0,1,377.45,296.51Z" style="fill:#999"></path><path d="M310.79,373.91c-5.16,6.15-9.35,13.16-13.44,20-5.53,9.27-11.24,18.85-19.28,26.11-8.63,7.81-19.59,12.63-30.18,17.29-3.19,1.4-6.48,2.85-9.67,4.36a85.91,85.91,0,0,0-20.57,13.09,4.88,4.88,0,0,1,.9.21,85.89,85.89,0,0,1,20-12.62c3.17-1.51,6.46-2.95,9.64-4.35,10.65-4.69,21.66-9.53,30.39-17.42,8.12-7.34,13.86-17,19.41-26.29,4-6.74,8.14-13.63,13.18-19.68A4.14,4.14,0,0,1,310.79,373.91Z" style="fill:#999"></path><path d="M325,392.2a220.89,220.89,0,0,1-86.2,65.06l1.14-.34a5.11,5.11,0,0,1,2-.21,221.84,221.84,0,0,0,83.51-63.92A7,7,0,0,1,325,392.2Z" style="fill:#999"></path><path d="M299.09,411.67a1.92,1.92,0,0,1-.78-.17c-1.55-.72-1.25-2.88-1-3.78h0c1-4.56,5.32-16.09,12.47-14.62a2.42,2.42,0,0,1,2,1.54c1,2.9-4.28,8.8-7.74,12.7-.89,1-1.66,1.86-2.07,2.4C301,411,300,411.67,299.09,411.67ZM298,407.89c-.13.56-.46,2.43.62,2.93s2.16-.76,2.74-1.54c.43-.56,1.17-1.39,2.11-2.44,2.94-3.31,8.42-9.47,7.59-12a1.73,1.73,0,0,0-1.47-1.05C303,392.48,299,403.52,298,407.89Z" style="fill:#999"></path><path d="M327.2,406.47a250,250,0,0,1-47.45,46,4.73,4.73,0,0,1,2-.54,250.65,250.65,0,0,0,45.67-44.57A6,6,0,0,1,327.2,406.47Z" style="fill:#999"></path><path d="M199.47,292a.38.38,0,0,1-.33-.2.37.37,0,0,1,.16-.51c3.58-1.87,7.44-3.75,11.48-5.59a.36.36,0,0,1,.49.18.37.37,0,0,1-.18.5c-4,1.84-7.88,3.71-11.44,5.58A.58.58,0,0,1,199.47,292Z" style="fill:#999"></path><path d="M143.67,351.28l-.12,0a.37.37,0,0,1-.23-.48c8.78-24.16,24.13-41.45,49.75-56a.37.37,0,0,1,.51.14.37.37,0,0,1-.14.51C168,309.88,152.74,327,144,351A.39.39,0,0,1,143.67,351.28Z" style="fill:#999"></path><path d="M240.79,457.54c-31.55,0-61.45-11.35-81.39-31.21-25.09-25-32.75-64.31-17.83-91.46,15.52-28.23,54.58-54.87,97.2-66.3,45.68-12.24,91.4-6.56,128.72,16,10.17,6.15,14,16.65,10.58,28.81-4.41,15.53-21.13,32.19-40.53,32.19H337a29.91,29.91,0,0,0-22.13,10.31,19.18,19.18,0,0,0-4.18,14.16,11.86,11.86,0,0,0,4.59,8.47c11.43,8.26,15.64,25.57,9.77,40.27-5,12.54-16.23,23-31.63,29.44-11.59,4.85-25.39,7.7-43.42,9Q245.39,457.54,240.79,457.54ZM285.7,263.26A180.27,180.27,0,0,0,239,269.54c-42.37,11.36-81.18,37.81-96.58,65.81-14.72,26.77-7.13,65.58,17.66,90.27,21.67,21.59,55.26,33,89.84,30.59,17.92-1.25,31.62-4.07,43.11-8.88,15.14-6.34,26.18-16.6,31.08-28.89,5.7-14.29,1.65-31.09-9.43-39.09a12.77,12.77,0,0,1-5-9.16,20.26,20.26,0,0,1,4.42-14.93A30.92,30.92,0,0,1,337,344.6h.52c18.93,0,35.26-16.28,39.56-31.47,3.32-11.69-.37-21.78-10.13-27.68C342.68,270.75,314.8,263.26,285.7,263.26ZM275.42,371.9c-7.56,0-13.91-4.72-14.55-11.14-.7-6.94,5.52-13.26,13.86-14.1a16.8,16.8,0,0,1,11,2.58,11.57,11.57,0,0,1,5.36,8.48c.7,6.93-5.52,13.25-13.87,14.09h0C276.64,371.87,276,371.9,275.42,371.9Zm1.18-24.33a17.48,17.48,0,0,0-1.77.09c-7.79.78-13.61,6.61-13,13s7.51,10.93,15.3,10.16h0c7.8-.79,13.62-6.62,13-13a10.62,10.62,0,0,0-4.93-7.75A15.42,15.42,0,0,0,276.6,347.57Z" style="fill:#263238"></path><path d="M212.37,414.08c-3.57,5.94-5.17,14-1.06,19.56,4.25,5.77,12.6,6.44,19.72,5.57a76.08,76.08,0,0,0,28.36-9.4c19.82-11.28,13.58-30.78-7.63-34.94C237.31,392,219.82,401.66,212.37,414.08Z" style="fill:#263238"></path><path d="M169.75,391.05s-.52-29.16,29.94-31.18,24.59,22.72,24.59,22.72Z" style="opacity:0.2"></path><path d="M172,396.65c4.12,5.29,11.88,5.87,18.55,5.07a63,63,0,0,0,24.19-8.06c16.28-9.56,11.27-25.49-5.91-29.77-12.17-3-27.57,3.94-35.08,13.9C169.78,383.08,167.75,391.15,172,396.65Z" style="fill:#263238"></path><path d="M172,396.65c4.12,5.29,11.88,5.87,18.55,5.07a63,63,0,0,0,24.19-8.06c16.28-9.56,11.27-25.49-5.91-29.77-12.17-3-27.57,3.94-35.08,13.9C169.78,383.08,167.75,391.15,172,396.65Z" style="fill:#fff;opacity:0.2"></path><path d="M172.4,343.49v-4.9s10.22-22,32.8-18,13,20.49,13,20.49Z" style="opacity:0.2"></path><path d="M173.73,350.78c4,4.82,11.15,5.31,17.37,4.58a49.76,49.76,0,0,0,20-6.73c12.75-7.81,8.94-20.28-4.19-24.6-9.93-3.27-23.43,1-30.76,8.6C171.66,337.29,169.27,345.38,173.73,350.78Z" style="fill:#263238"></path><path d="M173.73,350.78c4,4.82,11.15,5.31,17.37,4.58a49.76,49.76,0,0,0,20-6.73c12.75-7.81,8.94-20.28-4.19-24.6-9.93-3.27-23.43,1-30.76,8.6C171.66,337.29,169.27,345.38,173.73,350.78Z" style="fill:#fff;opacity:0.4"></path><path d="M219.41,285.87a24.69,24.69,0,0,1,20.66,2.77,11.63,11.63,0,0,1,4.86,5.41c.85,2.31.34,5.25-1.68,6.66a6.34,6.34,0,0,1-5.37.56A33,33,0,0,1,232.8,299,29,29,0,0,0,221,296.22c-3.41-.07-8.86,2.57-11.85,1.74C201.3,295.78,216.1,286.92,219.41,285.87Z" style="opacity:0.1"></path><path d="M205.81,310.58c3.82,4.36,10.43,4.75,16.2,4.09a36.83,36.83,0,0,0,15.84-5.4c9.21-6,6.59-15.23-2.47-19.43-7.75-3.59-19.54-2-26.44,3.3C203.8,297.11,201.17,305.28,205.81,310.58Z" style="fill:#263238"></path><path d="M205.81,310.58c3.82,4.36,10.43,4.75,16.2,4.09a36.83,36.83,0,0,0,15.84-5.4c9.21-6,6.59-15.23-2.47-19.43-7.75-3.59-19.54-2-26.44,3.3C203.8,297.11,201.17,305.28,205.81,310.58Z" style="fill:#fff;opacity:0.6000000000000001"></path><path d="M255.28,280.65a18.79,18.79,0,0,1,31.35,5.13c.33-4.57,1.85-6.24-1.61-9.25C276.73,269.32,258.82,270.18,255.28,280.65Z" style="opacity:0.1"></path><path d="M256.37,292.15c3.64,3.9,9.7,4.17,15,3.58,4.15-.47,8.34-1.6,11.66-4.06,5.72-4.23,4.32-10.52-.74-14.27-5.57-4.11-15.83-5.32-22.13-2C254.28,278.51,251.52,287,256.37,292.15Z" style="fill:#263238"></path><path d="M256.37,292.15c3.64,3.9,9.7,4.17,15,3.58,4.15-.47,8.34-1.6,11.66-4.06,5.72-4.23,4.32-10.52-.74-14.27-5.57-4.11-15.83-5.32-22.13-2C254.28,278.51,251.52,287,256.37,292.15Z" style="fill:#fff;opacity:0.8"></path><path d="M298.46,286.07c.7-.32,5.84-13.6,19.14-7.26s4.78,17.37,4.78,17.37Z" style="opacity:0.1"></path><path d="M301.05,295.82c3.46,3.46,9,3.61,13.85,3.09,2.69-.29,5.57-.82,7.48-2.73,2.3-2.32,2.49-6.21,1-9.1-2.72-5.19-12.11-8.9-17.81-7.31C298.81,281.65,296,290.76,301.05,295.82Z" style="fill:#fff"></path><path d="M253.43,330.93c-1,5,10.54,10.16,10.58,10.18,3.78,1.05,44.76-9,44.76-9l-13.36-17.73s-43.5,3.25-41.53,14.24Z" style="opacity:0.2"></path><polygon points="293.29 316.15 260.51 325.56 260.32 329.8 264.69 338.59 265.37 341.08 309.84 331.69 293.29 316.15" style="fill:#fff;stroke:#263238;stroke-linecap:round;stroke-linejoin:round"></polygon><path d="M293.29,316.15l12.11,16.53s2.2,1.51,4.21.61,2.26-2.68-3.51-9.88-8.32-9.1-8.32-9.1S294.18,311.59,293.29,316.15Z" style="fill:#fff;stroke:#263238;stroke-linecap:round;stroke-linejoin:round"></path><path d="M265,325.72a4,4,0,0,0-4.51-.16,5.85,5.85,0,0,0-2.5,4,11.49,11.49,0,0,0,.33,4.77,11.09,11.09,0,0,0,2.31,4.76,5.72,5.72,0,0,0,4.72,2,5.48,5.48,0,0,0,4.34-3.65,8.66,8.66,0,0,0-.19-5.85C267.85,327,265,325.72,265,325.72Z" style="fill:#263238"></path><path d="M262.08,332.87c.2,1.83-.48,3.41-1.52,3.53s-2.05-1.28-2.25-3.11.47-3.42,1.51-3.54S261.87,331,262.08,332.87Z" style="fill:#fff;stroke:#263238;stroke-linecap:round;stroke-linejoin:round"></path><ellipse cx="257.4" cy="333.39" rx="1.9" ry="3.34" transform="translate(-35.27 30.49) rotate(-6.34)" style="fill:#fff;stroke:#263238;stroke-linecap:round;stroke-linejoin:round"></ellipse><path d="M257.69,333.35c.14,1.26-.32,2.34-1,2.42s-1.41-.87-1.55-2.13.33-2.34,1-2.42S257.55,332.1,257.69,333.35Z" style="fill:#263238"></path><path d="M273.81,334.6,290.27,333" style="fill:#fff;stroke:#263238;stroke-linecap:round;stroke-linejoin:round"></path><path d="M308.9,330.17a1.62,1.62,0,1,0,.54,1.66l-1.57-.76c-.09.21-.18.42-.26.63" style="fill:#fff;stroke:#263238;stroke-linecap:round;stroke-linejoin:round"></path><path d="M280.71,329.78h.66a13,13,0,0,0,9.26-3.37" style="fill:#fff;stroke:#263238;stroke-linecap:round;stroke-linejoin:round"></path><path d="M275.69,329.11c.74.16,1.48.3,2.22.41" style="fill:#fff;stroke:#263238;stroke-linecap:round;stroke-linejoin:round"></path><path d="M271.42,328l2.19.57" style="fill:#fff;stroke:#263238;stroke-linecap:round;stroke-linejoin:round"></path><path d="M293.73,318.49a17,17,0,0,1,6.63,10.85" style="fill:#fff;stroke:#263238;stroke-linecap:round;stroke-linejoin:round"></path><path d="M255.17,331.73a6.78,6.78,0,0,0-5.19,7.38c.29,1.92,2.08,3.9,3.91,3.25,1.32-.47,1.87-2,2.11-3.4a19.77,19.77,0,0,0,0-6.69l-1.53.93Z" style="fill:#263238"></path><path d="M273.61,322s3.7,2.83,4.93,9.44l1.23,6.61,11.29-2.39s.23-12.59-5.39-15.54-1.88-1.24-1.88-1.24Z" style="fill:#FF5151;stroke:#263238;stroke-miterlimit:10"></path><path d="M328.83,305.3c-2.42,2-4.88,4.05-6.52,6.72a14.61,14.61,0,0,0-2.07,9.28c.19,1.68,1,3.61,2.63,3.93,1.48.29,2.81-.84,3.89-1.9l18.47-18c3.11-3,5.25-9.44-1-10.33C338.91,294.23,332.53,302.22,328.83,305.3Z" style="opacity:0.2"></path><polygon points="344.15 296.83 324.16 316.44 325.68 319.58 332.27 324.22 333.74 325.75 362.18 301.58 344.15 296.83" style="fill:#fff;stroke:#263238;stroke-linecap:round;stroke-linejoin:round"></polygon><path d="M344.15,296.83l15.22,7.2a4,4,0,0,0,3.27-1.2c1.1-1.44.59-2.82-6.39-5.77s-9.57-3.32-9.57-3.32S343,293.19,344.15,296.83Z" style="fill:#fff;stroke:#263238;stroke-linecap:round;stroke-linejoin:round"></path><path d="M327.48,314.79a3.27,3.27,0,0,0-3.32,1.65,4.79,4.79,0,0,0-.25,3.84,9.33,9.33,0,0,0,2.1,3.31,9.13,9.13,0,0,0,3.53,2.54,4.71,4.71,0,0,0,4.2-.38,4.51,4.51,0,0,0,1.71-4.34,7.16,7.16,0,0,0-2.43-4.15C330,314.58,327.48,314.79,327.48,314.79Z" style="fill:#263238"></path><path d="M328.15,321.1c.87,1.25,1,2.66.29,3.15s-2-.12-2.85-1.37-1-2.65-.28-3.14S327.29,319.86,328.15,321.1Z" style="fill:#fff;stroke:#263238;stroke-linecap:round;stroke-linejoin:round"></path><path d="M326.26,322.42c.86,1.24,1,2.65.29,3.14s-2-.12-2.85-1.36-1-2.66-.29-3.15S325.39,321.17,326.26,322.42Z" style="fill:#fff;stroke:#263238;stroke-linecap:round;stroke-linejoin:round"></path><path d="M325.18,323.17c.59.85.67,1.82.19,2.15s-1.35-.08-1.94-.93-.68-1.82-.2-2.15S324.58,322.32,325.18,323.17Z" style="fill:#263238"></path><path d="M360.91,300.85a1.33,1.33,0,1,0,1,1l-1.43.06c0,.19,0,.37.05.56" style="fill:#fff;stroke:#263238;stroke-linecap:round;stroke-linejoin:round"></path><path d="M345.39,298.35a14,14,0,0,1,9,5.24" style="fill:#fff;stroke:#263238;stroke-linecap:round;stroke-linejoin:round"></path><path d="M342.73,306.46c1-.37,2-.69,2.87-1" style="fill:#fff;stroke:#263238;stroke-linecap:round;stroke-linejoin:round"></path><path d="M328.16,312.52c4.41-2.11,8.39-3.77,11.73-5" style="fill:#fff;stroke:#263238;stroke-linecap:round;stroke-linejoin:round"></path><path d="M342.7,317.17l8.5-9.68" style="fill:#fff;stroke:#263238;stroke-linecap:round;stroke-linejoin:round"></path><path d="M332.19,308.57c1-1,9.47-.65,10.51,3.76l1,4.41,8.53-6.74s2.67-8.21-12.2-9.17Z" style="fill:#263238;stroke:#263238;stroke-miterlimit:10"></path><path d="M270.9,409.46c-1.82-6.71-8.64-12.53-19.14-14.59-14.45-2.83-31.94,6.79-39.39,19.21a22.91,22.91,0,0,0-3.48,12.16c-1.35-5,.23-10.87,3-15.48,7.45-12.43,24.94-22,39.39-19.21C263.48,393.94,270.72,401.4,270.9,409.46Z" style="opacity:0.2"></path><path d="M305.33,367.77a21.29,21.29,0,0,0,.29,3.47c1,5.79,4.31,10.88,7.57,15.78s6.61,9.94,7.72,15.72-.61,12.51-5.62,15.58" style="fill:none;stroke:#263238;stroke-linecap:round;stroke-linejoin:round"></path><path d="M308.24,356.86a22.73,22.73,0,0,0-2.4,6.22" style="fill:none;stroke:#263238;stroke-linecap:round;stroke-linejoin:round"></path><path d="M312.4,351.67a20.39,20.39,0,0,0-2.56,2.78" style="fill:none;stroke:#263238;stroke-linecap:round;stroke-linejoin:round"></path></g><g id="freepik--palette-1--inject-4"><path d="M234.87,184.1,113.32,241.24l-56-107.38c.2-.45,7-18.3,7.22-18.75s.39-.87.59-1.3C78.46,85.38,98.51,65.25,124.28,54.9h0q1.55-.63,3.12-1.2a51.29,51.29,0,0,1,7.41-2.11l.25,0a44.53,44.53,0,0,1,11.75-.77c1.3.12,2.45.25,3.36.35l.62.08c8.67,1.34,16.77,5.15,24.58,10.38,20.19,13.52,37.37,32.8,37.37,32.8Z" style="opacity:0.1"></path><rect x="90.76" y="129.62" width="134.49" height="100.24" rx="14.66" transform="translate(-63.11 88.2) rotate(-26.19)" style="fill:#fff;stroke:#263238;stroke-linecap:round;stroke-linejoin:round"></rect><path d="M227.5,201.4a14.66,14.66,0,0,0,6.5-19.52l-31.31-63.64a14.66,14.66,0,0,0-19.63-6.68L88.7,158A14.68,14.68,0,0,0,80.52,171c1.6,3.58,3.49,7.33,5.72,11.25,0,0,7.31-46.54,76.57-48C210.77,133.2,224.5,172.93,227.5,201.4Z" style="opacity:0.1"></path><path d="M189.57,108.61,82.4,161.33a9.42,9.42,0,0,1-11.49-2.54L39.63,120.08a9.52,9.52,0,0,1,3.2-14.53l126.7-62.33A9.53,9.53,0,0,1,183,49.55L194.57,98A9.44,9.44,0,0,1,189.57,108.61Z" style="fill:#263238;stroke:#263238;stroke-linecap:round;stroke-linejoin:round"></path><polygon points="185.71 102.23 82.15 153.18 49.52 112.78 173.63 51.73 185.71 102.23" style="fill:#fff"></polygon><g style="clip-path:url(#freepik--clip-path--inject-4)"><polygon points="62.21 128.5 64.06 130.78 82.15 153.18 110.32 138.45 62.21 128.5" style="fill:#FF5151"></polygon><polygon points="62.21 128.5 64.06 130.78 82.15 153.18 110.32 138.45 62.21 128.5" style="fill:#fff;opacity:0.6000000000000001"></polygon><polygon points="127.73 74.31 177.29 67.05 173.63 51.73 127.73 74.31" style="fill:#FF5151"></polygon><polygon points="127.73 74.31 177.29 67.05 173.63 51.73 127.73 74.31" style="fill:#fff;opacity:0.6000000000000001"></polygon><polygon points="71.26 102.16 182.62 92.03 184.52 96.16 62.21 107.1 71.26 102.16" style="fill:#FF5151"></polygon><polygon points="71.26 102.16 182.62 92.03 184.52 96.16 62.21 107.1 71.26 102.16" style="fill:#fff;opacity:0.6000000000000001"></polygon></g><polygon points="185.71 102.23 82.15 153.18 49.52 112.78 173.63 51.73 185.71 102.23" style="fill:none;stroke:#263238;stroke-linecap:round;stroke-linejoin:round"></polygon><line x1="83.06" y1="111.37" x2="172.4" y2="102.32" style="fill:#bfbfbf;stroke:#263238;stroke-miterlimit:10"></line><line x1="75.32" y1="112.1" x2="79.78" y2="111.65" style="fill:#bfbfbf;stroke:#263238;stroke-miterlimit:10"></line><line x1="67.14" y1="112.93" x2="71.97" y2="112.44" style="fill:#bfbfbf;stroke:#263238;stroke-miterlimit:10"></line><line x1="96.98" y1="125.56" x2="128.1" y2="122.41" style="fill:#bfbfbf;stroke:#263238;stroke-miterlimit:10"></line><line x1="87.26" y1="126.5" x2="93.55" y2="125.86" style="fill:#bfbfbf;stroke:#263238;stroke-miterlimit:10"></line><line x1="110.32" y1="96.16" x2="151" y2="92.03" style="fill:#bfbfbf;stroke:#263238;stroke-miterlimit:10"></line><circle cx="103.02" cy="169.94" r="11.36" transform="translate(-91.89 208.72) rotate(-70.03)" style="fill:#FF5151"></circle><path d="M139.74,151.88a11.36,11.36,0,1,1-15.2-5.18A11.35,11.35,0,0,1,139.74,151.88Z" style="fill:#FF5151"></path><path d="M139.74,151.88a11.36,11.36,0,1,1-15.2-5.18A11.35,11.35,0,0,1,139.74,151.88Z" style="opacity:0.2"></path><circle cx="156.09" cy="143.84" r="11.36" transform="translate(-52.22 184.57) rotate(-53.73)" style="fill:#FF5151"></circle><circle cx="156.09" cy="143.84" r="11.36" transform="translate(-52.22 184.57) rotate(-53.73)" style="opacity:0.30000000000000004"></circle><path d="M192.81,125.77a11.36,11.36,0,1,1-15.2-5.18A11.35,11.35,0,0,1,192.81,125.77Z" style="fill:#FF5151"></path><circle cx="182.62" cy="130.78" r="11.36" transform="translate(0.37 262.08) rotate(-71.38)" style="opacity:0.4"></circle><path d="M127.42,193.83a11.36,11.36,0,1,1-15.2-5.18A11.35,11.35,0,0,1,127.42,193.83Z" style="fill:#FF5151"></path><circle cx="117.23" cy="198.84" r="11.36" transform="translate(-108.61 246.57) rotate(-71.41)" style="opacity:0.8"></circle><path d="M154,180.78a11.36,11.36,0,1,1-15.21-5.18A11.35,11.35,0,0,1,154,180.78Z" style="fill:#FF5151"></path><circle cx="143.77" cy="186.1" r="11.36" transform="translate(-80.99 116.92) rotate(-35.2)" style="opacity:0.7000000000000001"></circle><circle cx="170.3" cy="172.74" r="11.36" transform="translate(-47.71 279.09) rotate(-71.41)" style="fill:#FF5151"></circle><circle cx="170.3" cy="172.74" r="11.36" transform="translate(-47.71 279.09) rotate(-71.41)" style="opacity:0.6000000000000001"></circle><path d="M207,154.67a11.36,11.36,0,1,1-15.21-5.18A11.36,11.36,0,0,1,207,154.67Z" style="fill:#FF5151"></path><path d="M207,154.67a11.36,11.36,0,1,1-15.21-5.18A11.36,11.36,0,0,1,207,154.67Z" style="opacity:0.5"></path><circle cx="131.45" cy="227.74" r="11.36" transform="translate(-126.32 279.74) rotate(-71.41)" style="fill:#FF5151"></circle><circle cx="131.45" cy="227.74" r="11.36" transform="translate(-126.32 279.74) rotate(-71.41)" style="fill:#fff;opacity:0.6000000000000001"></circle><circle cx="157.98" cy="214.69" r="11.36" transform="translate(-94.87 130.35) rotate(-35.2)" style="fill:#FF5151"></circle><circle cx="157.98" cy="214.69" r="11.36" transform="translate(-94.87 130.35) rotate(-35.2)" style="fill:#fff;opacity:0.4"></circle><circle cx="184.52" cy="201.64" r="11.36" transform="translate(-52.75 65.95) rotate(-17.77)" style="fill:#FF5151"></circle><circle cx="184.52" cy="201.64" r="11.36" transform="translate(-52.75 65.95) rotate(-17.77)" style="fill:#fff;opacity:0.2"></circle><circle cx="211.05" cy="188.59" r="11.36" transform="translate(-64.63 124.5) rotate(-28.69)" style="fill:#FF5151"></circle><circle cx="211.05" cy="188.59" r="11.36" transform="translate(-64.63 124.5) rotate(-28.69)" style="fill:#fff;opacity:0.1"></circle><line x1="186.15" y1="216.95" x2="182.62" y2="218.76" style="fill:none;stroke:#263238;stroke-miterlimit:10"></line><path d="M216.55,156.2l12.85,26.38a11.16,11.16,0,0,1-4.78,14.73l-35.45,18.1" style="fill:none;stroke:#263238;stroke-miterlimit:10"></path><line x1="213.36" y1="149.65" x2="214.85" y2="152.71" style="fill:none;stroke:#263238;stroke-miterlimit:10"></line><line x1="211.27" y1="145.36" x2="212.48" y2="147.84" style="fill:none;stroke:#263238;stroke-miterlimit:10"></line></g><g id="freepik--palette-2--inject-4"><path d="M329,239.3l21.7-.06-.39-151-36.64.09L314,224.41A14.94,14.94,0,0,0,329,239.3Z" style="fill:#fff;stroke:#263238;stroke-miterlimit:10"></path><rect x="318.23" y="192.6" width="29.1" height="29.1" transform="matrix(1, -0.01, 0.01, 1, -1.11, 1.79)" style="fill:#263238"></rect><rect x="318.05" y="159.16" width="29.1" height="29.1" transform="translate(-0.93 1.79) rotate(-0.31)" style="fill:#263238"></rect><rect x="318.05" y="159.16" width="29.1" height="29.1" transform="translate(-0.93 1.79) rotate(-0.31)" style="fill:#fff;opacity:0.2"></rect><rect x="317.87" y="125.71" width="29.1" height="29.1" transform="matrix(1, -0.01, 0.01, 1, -0.75, 1.79)" style="fill:#263238"></rect><rect x="317.87" y="125.71" width="29.1" height="29.1" transform="matrix(1, -0.01, 0.01, 1, -0.75, 1.79)" style="fill:#fff;opacity:0.4"></rect><rect x="317.69" y="92.26" width="29.1" height="29.1" transform="translate(-0.57 1.78) rotate(-0.31)" style="fill:#263238"></rect><rect x="317.69" y="92.26" width="29.1" height="29.1" transform="translate(-0.57 1.78) rotate(-0.31)" style="fill:#fff;opacity:0.6000000000000001"></rect><path d="M318.27,223.25l14.43,16.22L445.52,139.05l-24.36-27.37L319.49,202.17A14.92,14.92,0,0,0,318.27,223.25Z" style="fill:#fff;stroke:#263238;stroke-miterlimit:10"></path><rect x="330.3" y="190.23" width="29.1" height="29.1" transform="translate(267.45 -188.75) rotate(48.17)" style="fill:#FF5151"></rect><rect x="355.22" y="167.92" width="29.1" height="29.1" transform="matrix(0.67, 0.75, -0.75, 0.67, 259.13, -214.75)" style="fill:#FF5151"></rect><rect x="355.22" y="167.92" width="29.1" height="29.1" transform="matrix(0.67, 0.75, -0.75, 0.67, 259.13, -214.75)" style="fill:#fff;opacity:0.2"></rect><rect x="380.15" y="145.61" width="29.1" height="29.1" transform="translate(250.81 -240.75) rotate(48.17)" style="fill:#FF5151"></rect><rect x="380.15" y="145.61" width="29.1" height="29.1" transform="translate(250.81 -240.75) rotate(48.17)" style="fill:#fff;opacity:0.4"></rect><rect x="405.07" y="123.31" width="29.1" height="29.1" transform="translate(242.49 -266.76) rotate(48.17)" style="fill:#FF5151"></rect><rect x="405.07" y="123.31" width="29.1" height="29.1" transform="translate(242.49 -266.76) rotate(48.17)" style="fill:#fff;opacity:0.6000000000000001"></rect><path d="M314.41,214l0,25.91,151-.07,0-36.64-140.31.07A10.73,10.73,0,0,0,314.41,214Z" style="fill:#fff;stroke:#263238;stroke-miterlimit:10"></path><path d="M326.55,217.68c-3.56,2.73-7.52-.17-6.86-3.7a4,4,0,0,1,3.13-3.15C326.34,210.15,329.26,214.1,326.55,217.68Z" style="fill:none;stroke:#263238;stroke-miterlimit:10;stroke-width:2px"></path><rect x="332.01" y="207.54" width="29.1" height="29.1" transform="translate(567.52 -125.19) rotate(89.81)" style="fill:#FF5151"></rect><rect x="365.46" y="207.43" width="29.1" height="29.1" transform="translate(600.75 -158.74) rotate(89.81)" style="fill:#FF5151"></rect><rect x="365.46" y="207.54" width="29.1" height="29.1" transform="translate(600.86 -158.63) rotate(89.81)" style="opacity:0.2"></rect><rect x="398.91" y="207.32" width="29.1" height="29.1" transform="translate(633.99 -192.3) rotate(89.81)" style="fill:#FF5151"></rect><rect x="398.91" y="207.32" width="29.1" height="29.1" transform="translate(633.99 -192.3) rotate(89.81)" style="opacity:0.4"></rect><rect x="432.35" y="207.22" width="29.1" height="29.1" transform="translate(667.22 -225.85) rotate(89.81)" style="fill:#FF5151"></rect><rect x="432.37" y="207.32" width="29.1" height="29.1" transform="translate(667.35 -225.77) rotate(89.81)" style="opacity:0.6000000000000001"></rect><polygon points="350.2 132.47 350.2 174.43 355.7 169.94 355.7 134.32 350.2 132.47" style="opacity:0.1"></polygon><path d="M412,176.94l-28.83,26.32-9.71,0L408.5,172Q410.31,174.41,412,176.94Z" style="opacity:0.1"></path><path d="M432.78,246.84H314.52l-.06-6.9H432.31C432.52,242.27,432.68,244.56,432.78,246.84Z" style="opacity:0.1"></path></g></svg>
