<svg xmlns="http://www.w3.org/2000/svg" viewBox="0 0 500 500"><g id="freepik--background-complete--inject-10"><path d="M43.28,158.46a38.34,38.34,0,0,1,7.62-6.8l-1.08-9.41,14.78-5.18,5,8a38.53,38.53,0,0,1,10.2.57l5.88-7.41L99.82,145l-2.12,9.22a38.34,38.34,0,0,1,6.81,7.61l9.4-1.08,5.18,14.78-8,5a38.42,38.42,0,0,1-.56,10.19l7.41,5.89-6.79,14.11-9.22-2.11a38,38,0,0,1-7.62,6.8l1.08,9.41-14.78,5.18-5-8a38.48,38.48,0,0,1-10.19-.57l-5.88,7.41L45.37,222.1l2.12-9.22a38.34,38.34,0,0,1-6.81-7.61l-9.4,1.08L26.1,191.57l8-5a38,38,0,0,1,.56-10.19l-7.41-5.89,6.79-14.11,9.22,2.11Zm10.27,15.95a21.13,21.13,0,1,0,28.2-9.88A21.14,21.14,0,0,0,53.55,174.41Z" style="fill:#ebebeb"></path><path d="M401.09,304.52a38,38,0,0,1,7.5-6.7l-1.06-9.27,14.57-5.11,4.95,7.91a37.81,37.81,0,0,1,10.05.55l5.8-7.3,13.91,6.69-2.08,9.09a38,38,0,0,1,6.7,7.5l9.27-1.06,5.11,14.57-7.91,4.95a37.81,37.81,0,0,1-.55,10.05l7.3,5.8L468,356.1,458.87,354a38,38,0,0,1-7.5,6.7l1.06,9.27-14.57,5.11-4.95-7.91a37.81,37.81,0,0,1-10.05-.55l-5.8,7.3-13.91-6.69,2.08-9.09a38,38,0,0,1-6.7-7.5l-9.27,1.06-5.11-14.57,7.91-4.95a37.81,37.81,0,0,1,.55-10.05l-7.3-5.8L392,302.44l9.09,2.08Zm10.12,15.72A20.83,20.83,0,1,0,439,310.5,20.84,20.84,0,0,0,411.21,320.24Z" style="fill:#e0e0e0"></path><path d="M393,164.74a29,29,0,0,1,5.8-5.18l-.82-7.17,11.27-3.95,3.83,6.11a29.47,29.47,0,0,1,7.77.43l4.49-5.65,10.76,5.18-1.62,7a29.08,29.08,0,0,1,5.19,5.8l7.17-.82,3.95,11.27-6.12,3.83a29.06,29.06,0,0,1-.43,7.77l5.65,4.49-5.17,10.76-7-1.62a29.14,29.14,0,0,1-5.81,5.19l.83,7.17-11.27,4-3.83-6.11a29.06,29.06,0,0,1-7.77-.44l-4.49,5.65-10.76-5.17,1.61-7a29.31,29.31,0,0,1-5.18-5.8l-7.17.82L379.92,190l6.11-3.83a29.47,29.47,0,0,1,.43-7.77l-5.65-4.49L386,163.13l7,1.61Zm7.83,12.16a16.11,16.11,0,1,0,21.49-7.53A16.11,16.11,0,0,0,400.85,176.9Z" style="fill:#ebebeb"></path><path d="M364.59,112.66a19.52,19.52,0,0,1,3.9-3.49l-.55-4.82,7.57-2.65,2.58,4.11a19.14,19.14,0,0,1,5.22.29l3-3.8,7.23,3.48-1.08,4.72a20.12,20.12,0,0,1,3.49,3.9l4.81-.55,2.66,7.57L399.32,124a20,20,0,0,1-.29,5.22l3.8,3-3.48,7.23-4.73-1.09a19.25,19.25,0,0,1-3.9,3.49l.56,4.82-7.57,2.65-2.58-4.11a19.52,19.52,0,0,1-5.22-.29l-3,3.8-7.23-3.48,1.09-4.72a19.8,19.8,0,0,1-3.49-3.9l-4.82.55-2.65-7.57L359.9,127a19.14,19.14,0,0,1,.29-5.22l-3.8-3,3.48-7.23,4.72,1.09Zm5.26,8.17a10.82,10.82,0,1,0,14.45-5.06A10.82,10.82,0,0,0,369.85,120.83Z" style="fill:#f5f5f5"></path><path d="M101.26,375.07a20.12,20.12,0,0,1,3.9-3.49l-.55-4.82,7.57-2.65,2.58,4.11a20,20,0,0,1,5.22.29l3-3.8,7.23,3.48-1.09,4.73a19.25,19.25,0,0,1,3.49,3.9l4.82-.56,2.65,7.57L136,386.41a19.12,19.12,0,0,1-.29,5.22l3.8,3L136,401.88l-4.72-1.09a19.8,19.8,0,0,1-3.9,3.49l.55,4.82-7.57,2.65-2.58-4.11a19.14,19.14,0,0,1-5.22-.29l-3,3.8-7.24-3.48,1.09-4.72a19.52,19.52,0,0,1-3.49-3.9l-4.82.55L92.46,392l4.11-2.58a19.55,19.55,0,0,1,.29-5.22l-3.8-3L96.54,374l4.72,1.08Zm5.27,8.17A10.82,10.82,0,1,0,121,378.18,10.82,10.82,0,0,0,106.53,383.24Z" style="fill:#f5f5f5"></path><path d="M158.58,401.37a30.06,30.06,0,0,1,5.87-5.25l-.83-7.25,11.4-4,3.88,6.19a29.73,29.73,0,0,1,7.86.43l4.54-5.71L202.19,391l-1.63,7.12a29.49,29.49,0,0,1,5.25,5.87l7.25-.83,4,11.4-6.19,3.88a29.73,29.73,0,0,1-.44,7.86l5.72,4.54-5.24,10.89-7.11-1.64a29.19,29.19,0,0,1-5.87,5.25l.83,7.26-11.4,4-3.88-6.18a29.73,29.73,0,0,1-7.86-.44l-4.54,5.72-10.89-5.24,1.63-7.11a30.15,30.15,0,0,1-5.25-5.88l-7.25.84-4-11.4,6.19-3.88a29.83,29.83,0,0,1,.44-7.87l-5.72-4.53,5.24-10.89,7.11,1.63Zm7.92,12.3a16.3,16.3,0,1,0,21.75-7.62A16.3,16.3,0,0,0,166.5,413.67Z" style="fill:#ebebeb"></path><path d="M87.05,244.93a3,3,0,0,1-.7.23c-.47.12-1.15.33-2.06.52a51.74,51.74,0,0,1-7.71,1.12,55.2,55.2,0,0,1-45.94-19A51.78,51.78,0,0,1,26,221.54c-.51-.77-.84-1.41-1.09-1.82a4.09,4.09,0,0,1-.34-.66,3.21,3.21,0,0,1,.43.6c.28.4.64,1,1.17,1.77a56.38,56.38,0,0,0,50.41,25,59.38,59.38,0,0,0,7.69-1c.91-.15,1.6-.34,2.07-.43A4.48,4.48,0,0,1,87.05,244.93Z" style="fill:#e0e0e0"></path><path d="M67.31,252.21a5.16,5.16,0,0,1-1.08,0c-.69,0-1.69-.07-2.92-.21a46.86,46.86,0,0,1-9.44-2,47.87,47.87,0,0,1-8.82-3.92c-1.07-.62-1.92-1.16-2.48-1.56a4.71,4.71,0,0,1-.85-.66c.05-.08,1.34.74,3.51,1.89A55.27,55.27,0,0,0,54,249.49a56.76,56.76,0,0,0,9.32,2.18C65.79,252,67.31,252.12,67.31,252.21Z" style="fill:#e0e0e0"></path></g><g id="freepik--Gear--inject-10"><path d="M184.43,144.7a126.32,126.32,0,0,1,30.79-13.38l6.34-30.48,51.5-.91,7.41,30.24a126.21,126.21,0,0,1,31.25,12.29l26-17.06,37.06,35.78-16.13,26.6a126.55,126.55,0,0,1,13.38,30.8l30.47,6.35.91,51.49-30.24,7.42a126.3,126.3,0,0,1-12.29,31.24l17.06,26-35.77,37.05L315.58,362a126.55,126.55,0,0,1-30.8,13.38l-6.34,30.48-51.5.9-7.41-30.24a125.82,125.82,0,0,1-31.25-12.29l-26,17.06L125.2,345.55l16.14-26.61A126,126,0,0,1,128,288.14L97.47,281.8l-.9-51.5,30.24-7.41a126.14,126.14,0,0,1,12.29-31.24l-17.06-26,35.77-37.05,26.62,16.13ZM200,205.11a69.47,69.47,0,1,0,98.24-1.73A69.47,69.47,0,0,0,200,205.11Z" style="fill:#ebebeb"></path><path d="M184.43,144.7a126.32,126.32,0,0,1,30.79-13.38l6.34-30.48,51.5-.91,7.41,30.24a126.21,126.21,0,0,1,31.25,12.29l26-17.06,37.06,35.78-16.13,26.6a126.55,126.55,0,0,1,13.38,30.8l30.47,6.35.91,51.49-30.24,7.42a126.3,126.3,0,0,1-12.29,31.24l17.06,26-35.77,37.05L315.58,362a126.55,126.55,0,0,1-30.8,13.38l-6.34,30.48-51.5.9-7.41-30.24a125.82,125.82,0,0,1-31.25-12.29l-26,17.06L125.2,345.55l16.14-26.61A126,126,0,0,1,128,288.14L97.47,281.8l-.9-51.5,30.24-7.41a126.14,126.14,0,0,1,12.29-31.24l-17.06-26,35.77-37.05,26.62,16.13ZM200,205.11a69.47,69.47,0,1,0,98.24-1.73A69.47,69.47,0,0,0,200,205.11Z" style="fill:none"></path><path d="M200,205.11s1-1.13,3.15-3.12a67.77,67.77,0,0,1,18.21-12.07,67,67,0,0,1,10.29-3.72,70.28,70.28,0,0,1,26.48-2,69.37,69.37,0,0,1,30.17,11,70.93,70.93,0,0,1,19.45,19.18,72.86,72.86,0,0,1,4.87,8.39,69.83,69.83,0,0,1,6.46,40,68.1,68.1,0,0,1-2.27,10.54,64.84,64.84,0,0,1-3.93,10.22,69.77,69.77,0,0,1-30.58,31.68,65.33,65.33,0,0,1-10.08,4.29,68.94,68.94,0,0,1-10.45,2.64,69.89,69.89,0,0,1-40.22-5,75,75,0,0,1-8.55-4.57,71,71,0,0,1-19.85-18.77,69.33,69.33,0,0,1-12-29.77,70.23,70.23,0,0,1,1.08-26.53A67.35,67.35,0,0,1,185.59,227a69.26,69.26,0,0,1,4-8.26A68.43,68.43,0,0,1,197,208.37c1.92-2.19,3-3.26,3-3.26l-.75.84c-.48.57-1.27,1.35-2.18,2.48a71.21,71.21,0,0,0-7.27,10.4,68.47,68.47,0,0,0-4,8.25,67.54,67.54,0,0,0-3.3,10.39,69.88,69.88,0,0,0-1,26.4,69.19,69.19,0,0,0,12,29.58,69.42,69.42,0,0,0,12.17,13.11,70.67,70.67,0,0,0,7.58,5.51,74,74,0,0,0,8.5,4.53A69.57,69.57,0,0,0,272.08,319a65.35,65.35,0,0,0,10-4.27,69.29,69.29,0,0,0,30.35-31.45,64.1,64.1,0,0,0,3.91-10.14,68,68,0,0,0,2.25-10.46,69.48,69.48,0,0,0-6.38-39.72,73.26,73.26,0,0,0-4.83-8.33,68.23,68.23,0,0,0-5.77-7.39,69.35,69.35,0,0,0-13.53-11.7,69.28,69.28,0,0,0-30-11,70.15,70.15,0,0,0-26.35,1.93,65.71,65.71,0,0,0-10.27,3.67,68.8,68.8,0,0,0-18.24,11.91c-1.1.95-1.85,1.77-2.4,2.27Z" style="fill:#263238"></path><path d="M184.43,144.7l-26.66-16.06.1,0c-9.09,9.45-21.14,21.95-35.73,37.09v-.16l17.08,26,.05.08-.05.08A127,127,0,0,0,127,222.93l0,.1-.1,0-30.23,7.42.14-.18c.29,16.21.6,33.42.92,51.5l-.16-.2L128,287.93l.12,0,0,.12a126.35,126.35,0,0,0,13.37,30.74l.07.12-.07.12L125.4,345.67l0-.29,37.06,35.77-.3,0,26-17.06.12-.09.13.08a127,127,0,0,0,31.19,12.26l.15,0,0,.14c2.33,9.48,4.86,19.81,7.42,30.24l-.25-.19,51.49-.91-.25.21c2-9.63,4.17-20,6.35-30.48l0-.16.15,0a126.5,126.5,0,0,0,30.71-13.34h0l.14-.09.13.09,26.61,16.13-.32,0,35.77-37.05,0,.32-17.05-26-.09-.13.08-.14A126.15,126.15,0,0,0,373,283.78l0-.15.15,0,30.24-7.41-.19.25q-.46-26.37-.9-51.5l.19.23L372,218.81l-.14,0,0-.13a125.74,125.74,0,0,0-13.35-30.75l-.07-.12.07-.11,16.14-26.6,0,.26-37-35.78.24,0-26,17.05-.09.06-.1-.05a126.2,126.2,0,0,0-31.2-12.29l-.1,0,0-.1c-2.68-11-5.1-20.89-7.39-30.24l.15.12-51.5.86.12-.09c-2.56,12.21-4.65,22.2-6.38,30.47v0l0,0a126.45,126.45,0,0,0-23.53,9.27c-2.48,1.27-4.29,2.31-5.49,3s-1.79,1-1.79,1l1.77-1.07c1.19-.7,3-1.75,5.47-3a124.49,124.49,0,0,1,23.53-9.36l-.06.06c1.71-8.28,3.78-18.27,6.31-30.49l0-.09h.09l51.5-.94h.12l0,.12c2.29,9.34,4.73,19.24,7.43,30.23l-.13-.13a126.88,126.88,0,0,1,31.3,12.3h-.19c8.27-5.44,16.86-11.07,26-17.07l.14-.09.11.11L375,161l.12.12-.09.15L358.86,187.9v-.23a126.43,126.43,0,0,1,13.41,30.85l-.18-.16,30.48,6.33.19,0v.19q.45,25.11.92,51.5v.2l-.19,0-30.24,7.42.19-.18a126.41,126.41,0,0,1-12.32,31.3v-.26q8.44,12.88,17.06,26l.12.17-.15.15-35.77,37-.14.15-.18-.11-26.61-16.13h.27l0,0a126.92,126.92,0,0,1-30.83,13.39l.19-.2c-2.18,10.47-4.35,20.86-6.35,30.48l0,.2h-.21l-51.49.9h-.21l-.05-.2c-2.55-10.43-5.09-20.76-7.41-30.24l.19.19a127.28,127.28,0,0,1-31.31-12.32h.26l-26,17.06-.16.1-.14-.13-37-35.79-.13-.12.1-.16,16.13-26.61v.24a126.75,126.75,0,0,1-13.39-30.86l.16.15L97.43,282l-.16,0v-.17c-.31-18.07-.61-35.28-.88-51.49v-.15l.15,0,30.24-7.4-.13.13A127.08,127.08,0,0,1,139,191.57v.16l-17-26-.06-.09.08-.07,35.8-37,.05,0,.06,0Z" style="fill:#263238"></path></g><g id="freepik--Screen--inject-10"><polygon points="372.01 43.82 293.68 43.82 293.68 159.15 301.25 159.15 308.14 172.64 316.94 159.15 372.01 159.15 372.01 43.82" style="fill:#fafafa"></polygon><path d="M372,43.82s0,.17,0,.53,0,.9,0,1.59c0,1.42,0,3.51,0,6.22,0,5.47,0,13.45.06,23.57,0,20.31.07,49.16.12,83.42v.23H372l-55.07,0,.22-.11-8.81,13.49-.24.38-.21-.4c-2.15-4.23-4.46-8.74-6.78-13.29l-.11-.21.24.15h-7.83v-.26c0-43.63,0-83.63.06-115.33v-.21h.2l57.19.11,15.68.05,4.08,0c.92,0,1.38,0,1.38,0l-1.42,0-4.13,0-15.72.06-57.06.1.21-.2c0,31.7,0,71.7.05,115.33l-.26-.26h7.73l.07.14.1.2,6.79,13.29-.45,0c3-4.64,6-9.22,8.81-13.49l.07-.12h.14l55.07,0-.24.24c.05-34.2.09-63,.12-83.26,0-10.15.05-18.15.06-23.63,0-2.73,0-4.84,0-6.27,0-.7,0-1.24,0-1.62S372,43.82,372,43.82Z" style="fill:#263238"></path><rect x="313.21" y="63.83" width="4.52" height="76.37" rx="2.13" style="fill:#e0e0e0"></rect><path d="M315.6,140.2a2.29,2.29,0,0,0,1.42-.61c.93-.71.55-2.42.61-4.38,0-4-.05-9.81-.08-17s0-15.67-.06-25.12c0-4.73,0-9.69,0-14.84V66.44a3.51,3.51,0,0,0-.06-.94,1.91,1.91,0,0,0-.42-.78,1.94,1.94,0,0,0-1.64-.63,1.87,1.87,0,0,0-1.53.8,1.85,1.85,0,0,0-.33.82c0,.27,0,.64,0,1V78.55c0,5.14,0,10.11,0,14.84,0,9.45,0,18-.05,25.12s-.06,12.92-.08,16.94c0,1,0,1.89,0,2.66a2.1,2.1,0,0,0,.82,1.63,2.19,2.19,0,0,0,1.08.43l.41,0a1.85,1.85,0,0,1-.41,0,2.05,2.05,0,0,1-1.14-.4,2.17,2.17,0,0,1-.91-1.71c0-.77,0-1.66,0-2.66,0-4-.05-9.8-.08-16.94s0-15.67-.06-25.12c0-4.73,0-9.7,0-14.84q0-3.87,0-7.85v-4a9.6,9.6,0,0,1,0-1.05,2.29,2.29,0,0,1,.42-1,2.42,2.42,0,0,1,2-1,2.52,2.52,0,0,1,2,.8,2.31,2.31,0,0,1,.53,1,4,4,0,0,1,.08,1.07v4q0,4,0,7.85c0,5.15,0,10.11,0,14.84,0,9.45,0,18-.06,25.12s-.06,12.92-.08,17l0,2.65a2.27,2.27,0,0,1-.72,1.8A1.91,1.91,0,0,1,315.6,140.2Z" style="fill:#263238"></path><rect x="330.59" y="63.83" width="4.52" height="76.37" rx="2.13" style="fill:#e0e0e0"></rect><path d="M333,140.2a2.28,2.28,0,0,0,1.42-.61c.93-.71.56-2.42.61-4.38,0-4,0-9.81-.08-17s0-15.67-.06-25.12c0-4.73,0-9.69,0-14.84V70.45c0-1.32,0-2.66,0-4a3.51,3.51,0,0,0-.06-.94,1.78,1.78,0,0,0-.41-.78,2,2,0,0,0-1.64-.63,1.89,1.89,0,0,0-1.54.8,1.83,1.83,0,0,0-.32.82c0,.27,0,.64,0,1v4q0,4,0,7.85c0,5.14,0,10.11,0,14.84,0,9.45,0,18-.06,25.12s-.06,12.92-.08,16.94l0,2.66a2.07,2.07,0,0,0,.82,1.63,2.16,2.16,0,0,0,1.07.43l.41,0a1.85,1.85,0,0,1-.41,0,2.08,2.08,0,0,1-1.14-.4,2.2,2.2,0,0,1-.91-1.71c0-.77,0-1.66,0-2.66,0-4-.05-9.8-.09-16.94s0-15.67,0-25.12c0-4.73,0-9.7,0-14.84V66.68c0-.34,0-.65,0-1.05a2.53,2.53,0,0,1,.42-1,2.44,2.44,0,0,1,2-1,2.48,2.48,0,0,1,2,.8,2.44,2.44,0,0,1,.54,1,4,4,0,0,1,.07,1.07V78.3c0,5.15,0,10.11,0,14.84,0,9.45,0,18,0,25.12s-.06,12.92-.08,17c0,1,0,1.88,0,2.65a2.2,2.2,0,0,1-.72,1.8A1.9,1.9,0,0,1,333,140.2Z" style="fill:#263238"></path><rect x="347.96" y="63.83" width="4.52" height="76.37" rx="2.13" style="fill:#e0e0e0"></rect><path d="M350.35,140.2a2.29,2.29,0,0,0,1.42-.61c.93-.71.55-2.42.61-4.38,0-4-.05-9.81-.08-17s0-15.67-.06-25.12c0-4.73,0-9.69,0-14.84V66.44a3.51,3.51,0,0,0-.06-.94,1.91,1.91,0,0,0-.42-.78,1.94,1.94,0,0,0-1.64-.63,1.87,1.87,0,0,0-1.53.8,1.85,1.85,0,0,0-.33.82c0,.27,0,.64,0,1V78.55c0,5.14,0,10.11,0,14.84,0,9.45,0,18-.05,25.12s-.07,12.92-.08,16.94c0,1,0,1.89,0,2.66a2.1,2.1,0,0,0,.82,1.63,2.19,2.19,0,0,0,1.08.43l.41,0a1.85,1.85,0,0,1-.41,0,2.05,2.05,0,0,1-1.14-.4,2.17,2.17,0,0,1-.91-1.71c0-.77,0-1.66,0-2.66,0-4-.05-9.8-.08-16.94s0-15.67-.06-25.12c0-4.73,0-9.7,0-14.84q0-3.87,0-7.85v-4a9.6,9.6,0,0,1,0-1.05,2.29,2.29,0,0,1,.42-1,2.42,2.42,0,0,1,2-1,2.52,2.52,0,0,1,2,.8,2.31,2.31,0,0,1,.53,1,4.51,4.51,0,0,1,.08,1.07v4q0,4,0,7.85c0,5.15,0,10.11,0,14.84,0,9.45,0,18-.06,25.12s-.06,12.92-.08,17c0,1,0,1.88,0,2.65a2.27,2.27,0,0,1-.72,1.8A1.91,1.91,0,0,1,350.35,140.2Z" style="fill:#263238"></path><rect x="309.96" y="90.84" width="9.61" height="8.78" rx="4.15" style="fill:#FF5151"></rect><rect x="328.47" y="107.4" width="9.61" height="8.78" rx="4.15" style="fill:#FF5151"></rect><rect x="345.22" y="76.19" width="9.61" height="8.78" rx="4.15" style="fill:#FF5151"></rect></g><g id="freepik--speech-bubble--inject-10"><path d="M194.8,77.41a36.62,36.62,0,1,0-15.25,31.1h0l13.28,4.9-4.58-13.73A36.39,36.39,0,0,0,194.8,77.41Z" style="fill:#fafafa"></path><path d="M194.8,77.41a3.91,3.91,0,0,1,0,.4c0,.28,0,.68,0,1.19a38.41,38.41,0,0,1-.28,4.62,36.46,36.46,0,0,1-6.21,16.16l0-.14L193,113.36l.12.37-.36-.13-13.29-4.88-.11,0,0-.11h0l.33.13a36.66,36.66,0,0,1-14.43,6.24,37.85,37.85,0,0,1-4.16.57c-1.41.13-2.85.07-4.29.06-.36,0-.72,0-1.09,0l-1.08-.12-2.19-.25c-.73-.1-1.44-.3-2.17-.44s-1.47-.27-2.18-.52a37.37,37.37,0,0,1-4.26-1.53c-.7-.31-1.41-.6-2.1-.93l-2-1.13-1-.57-1-.67L135.8,108,134,106.51l-.91-.77-.83-.85c-.56-.57-1.12-1.13-1.67-1.71l-1.51-1.88c-.25-.32-.52-.62-.75-1l-.67-1c-.44-.69-.92-1.35-1.32-2a38.45,38.45,0,0,1-2.16-4.42c-.29-.77-.66-1.51-.89-2.31s-.47-1.59-.71-2.38a36.93,36.93,0,0,1,2-24.43A37.36,37.36,0,0,1,131,53.86a39.14,39.14,0,0,1,8.86-7.08,38.37,38.37,0,0,1,10-3.92l2.57-.48a24.73,24.73,0,0,1,2.56-.28,36.73,36.73,0,0,1,5-.11,36.62,36.62,0,0,1,28.2,15.68c.59.94,1.23,1.81,1.73,2.71L191.41,63c.39.86.71,1.72,1,2.52.15.4.34.79.46,1.18s.23.78.33,1.16c.22.74.43,1.45.62,2.12l.36,1.9c.11.59.21,1.14.3,1.64s.08,1,.12,1.37c.06.81.1,1.42.13,1.86s0,.64,0,.64,0-.22-.08-.63-.11-1.06-.19-1.86c0-.41-.07-.86-.14-1.36s-.21-1-.32-1.63L193.69,70c-.2-.66-.41-1.36-.64-2.1-.11-.38-.23-.76-.35-1.15s-.3-.77-.46-1.17c-.34-.79-.66-1.64-1.06-2.5l-1.38-2.6c-.51-.89-1.14-1.75-1.74-2.68a36.33,36.33,0,0,0-28-15.42,37.51,37.51,0,0,0-5,.12,24.16,24.16,0,0,0-2.53.28l-2.53.49a37.19,37.19,0,0,0-9.92,3.89,39.11,39.11,0,0,0-8.74,7A36.93,36.93,0,0,0,125,64a36.42,36.42,0,0,0-2,24.08c.23.79.46,1.57.7,2.36s.59,1.51.88,2.27A36.55,36.55,0,0,0,126.78,97c.4.69.87,1.34,1.3,2l.66,1c.22.32.49.62.73.93l1.5,1.85c.55.57,1.09,1.14,1.64,1.7l.82.84.9.76,1.78,1.5L138,109l.94.66,1,.56,2,1.12c.68.32,1.38.61,2.06.92a36.48,36.48,0,0,0,4.21,1.51c.7.25,1.43.34,2.15.52s1.42.34,2.14.43l2.16.25,1.07.13c.35,0,.71,0,1.07,0,1.42,0,2.84.08,4.23,0a39.09,39.09,0,0,0,4.11-.55,36.34,36.34,0,0,0,14.28-6.14l.25-.18.08.3h0l-.13-.15,13.27,4.93-.25.23-4.54-13.74,0-.07,0-.07a36.68,36.68,0,0,0,6.3-16,41.41,41.41,0,0,0,.35-4.6c0-.51,0-.9,0-1.19S194.8,77.41,194.8,77.41Z" style="fill:#263238"></path><polygon points="143.68 57.97 147.84 61.4 148.59 64.08 161.14 77.62 159.76 78.95 147.54 65.43 144.87 64.25 141.68 59.87 143.68 57.97" style="fill:#e0e0e0"></polygon><path d="M143.68,58a6.78,6.78,0,0,1-.5.55L141.75,60v-.14L145,64.15l-.08-.06,2.68,1.15,0,0,0,0,12,13.2.26.28h-.37L161,77.43v.36c-4.89-5.31-9.26-10.07-12.49-13.59l0,0v0c-.27-1-.51-1.88-.72-2.69l.05.07-3-2.56-.8-.71a2.37,2.37,0,0,1-.28-.27,11.53,11.53,0,0,1,1.11.82l3.15,2.49,0,0,0,0c.23.81.49,1.69.77,2.67l0-.07,12.61,13.48.18.19-.19.17-1.38,1.34-.19.18-.18-.2-.26-.28L147.39,65.57l.07.05-2.66-1.2-.05,0,0,0-3.13-4.42-.06-.08.07-.07,1.55-1.39A4.06,4.06,0,0,1,143.68,58Z" style="fill:#263238"></path><path d="M161.72,73.93,163,75.3a1.16,1.16,0,0,0,.17,1.23,1.61,1.61,0,0,0,1.3.34L177.1,90.76a3.38,3.38,0,0,1-.27,4.8l-.75.67a3.39,3.39,0,0,1-4.72-.25L158.7,82.18a1.19,1.19,0,0,0-.43-1.29,1.3,1.3,0,0,0-1.16-.25l-1.19-1.36a1.25,1.25,0,0,1,.09-1.75L160,73.88A1.26,1.26,0,0,1,161.72,73.93Z" style="fill:#FF5151"></path><g style="opacity:0.30000000000000004"><path d="M175.76,92.41,164,79.57a.63.63,0,0,1,0-.9h0a.63.63,0,0,1,.9,0l11.78,12.84a.64.64,0,0,1,0,.9h0A.63.63,0,0,1,175.76,92.41Z"></path></g><g style="opacity:0.30000000000000004"><path d="M174.06,94,162.28,81.12a.63.63,0,0,1,0-.89h0a.63.63,0,0,1,.9,0L175,93.11a.62.62,0,0,1,0,.89h0A.64.64,0,0,1,174.06,94Z"></path></g><g style="opacity:0.30000000000000004"><path d="M172.25,95.63,160.46,82.79a.63.63,0,0,1,0-.9h0a.64.64,0,0,1,.9,0l11.78,12.84a.64.64,0,0,1,0,.9h0A.63.63,0,0,1,172.25,95.63Z"></path></g><path d="M163,75.3s-1.3,1.22-2.93,2.69-3,2.65-3,2.63,1.3-1.22,2.93-2.69S163,75.28,163,75.3Z" style="fill:#263238"></path><path d="M164.5,76.88s-1.27,1.22-2.88,2.68-2.92,2.63-2.93,2.62S160,81,161.56,79.5,164.48,76.87,164.5,76.88Z" style="fill:#263238"></path><path d="M159.34,81.41a2.77,2.77,0,0,1-.15-.27,2.1,2.1,0,0,0-.47-.58,2.25,2.25,0,0,0-.63-.39,1.84,1.84,0,0,1-.3-.11.91.91,0,0,1,.32,0,2,2,0,0,1,.67.39,1.85,1.85,0,0,1,.47.61A.74.74,0,0,1,159.34,81.41Z" style="fill:#263238"></path><path d="M159.85,80.82s-.26-.33-.62-.7-.68-.64-.67-.66a2.86,2.86,0,0,1,.73.6A2.61,2.61,0,0,1,159.85,80.82Z" style="fill:#263238"></path><path d="M160.4,80.4a5.23,5.23,0,0,1-.67-.69,5,5,0,0,1-.61-.76,5,5,0,0,1,.67.7A5.28,5.28,0,0,1,160.4,80.4Z" style="fill:#263238"></path><path d="M161.06,79.75a3.8,3.8,0,0,1-.69-.65,5.38,5.38,0,0,1-.61-.73,5.85,5.85,0,0,1,.67.67A5.52,5.52,0,0,1,161.06,79.75Z" style="fill:#263238"></path><path d="M161.59,79.16a1.79,1.79,0,0,1-.71-.54,1.83,1.83,0,0,1-.44-.78s.19.36.51.72A5.89,5.89,0,0,0,161.59,79.16Z" style="fill:#263238"></path><path d="M162.47,78.59a2,2,0,0,1-.82-.57,2,2,0,0,1-.51-.86,7.88,7.88,0,0,0,.58.8A5.73,5.73,0,0,0,162.47,78.59Z" style="fill:#263238"></path><path d="M162.76,77.78a1.19,1.19,0,0,1-.64-.47,1.28,1.28,0,0,1-.31-.73,4.36,4.36,0,0,0,.38.68A4,4,0,0,0,162.76,77.78Z" style="fill:#263238"></path><path d="M163.93,77.44a.67.67,0,0,1-.33,0,1.63,1.63,0,0,1-.71-.34,1.58,1.58,0,0,1-.46-.64.76.76,0,0,1-.07-.32s0,.12.13.3A1.76,1.76,0,0,0,163,77a1.74,1.74,0,0,0,.67.35Z" style="fill:#263238"></path><path d="M180.27,61.62l-.37-.41-4.75,4.93-4.33-4.34,4.57-4.74-.37-.41a8.53,8.53,0,0,0-7.6,3c-2.75,3.11-1.33,7.21-1.33,7.21L161,71.93l4.4,4.13,5.1-5s4.76,1.46,7.81-1.9C181.1,66.06,180.27,61.62,180.27,61.62Z" style="fill:#263238"></path><path d="M157.53,83.38l-4.4-4.11-5.69,5.64s-5.22-1-7.81,1.89a9.88,9.88,0,0,0-2.38,7c0,.34.43.45.43.45l5.12-4.51,4.33,4.33-5,4.33.42.41a7.85,7.85,0,0,0,8-2.54c2.76-3.11,1.34-7.2,1.34-7.2Z" style="fill:#263238"></path><path d="M179.9,61.21l-5.11,4.52-4.34-4.34L175,56.65a7.85,7.85,0,0,0-8,2.54c-2.75,3.11-1.33,7.21-1.33,7.21l-5.08,5.12,4.4,4.13,5.1-5s4.76,1.46,7.81-1.9C180.73,65.66,179.9,61.21,179.9,61.21Z" style="fill:#455a64"></path><path d="M157.1,83l-4.39-4.11L147,84.5s-5.23-1-7.81,1.9a9.15,9.15,0,0,0-2,7.5l5.12-4.52,4.33,4.33-4.57,4.74a7.86,7.86,0,0,0,8-2.53c2.75-3.12,1.33-7.21,1.33-7.21Z" style="fill:#455a64"></path></g></svg>