<?xml version="1.0" encoding="utf-8"?>
<!-- Generator: Adobe Illustrator 27.5.0, SVG Export Plug-In . SVG Version: 6.00 Build 0)  -->
<svg version="1.1" xmlns="http://www.w3.org/2000/svg" x="0px" y="0px"
	 viewBox="0 0 750 500" style="enable-background:new 0 0 750 500;" xml:space="preserve">
<g id="BACKGROUND">
	<g style="opacity:0.34;">
		<g>
			<g style="opacity:0.6;">
				<path style="fill:#53D0F7;" d="M620.847,291.592c4.788,21.137,3.977,40.498-2.41,61.202
					c-7.993,25.907-26.014,50.002-51.761,64.839c-9.037,5.208-18.738,9.123-28.842,11.906c-1.648,2.626-3.433,5.169-5.328,7.628
					h86.232c21.931-26.104,34.496-59.571,36.474-93.627c0.535-9.211,0.296-18.466-0.743-27.629
					c-4.023-35.512-19.763-69.347-43.395-96.188c-0.35,1.886-0.648,3.778-0.865,5.679
					C607.632,248.014,615.931,269.891,620.847,291.592z"/>
			</g>
            <g style="opacity:0.41;">
				<path style="fill:#53D0F7;" d="M353.867,431.908c-5.057-6.991-9.016-15.9-14.382-23.038c-11.492,2.337-22.84,5.747-34.317,8.688
					c-23.487,6.018-47.684,10.494-71.922,10.827c-26.931,0.369-54.393-4.822-77.817-18.659
					c-17.863-10.552-33.572-26.675-42.066-45.924c2.371,26.549,11.998,52.438,28.22,73.366h216.363
					C356.532,435.461,355.169,433.709,353.867,431.908z"/>
			</g>
            <g style="opacity:0.41;">
				<path style="fill:#53D0F7;" d="M387.983,67.675c6.544-0.222,13.58-0.614,21.257-1.195c35.825-2.712,71.312,5.45,105.722,16.722
					c3.32,1.087,6.622,2.258,9.9,3.507c-14.819-16.3-33.714-28.981-54.506-36.186c-41.152-14.259-91.057-8.59-127.306,13.864
					C357.944,64.425,372.934,65.549,387.983,67.675z"/>
			</g>
            <g style="opacity:0.35;">
				<path style="fill:#53D0F7;" d="M154.556,409.996c23.357,13.524,50.793,18.691,77.726,18.468
					c24.24-0.201,48.457-4.417,71.974-10.131c11.491-2.792,22.856-6.039,34.358-8.246c-4.698-6.118-10.496-10.908-19.12-11.933
					c-33.364-3.965-68.47,9.787-101.685,12.124c-22.318,1.57-46.026-1.456-64.064-14.801c-11.701-8.657-20.239-21.132-26.059-34.539
					c-12.076-27.819-12.4-59.741-2.199-88.177c6.903-19.244,23.676-33.868,29.543-53.475c4.901-16.377-0.779-33.471,0.823-50.025
					c0.327-3.376,0.956-6.729,2.04-10.049c5.745-17.597,33.336-43.021,50.246-51.516c40.527-20.359,82.822-30.263,125.954-31.274
					c-24.518-4.101-47.724-11.476-88.823-20.207c-48.818-10.371-103.662,25.456-132.468,67.134
					c-2.938,4.25-5.521,8.714-7.748,13.337c-9.963,20.689-12.775,44.585-8.156,66.961c5.43,26.305,22.214,46.578,16.215,74.582
					c-3.654,17.057-4.626,32.871-6.52,49.757c-1.48,13.198,0.957,25.815,6.12,37.303
					C121.113,383.984,136.745,399.683,154.556,409.996z"/>
			</g>
            <g style="opacity:0.47;">
				<path style="fill:#53D0F7;" d="M409.241,66.48c-7.678,0.581-14.714,0.973-21.257,1.195c22.226,3.141,44.579,8.468,66.938,15.821
					c0.003,0.001,83.549,27.478,83.549,27.478c39.266,12.914,65.292,50.547,62.846,91.809c-0.016,0.271-0.033,0.543-0.051,0.814
					c-1.564,23.918-9.54,47.363-22.714,67.023c-11.929,17.801-28.391,37.711-32.513,59.559c-3.283,17.409,3.809,35.007,4.672,52.725
					c0.821,16.845-4.214,32.829-12.877,46.635c10.104-2.784,19.805-6.699,28.842-11.906c25.747-14.837,43.768-38.932,51.761-64.839
					c6.387-20.703,7.198-40.064,2.41-61.202c-4.916-21.702-13.215-43.579-10.638-66.191c0.216-1.9,0.515-3.792,0.865-5.679
					c2.549-13.755,7.98-27.193,6.819-41.091c-0.877-10.501-5.501-20.353-11.155-29.246c-18.77-29.52-49.05-50.168-81.875-62.677
					c-3.278-1.249-6.58-2.42-9.9-3.507C480.553,71.931,445.065,63.768,409.241,66.48z"/>
			</g>
            <g style="opacity:0.7;">
				<path style="fill:#53D0F7;" d="M157.512,150.882c-1.067,3.432-1.68,6.896-1.99,10.382c-1.519,17.092,4.245,34.706-0.574,51.633
					c-5.769,20.265-22.468,35.445-29.275,55.342c-10.059,29.4-9.576,62.345,2.64,90.993c5.887,13.807,14.487,26.639,26.232,35.513
					c18.105,13.68,41.827,16.68,64.137,14.945c33.203-2.582,68.24-16.957,101.623-13.037c8.629,1.013,14.451,5.927,19.179,12.217
					c5.366,7.137,9.325,16.046,14.382,23.038c1.303,1.801,2.665,3.553,4.078,5.259h174.561c1.896-2.459,3.68-5.001,5.328-7.628
					c8.664-13.805,13.698-29.79,12.877-46.635c-0.863-17.718-7.956-35.316-4.672-52.725c4.121-21.848,20.583-41.758,32.513-59.559
					c13.174-19.66,21.15-43.105,22.714-67.023c0.018-0.271,0.035-0.542,0.051-0.814c2.446-41.262-23.58-78.896-62.846-91.809
					c0,0-83.546-27.477-83.549-27.478c-22.359-7.353-44.712-12.68-66.938-15.821c-15.049-2.127-30.039-3.251-44.933-3.288
					c-3.257-0.008-6.507,0.046-9.754,0.142c-43.127,1.267-85.371,11.706-125.796,32.927
					C190.632,106.31,163.168,132.691,157.512,150.882z"/>
			</g>
            <g style="opacity:0.35;">
				<circle style="fill:#53D0F7;" cx="311.797" cy="42.721" r="13.584"/>
			</g>
            <g style="opacity:0.35;">
				<circle style="fill:#53D0F7;" cx="678.942" cy="204.285" r="30.676"/>
			</g>
            <g style="opacity:0.35;">
				
					<ellipse transform="matrix(0.7692 -0.639 0.639 0.7692 -153.3179 101.6553)" style="fill:#53D0F7;"
                             cx="64.06" cy="263.062" rx="30.676" ry="30.676"/>
			</g>
            <g style="opacity:0.35;">
				<circle style="fill:#53D0F7;" cx="551.441" cy="71.362" r="9.319"/>
			</g>
		</g>
	</g>
    <path style="fill:#233863;stroke:#233863;stroke-width:3;stroke-miterlimit:10;" d="M663.545,433.347H86.455
		c-0.644,0-1.166-0.522-1.166-1.166v-0.44c0-0.644,0.522-1.166,1.166-1.166h577.089c0.644,0,1.166,0.522,1.166,1.166v0.44
		C664.711,432.825,664.189,433.347,663.545,433.347z"/>
</g>
    <g id="OBJECTS">
	<g>
		<g>
			<g style="opacity:0.57;">
				<g>
					<path style="fill:#3AAED5;" d="M251.257,345.03c-0.553,0-1-0.447-1-1c0-34.222,14.323-67.281,39.298-90.701
						c4.416-4.142,9.176-7.994,14.147-11.449c0.452-0.314,1.076-0.203,1.392,0.251c0.315,0.454,0.203,1.077-0.251,1.392
						c-4.89,3.399-9.573,7.19-13.92,11.266c-24.572,23.043-38.665,55.57-38.665,89.242
						C252.257,344.583,251.81,345.03,251.257,345.03z"/>
                    <path style="fill:#3AAED5;" d="M497.893,345.03c-0.553,0-1-0.447-1-1c0-13.965-2.334-27.66-6.937-40.704
						c-0.184-0.522,0.09-1.092,0.61-1.276c0.522-0.179,1.092,0.091,1.276,0.61c4.678,13.259,7.05,27.178,7.05,41.37
						C498.893,344.583,498.445,345.03,497.893,345.03z"/>
                    <path style="fill:#3AAED5;" d="M488.234,297.107c-0.39,0-0.76-0.229-0.921-0.611c-9.615-22.776-25.715-41.917-46.56-55.352
						c-0.464-0.299-0.598-0.918-0.299-1.382c0.3-0.464,0.918-0.599,1.383-0.298c21.184,13.654,37.546,33.107,47.317,56.256
						c0.215,0.509-0.023,1.095-0.532,1.309C488.496,297.082,488.364,297.107,488.234,297.107z"/>
                    <path style="fill:#3AAED5;" d="M312.366,238.53c-0.344,0-0.678-0.177-0.864-0.495c-0.278-0.477-0.118-1.089,0.358-1.368
						c18.948-11.092,40.634-16.956,62.714-16.956c18.39,0,36.095,3.921,52.623,11.655c0.5,0.234,0.716,0.829,0.481,1.33
						c-0.234,0.499-0.829,0.715-1.329,0.482c-16.261-7.608-33.681-11.466-51.775-11.466c-21.725,0-43.061,5.769-61.704,16.681
						C312.712,238.486,312.538,238.53,312.366,238.53z"/>
                    <path style="fill:#3AAED5;" d="M229.307,345.03c-0.553,0-1-0.447-1-1c0-57.993,34.304-110.567,87.394-133.937
						c0.511-0.226,1.096,0.007,1.318,0.512c0.223,0.505-0.007,1.096-0.512,1.318c-52.365,23.051-86.2,74.907-86.2,132.107
						C230.307,344.583,229.859,345.03,229.307,345.03z"/>
                    <path style="fill:#3AAED5;" d="M519.843,345.03c-0.553,0-1-0.447-1-1c0-45.482-21.841-88.832-58.424-115.96
						c-0.443-0.329-0.536-0.955-0.208-1.399c0.33-0.443,0.957-0.535,1.4-0.208c17.975,13.329,32.876,30.864,43.093,50.709
						c10.709,20.803,16.14,43.297,16.14,66.857C520.843,344.583,520.396,345.03,519.843,345.03z"/>
                    <path style="fill:#3AAED5;" d="M452.359,222.321c-0.184,0-0.369-0.05-0.535-0.156c-2.958-1.879-6.023-3.673-9.112-5.331
						c-0.487-0.261-0.67-0.867-0.408-1.354c0.261-0.486,0.867-0.67,1.353-0.408c3.132,1.681,6.24,3.5,9.239,5.405
						c0.466,0.296,0.604,0.915,0.308,1.38C453.014,222.157,452.69,222.321,452.359,222.321z"/>
                    <path style="fill:#3AAED5;" d="M436.783,213.719c-0.144,0-0.289-0.031-0.428-0.097c-19.379-9.197-40.165-13.86-61.781-13.86
						c-15.808,0-31.347,2.54-46.184,7.55c-0.53,0.177-1.092-0.104-1.268-0.627c-0.177-0.523,0.105-1.091,0.627-1.267
						c15.044-5.08,30.798-7.656,46.824-7.656c21.915,0,42.99,4.729,62.639,14.054c0.499,0.237,0.712,0.833,0.475,1.332
						C437.517,213.508,437.157,213.719,436.783,213.719z"/>
                    <path style="fill:#3AAED5;" d="M544.175,345.03c-0.553,0-1-0.447-1-1c0-18.565-2.998-36.811-8.911-54.229
						c-0.177-0.522,0.103-1.091,0.626-1.269c0.525-0.176,1.092,0.103,1.269,0.626c5.982,17.625,9.017,36.086,9.017,54.871
						C545.175,344.583,544.727,345.03,544.175,345.03z"/>
                    <path style="fill:#3AAED5;" d="M531.674,281.005c-0.394,0-0.768-0.234-0.926-0.622c-11.907-29.186-31.747-54.425-57.377-72.988
						c-0.447-0.324-0.547-0.949-0.223-1.396c0.322-0.448,0.947-0.548,1.396-0.224c25.932,18.783,46.007,44.321,58.055,73.853
						c0.209,0.512-0.037,1.096-0.548,1.304C531.928,280.981,531.8,281.005,531.674,281.005z"/>
                    <path style="fill:#3AAED5;" d="M464.231,201.039c-0.181,0-0.363-0.049-0.528-0.151c-26.691-16.654-57.512-25.458-89.129-25.458
						c-14.25,0-28.408,1.781-42.079,5.293c-0.532,0.136-1.08-0.184-1.218-0.72c-0.138-0.535,0.185-1.08,0.72-1.218
						c13.834-3.554,28.159-5.356,42.577-5.356c31.992,0,63.179,8.908,90.188,25.76c0.469,0.293,0.611,0.91,0.319,1.378
						C464.892,200.872,464.565,201.039,464.231,201.039z"/>
                    <path style="fill:#3AAED5;" d="M300.002,192.662c-0.37,0-0.726-0.206-0.899-0.56c-0.243-0.496-0.039-1.095,0.457-1.338
						c5.214-2.556,10.614-4.867,16.051-6.87c0.517-0.19,1.093,0.074,1.284,0.593c0.19,0.519-0.074,1.093-0.593,1.284
						c-5.373,1.979-10.71,4.263-15.861,6.789C300.3,192.629,300.149,192.662,300.002,192.662z"/>
                    <path style="fill:#3AAED5;" d="M204.975,345.03c-0.553,0-1-0.447-1-1c0-30.294,8.043-60.049,23.258-86.048
						c14.768-25.233,35.902-46.393,61.119-61.191c0.477-0.279,1.089-0.12,1.368,0.356c0.279,0.477,0.12,1.089-0.356,1.369
						c-51.436,30.186-83.389,85.944-83.389,145.515C205.975,344.583,205.527,345.03,204.975,345.03z"/>
				</g>
			</g>
            <g style="opacity:0.22;">
				<g>
					<path style="fill:#3AAED5;" d="M187.076,336.59c-0.828,0-1.5-0.672-1.5-1.5c0-26.587,5.411-52.295,16.083-76.411
						c10.31-23.295,24.999-43.981,43.66-61.481c6.719-6.3,13.955-12.156,21.507-17.406c0.681-0.473,1.615-0.306,2.088,0.376
						c0.473,0.68,0.305,1.615-0.375,2.087c-7.434,5.167-14.555,10.931-21.167,17.131c-37.366,35.039-58.796,84.501-58.796,135.703
						C188.576,335.918,187.904,336.59,187.076,336.59z"/>
                    <path style="fill:#3AAED5;" d="M562.073,336.59c-0.828,0-1.5-0.672-1.5-1.5c0-21.233-3.548-42.059-10.547-61.896
						c-0.275-0.781,0.135-1.638,0.916-1.914c0.78-0.271,1.638,0.134,1.914,0.916c7.111,20.159,10.717,41.32,10.717,62.895
						C563.573,335.918,562.901,336.59,562.073,336.59z"/>
                    <path style="fill:#3AAED5;" d="M547.39,263.726c-0.585,0-1.141-0.344-1.383-0.917c-14.62-34.633-39.101-63.738-70.798-84.169
						c-0.696-0.449-0.898-1.377-0.448-2.073c0.45-0.698,1.381-0.896,2.073-0.448c32.206,20.759,57.081,50.333,71.936,85.525
						c0.322,0.763-0.035,1.643-0.799,1.965C547.781,263.688,547.584,263.726,547.39,263.726z"/>
                    <path style="fill:#3AAED5;" d="M279.988,174.662c-0.515,0-1.017-0.266-1.296-0.742c-0.418-0.715-0.178-1.634,0.537-2.052
						c28.808-16.863,61.777-25.777,95.345-25.777c27.958,0,54.875,5.961,80.003,17.719c0.75,0.351,1.074,1.244,0.723,1.994
						c-0.351,0.751-1.242,1.074-1.994,0.723c-24.727-11.57-51.216-17.436-78.732-17.436c-33.035,0-65.48,8.771-93.829,25.366
						C280.507,174.596,280.246,174.662,279.988,174.662z"/>
                    <path style="fill:#3AAED5;" d="M153.701,336.59c-0.828,0-1.5-0.672-1.5-1.5c0-88.168,52.153-168.096,132.867-203.626
						c0.761-0.333,1.645,0.011,1.978,0.769c0.334,0.758-0.011,1.644-0.769,1.978c-79.626,35.051-131.076,113.901-131.076,200.88
						C155.201,335.918,154.529,336.59,153.701,336.59z"/>
                    <path style="fill:#3AAED5;" d="M595.447,336.59c-0.828,0-1.5-0.672-1.5-1.5c0-69.162-33.21-135.079-88.838-176.327
						c-0.665-0.494-0.805-1.433-0.311-2.099c0.494-0.666,1.433-0.805,2.099-0.312c27.327,20.264,49.981,46.922,65.514,77.093
						c16.281,31.626,24.537,65.825,24.537,101.644C596.947,335.918,596.275,336.59,595.447,336.59z"/>
                    <path style="fill:#3AAED5;" d="M492.844,150.016c-0.275,0-0.554-0.075-0.804-0.234c-4.506-2.862-9.168-5.589-13.856-8.106
						c-0.73-0.392-1.005-1.301-0.612-2.031c0.393-0.73,1.304-1.002,2.03-0.612c4.754,2.551,9.479,5.316,14.048,8.217
						c0.699,0.444,0.905,1.371,0.462,2.07C493.825,149.77,493.34,150.016,492.844,150.016z"/>
                    <path style="fill:#3AAED5;" d="M469.161,136.938c-0.216,0-0.435-0.047-0.643-0.145c-29.467-13.985-61.074-21.076-93.944-21.076
						c-24.038,0-47.666,3.863-70.227,11.481c-0.784,0.265-1.636-0.157-1.9-0.941c-0.266-0.785,0.156-1.636,0.941-1.901
						c22.871-7.723,46.821-11.639,71.186-11.639c33.318,0,65.358,7.188,95.232,21.366c0.748,0.355,1.066,1.249,0.712,1.998
						C470.261,136.621,469.723,136.938,469.161,136.938z"/>
                    <path style="fill:#3AAED5;" d="M632.443,336.59c-0.828,0-1.5-0.672-1.5-1.5c0-28.233-4.559-55.977-13.548-82.458
						c-0.267-0.785,0.153-1.637,0.938-1.903c0.784-0.266,1.636,0.154,1.902,0.938c9.096,26.794,13.708,54.861,13.708,83.423
						C633.943,335.918,633.271,336.59,632.443,336.59z"/>
                    <path style="fill:#3AAED5;" d="M613.438,239.243c-0.592,0-1.152-0.353-1.39-0.934c-18.106-44.378-48.275-82.755-87.245-110.983
						c-0.671-0.486-0.821-1.424-0.335-2.095c0.485-0.672,1.425-0.82,2.095-0.335c39.425,28.557,69.945,67.383,88.263,112.28
						c0.313,0.767-0.055,1.642-0.822,1.955C613.817,239.206,613.626,239.243,613.438,239.243z"/>
                    <path style="fill:#3AAED5;" d="M510.894,117.658c-0.271,0-0.546-0.073-0.793-0.228
						c-40.585-25.324-87.449-38.709-135.526-38.709c-21.669,0-43.196,2.708-63.984,8.048c-0.803,0.208-1.62-0.278-1.826-1.079
						c-0.206-0.802,0.277-1.62,1.08-1.826c21.031-5.403,42.81-8.143,64.73-8.143c48.64,0,96.053,13.543,137.114,39.165
						c0.703,0.438,0.917,1.364,0.478,2.066C511.883,117.408,511.394,117.658,510.894,117.658z"/>
                    <path style="fill:#3AAED5;" d="M261.19,104.922c-0.555,0-1.087-0.309-1.348-0.84c-0.365-0.744-0.058-1.643,0.686-2.007
						c7.92-3.884,16.13-7.398,24.401-10.445c0.778-0.285,1.641,0.112,1.926,0.889c0.287,0.777-0.111,1.64-0.889,1.926
						c-8.176,3.011-16.29,6.484-24.118,10.323C261.638,104.873,261.412,104.922,261.19,104.922z"/>
                    <path style="fill:#3AAED5;" d="M116.706,336.59c-0.828,0-1.5-0.672-1.5-1.5c0-46.058,12.228-91.294,35.36-130.821
						c22.452-38.363,54.583-70.533,92.921-93.031c0.713-0.418,1.634-0.181,2.053,0.534c0.419,0.714,0.18,1.634-0.535,2.053
						c-78.212,45.9-126.799,130.684-126.799,221.265C118.206,335.918,117.534,336.59,116.706,336.59z"/>
				</g>
			</g>
		</g>
        <g>
			<path style="fill:#FFFFFF;" d="M424.772,356.943c-1.145,0-2.285-0.244-3.358-0.731c-1.997-0.906-3.518-2.544-4.281-4.611
				l-2.446-6.625c-5.366,0.904-10.751,0.747-16.032-0.468l-2.94,6.481c-0.914,2.014-2.549,3.555-4.603,4.341
				c-2.057,0.786-4.292,0.723-6.29-0.184c-4.118-1.869-5.934-6.774-4.047-10.935l2.941-6.482
				c-4.396-3.174-8.061-7.122-10.912-11.755l-6.597,2.521c-2.06,0.788-4.292,0.723-6.29-0.184c-1.997-0.906-3.518-2.544-4.281-4.611
				c-1.573-4.26,0.598-9.043,4.838-10.664l6.613-2.529c-0.856-5.405-0.655-10.839,0.601-16.177l-6.396-2.9
				c-4.118-1.869-5.934-6.774-4.047-10.936c0.914-2.014,2.549-3.555,4.604-4.341c2.057-0.786,4.292-0.723,6.29,0.184l6.397,2.902
				c3.189-4.46,7.145-8.191,11.776-11.106l-2.453-6.641c-1.573-4.26,0.598-9.043,4.838-10.665c2.061-0.788,4.293-0.722,6.289,0.184
				c1.998,0.905,3.519,2.543,4.283,4.611l2.446,6.625c5.363-0.905,10.749-0.749,16.032,0.469l2.94-6.482
				c1.888-4.16,6.776-6.026,10.893-4.156c1.997,0.905,3.518,2.543,4.282,4.61c0.762,2.065,0.679,4.31-0.234,6.323l-2.941,6.481
				c4.393,3.173,8.059,7.121,10.912,11.756l6.596-2.522c2.06-0.788,4.292-0.723,6.29,0.184c1.998,0.906,3.519,2.544,4.282,4.611
				c1.572,4.259-0.598,9.043-4.838,10.663l-6.613,2.529c0.856,5.406,0.654,10.84-0.601,16.177l6.396,2.902
				c4.119,1.868,5.935,6.773,4.048,10.934c-1.889,4.161-6.775,6.027-10.894,4.156l-6.396-2.9c-3.19,4.46-7.147,8.19-11.776,11.105
				l2.453,6.642c1.572,4.259-0.599,9.043-4.838,10.664C426.752,356.762,425.761,356.943,424.772,356.943z M415.98,342.704
				l3.029,8.203c0.576,1.563,1.725,2.8,3.231,3.483c1.507,0.686,3.196,0.733,4.749,0.139c3.222-1.232,4.871-4.868,3.676-8.103
				l-3.022-8.187l0.708-0.427c4.928-2.972,9.082-6.89,12.348-11.647l0.474-0.691l7.916,3.59c3.112,1.415,6.811-0.006,8.246-3.161
				c1.432-3.156,0.062-6.874-3.053-8.286l-7.915-3.592l0.208-0.813c1.43-5.588,1.642-11.295,0.632-16.962l-0.146-0.815l8.15-3.116
				c3.222-1.232,4.871-4.867,3.676-8.103c-0.576-1.563-1.725-2.8-3.231-3.483c-1.506-0.685-3.193-0.73-4.749-0.138l-8.168,3.124
				l-0.43-0.729c-2.906-4.939-6.757-9.09-11.446-12.334l-0.687-0.475l3.627-7.995c0.695-1.531,0.759-3.237,0.18-4.804
				c-0.577-1.562-1.725-2.8-3.231-3.482c-3.114-1.416-6.814,0.005-8.246,3.161l-3.626,7.995l-0.81-0.204
				c-5.532-1.392-11.189-1.557-16.819-0.49l-0.832,0.157l-3.029-8.203c-0.577-1.563-1.725-2.8-3.232-3.483
				c-1.505-0.683-3.192-0.732-4.748-0.138c-3.223,1.232-4.872,4.867-3.676,8.104l3.022,8.186l-0.708,0.427
				c-4.93,2.972-9.084,6.891-12.348,11.647l-0.474,0.691l-7.916-3.591c-1.508-0.685-3.193-0.733-4.75-0.138
				c-1.559,0.597-2.801,1.768-3.495,3.299c-1.432,3.156-0.063,6.875,3.051,8.288l7.916,3.59l-0.208,0.813
				c-1.43,5.588-1.642,11.295-0.632,16.962l0.145,0.814l-8.15,3.116c-3.223,1.232-4.872,4.867-3.676,8.104
				c0.576,1.563,1.724,2.8,3.23,3.483c1.509,0.684,3.196,0.731,4.749,0.138l8.169-3.124l0.43,0.729
				c2.903,4.938,6.755,9.087,11.446,12.333l0.687,0.475l-3.627,7.996c-1.433,3.156-0.064,6.873,3.051,8.287
				c1.509,0.684,3.195,0.732,4.75,0.137c1.56-0.597,2.801-1.768,3.495-3.299l3.628-7.995l0.81,0.204
				c5.53,1.391,11.19,1.554,16.819,0.489L415.98,342.704z M407.901,334.237c-4.154,0-8.364-0.861-12.378-2.682
				c-7.384-3.351-13.005-9.407-15.829-17.055c-2.823-7.645-2.514-15.964,0.871-23.425c3.386-7.462,9.441-13.174,17.053-16.084
				c7.614-2.912,15.875-2.669,23.258,0.678c15.237,6.913,21.947,25.071,14.958,40.48l0,0
				C430.685,327.498,419.517,334.237,407.901,334.237z M408.465,274.972c-3.413,0-6.837,0.628-10.133,1.888
				c-7.116,2.722-12.779,8.064-15.944,15.043c-3.167,6.979-3.457,14.759-0.817,21.905c2.638,7.143,7.887,12.799,14.779,15.926
				c14.235,6.46,31.129-0.008,37.662-14.41c6.534-14.403,0.271-31.375-13.962-37.831
				C416.352,275.814,412.416,274.972,408.465,274.972z"/>
            <path style="fill:#FFFFFF;" d="M326.022,342.284c-1.506,0-2.921-0.576-3.994-1.627c-1.095-1.073-1.701-2.512-1.708-4.051
				l-0.02-4.356c-3.364-0.654-6.519-1.908-9.4-3.737l-3.075,3.141c-1.081,1.103-2.521,1.724-4.057,1.748
				c-1.586,0.051-2.992-0.553-4.087-1.626c-1.095-1.072-1.702-2.511-1.709-4.052c-0.007-1.535,0.584-2.988,1.663-4.091l3.076-3.141
				c-1.887-2.843-3.206-5.971-3.93-9.319l-4.355,0.069c-1.515-0.006-2.992-0.554-4.088-1.626c-1.095-1.073-1.701-2.512-1.708-4.051
				c-0.014-3.169,2.552-5.789,5.72-5.841l4.374-0.07c0.691-3.377,1.982-6.553,3.848-9.461l-3.096-3.032
				c-1.095-1.073-1.702-2.512-1.709-4.053c-0.007-1.536,0.584-2.989,1.664-4.092c1.079-1.103,2.52-1.723,4.056-1.748
				c1.579-0.006,2.992,0.554,4.087,1.626l3.095,3.032c2.869-1.926,6.018-3.282,9.381-4.044l-0.02-4.373
				c-0.014-3.17,2.552-5.789,5.721-5.84c1.554-0.001,2.991,0.554,4.086,1.626c1.096,1.072,1.702,2.512,1.709,4.052l0.021,4.355
				c3.363,0.654,6.518,1.909,9.399,3.737l3.075-3.141v0.001c1.08-1.104,2.521-1.725,4.057-1.749
				c1.545-0.049,2.991,0.552,4.088,1.625c2.257,2.212,2.276,5.864,0.045,8.144l-3.076,3.141c1.888,2.845,3.207,5.973,3.93,9.32
				l4.355-0.07c1.568,0.013,2.993,0.554,4.087,1.626c1.096,1.072,1.702,2.512,1.709,4.052c0.016,3.169-2.551,5.789-5.721,5.84
				l-4.372,0.07c-0.692,3.378-1.983,6.554-3.848,9.462l3.095,3.031c2.258,2.213,2.277,5.866,0.045,8.145
				c-1.079,1.103-2.52,1.724-4.056,1.748c-1.531,0.039-2.991-0.552-4.087-1.626l-3.095-3.031c-2.87,1.925-6.019,3.282-9.381,4.043
				l0.021,4.373c0.014,3.17-2.552,5.789-5.721,5.84C326.085,342.283,326.054,342.284,326.022,342.284z M310.632,325.93l0.691,0.468
				c3.059,2.074,6.469,3.429,10.135,4.027l0.835,0.137l0.027,6.035c0.005,1.002,0.398,1.936,1.108,2.632
				c0.695,0.682,1.615,1.056,2.594,1.056c0.021,0,0.042-0.001,0.063-0.001c2.078-0.033,3.762-1.752,3.752-3.83l-0.028-6.016
				l0.811-0.159c3.661-0.717,7.061-2.183,10.105-4.356l0.682-0.487l4.284,4.195c0.711,0.696,1.648,1.092,2.655,1.055
				c1.006-0.016,1.95-0.424,2.659-1.147c1.461-1.491,1.454-3.876-0.016-5.316l-4.284-4.195l0.474-0.692
				c2.109-3.087,3.505-6.517,4.147-10.193l0.143-0.814l6.015-0.097c2.079-0.033,3.762-1.751,3.752-3.83
				c-0.005-1.002-0.398-1.938-1.108-2.634c-0.695-0.681-1.614-1.055-2.593-1.055c-0.022,0-0.042,0.001-0.063,0.001l-6.034,0.098
				l-0.153-0.832c-0.674-3.651-2.099-7.032-4.236-10.05l-0.483-0.682l4.235-4.324c1.461-1.491,1.454-3.876-0.016-5.314
				c-0.71-0.697-1.638-1.119-2.655-1.055c-1.006,0.016-1.95,0.424-2.659,1.147v0.001l-4.236,4.323l-0.691-0.468
				c-3.059-2.073-6.469-3.429-10.134-4.027l-0.835-0.137l-0.028-6.034c-0.005-1.002-0.398-1.938-1.108-2.634
				c-0.695-0.681-1.614-1.055-2.593-1.055c-0.021,0-0.042,0.001-0.063,0.001c-2.078,0.033-3.762,1.752-3.752,3.83l0.027,6.016
				l-0.811,0.159c-3.661,0.717-7.061,2.183-10.105,4.357l-0.682,0.487l-4.285-4.197c-0.71-0.695-1.648-1.074-2.654-1.054
				c-1.006,0.017-1.95,0.424-2.659,1.147c-0.71,0.725-1.098,1.677-1.093,2.684c0.004,1.002,0.398,1.936,1.108,2.632l4.285,4.197
				l-0.474,0.692c-2.11,3.088-3.506,6.518-4.147,10.192l-0.143,0.814l-6.016,0.097c-2.078,0.034-3.762,1.753-3.752,3.831
				c0.005,1.002,0.398,1.936,1.108,2.632c0.709,0.696,1.642,1.051,2.656,1.055l6.032-0.097l0.154,0.832
				c0.675,3.652,2.101,7.033,4.236,10.049l0.482,0.682l-4.235,4.324c-0.71,0.724-1.098,1.677-1.093,2.683
				c0.004,1.002,0.398,1.937,1.108,2.632c0.71,0.697,1.636,1.089,2.655,1.055c1.006-0.016,1.95-0.423,2.66-1.147L310.632,325.93z
				 M325.702,325.366c-5.322,0-10.321-2.033-14.113-5.746c-7.986-7.824-8.049-20.758-0.141-28.832
				c3.83-3.909,8.937-6.11,14.38-6.198c5.482-0.105,10.579,1.953,14.449,5.743c3.87,3.792,6.016,8.88,6.041,14.327
				c0.025,5.444-2.07,10.595-5.901,14.505c-3.829,3.91-8.936,6.111-14.379,6.198C325.927,325.365,325.815,325.366,325.702,325.366z
				 M326.163,286.587c-0.101,0-0.201,0.001-0.303,0.003c-4.913,0.079-9.525,2.067-12.983,5.599
				c-7.138,7.286-7.088,18.95,0.111,26.002c3.485,3.415,8.101,5.225,13.018,5.174c4.912-0.079,9.522-2.067,12.982-5.6h0.001
				c3.459-3.53,5.352-8.182,5.329-13.095c-0.022-4.909-1.955-9.493-5.441-12.907C335.464,288.418,330.959,286.587,326.163,286.587z"
            />
            <path style="fill:#FFFFFF;" d="M343.163,423.987c-0.81,0-1.63-0.139-2.431-0.432c-1.773-0.649-3.181-1.947-3.962-3.656
				c-0.782-1.71-0.844-3.624-0.175-5.392l2.047-5.401c-3.816-2.353-7.079-5.364-9.718-8.969l-5.298,2.422
				c-3.558,1.629-7.767,0.085-9.378-3.44c-0.782-1.709-0.844-3.623-0.174-5.39c0.668-1.763,1.984-3.167,3.706-3.954l5.297-2.422
				c-0.999-4.353-1.142-8.793-0.426-13.219l-5.424-1.984c-1.773-0.649-3.181-1.947-3.962-3.656c-0.782-1.71-0.844-3.624-0.175-5.392
				c1.379-3.636,5.471-5.507,9.123-4.171l5.441,1.991c2.405-3.816,5.472-7.086,9.131-9.74l-2.389-5.224
				c-0.782-1.71-0.844-3.624-0.175-5.391c0.668-1.762,1.984-3.166,3.707-3.953c3.557-1.63,7.766-0.086,9.378,3.439l2.39,5.226
				c4.4-1.03,8.879-1.211,13.339-0.534l2.055-5.418c1.377-3.638,5.47-5.503,9.121-4.172c1.774,0.649,3.182,1.949,3.963,3.658
				c0.782,1.71,0.844,3.623,0.175,5.39l-2.048,5.401c3.816,2.354,7.08,5.366,9.719,8.969l5.297-2.422
				c1.722-0.789,3.645-0.865,5.416-0.217c1.773,0.65,3.181,1.948,3.962,3.657c0.782,1.71,0.844,3.624,0.175,5.391
				c-0.668,1.762-1.984,3.166-3.707,3.953l-5.297,2.422c0.999,4.354,1.142,8.793,0.426,13.219l5.424,1.984
				c1.774,0.65,3.182,1.949,3.963,3.659c0.781,1.71,0.843,3.624,0.173,5.39c-1.377,3.636-5.468,5.503-9.121,4.171l-5.441-1.992
				c-2.406,3.815-5.472,7.086-9.131,9.74l2.389,5.225c0.782,1.709,0.844,3.623,0.174,5.39c-0.668,1.763-1.984,3.167-3.706,3.954
				c-1.725,0.788-3.647,0.864-5.416,0.217c-1.773-0.65-3.181-1.948-3.962-3.657l-2.39-5.226c-4.4,1.032-8.88,1.211-13.34,0.535
				l-2.053,5.418C348.778,422.224,346.047,423.987,343.163,423.987z M329.603,397.629l0.477,0.686
				c2.715,3.898,6.181,7.095,10.3,9.502l0.729,0.427l-2.642,6.974c-0.479,1.263-0.435,2.631,0.123,3.851
				c0.558,1.219,1.563,2.145,2.83,2.609c2.626,0.963,5.573-0.386,6.566-3.001l2.636-6.956l0.814,0.143
				c4.721,0.828,9.474,0.637,14.127-0.567l0.811-0.211l3.082,6.741c0.558,1.22,1.563,2.147,2.831,2.611
				c1.271,0.466,2.655,0.409,3.896-0.157c1.24-0.567,2.188-1.577,2.668-2.845c0.479-1.263,0.436-2.63-0.122-3.849l-3.082-6.741
				l0.689-0.477c3.954-2.73,7.208-6.2,9.672-10.313l0.425-0.71l6.985,2.557c2.626,0.964,5.573-0.386,6.563-3.001
				c0.48-1.263,0.436-2.63-0.121-3.85c-0.558-1.22-1.563-2.147-2.832-2.611l-7.003-2.563l0.154-0.832
				c0.874-4.69,0.724-9.403-0.448-14.007l-0.206-0.81l6.806-3.111c1.241-0.567,2.189-1.577,2.669-2.844
				c0.478-1.263,0.434-2.63-0.123-3.85s-1.563-2.147-2.831-2.611c-1.271-0.466-2.654-0.41-3.897,0.157l-6.807,3.113l-0.477-0.686
				c-2.715-3.897-6.181-7.095-10.301-9.503l-0.73-0.427l2.644-6.974c0.479-1.263,0.436-2.629-0.122-3.849
				c-0.558-1.22-1.563-2.148-2.832-2.611c-2.626-0.964-5.573,0.385-6.563,3.002l-2.638,6.955l-0.814-0.143
				c-4.721-0.83-9.475-0.636-14.126,0.567l-0.811,0.21l-3.082-6.74c-1.153-2.52-4.171-3.624-6.728-2.453
				c-1.241,0.567-2.189,1.577-2.669,2.844c-0.479,1.263-0.435,2.63,0.123,3.85l3.082,6.74l-0.689,0.477
				c-3.955,2.73-7.209,6.2-9.672,10.313l-0.425,0.71l-6.985-2.556c-2.628-0.963-5.574,0.383-6.564,3.001
				c-0.479,1.263-0.436,2.631,0.123,3.851c0.558,1.219,1.563,2.145,2.83,2.609l7.003,2.563l-0.154,0.832
				c-0.875,4.69-0.724,9.402,0.448,14.006l0.206,0.809l-6.806,3.111c-1.24,0.567-2.188,1.577-2.668,2.845
				c-0.479,1.263-0.436,2.63,0.122,3.849c1.153,2.522,4.172,3.62,6.727,2.454L329.603,397.629z M357.297,404.966
				c-9.751,0-19.054-5.514-23.328-14.862c-5.861-12.818-0.085-28.068,12.875-33.994c12.963-5.927,28.274-0.317,34.134,12.5
				c2.84,6.212,3.063,13.169,0.63,19.592c-2.433,6.417-7.228,11.532-13.505,14.401C364.595,404.206,360.915,404.966,357.297,404.966
				z M357.651,355.746c-3.34,0-6.736,0.701-9.976,2.182c-11.958,5.468-17.291,19.528-11.889,31.344
				c5.403,11.816,19.527,16.978,31.483,11.513l0,0c5.795-2.649,10.222-7.37,12.467-13.292c2.243-5.919,2.038-12.329-0.578-18.051
				C375.22,360.826,366.644,355.746,357.651,355.746z"/>
		</g>
        <g>
			<g>
				<g>
					<g>
						<path style="fill:#FFB44F;" d="M267.634,166.113l-29.235-6.94c-1.388-0.33-2.246-1.722-1.916-3.109l5.514-23.228
							c0.329-1.388,1.721-2.246,3.109-1.916l29.235,6.94c1.388,0.329,2.246,1.721,1.916,3.109l-5.514,23.228
							C270.414,165.584,269.022,166.442,267.634,166.113z"/>
                        <path style="fill:#233863;" d="M268.23,167.683c-0.311,0-0.626-0.036-0.941-0.111c-0.001,0-0.001,0-0.001,0l-29.235-6.94
							c-2.189-0.52-3.549-2.724-3.029-4.915l5.515-23.229c0.52-2.189,2.729-3.548,4.914-3.029l29.236,6.94
							c2.189,0.52,3.548,2.725,3.029,4.915l-5.516,23.228C271.758,166.417,270.079,167.683,268.23,167.683z M267.98,164.653
							c0.587,0.138,1.166-0.223,1.303-0.803l5.516-23.228c0.138-0.581-0.223-1.166-0.804-1.303l-29.235-6.94
							c-0.579-0.142-1.166,0.223-1.304,0.804l-5.514,23.227c-0.138,0.581,0.223,1.165,0.803,1.303L267.98,164.653L267.98,164.653z"
                        />
					</g>
                    <path style="fill:#FFFFFF;" d="M253.993,154.005c-0.169,0-0.34-0.019-0.509-0.055c-0.62-0.135-1.149-0.504-1.491-1.039
						l-3.675-5.774c-0.444-0.699-0.238-1.626,0.46-2.071c0.697-0.443,1.625-0.239,2.071,0.46l3.33,5.233l12.409-7.999
						c0.693-0.45,1.623-0.25,2.073,0.448c0.449,0.696,0.248,1.624-0.448,2.073l-12.944,8.345
						C254.884,153.876,254.442,154.005,253.993,154.005z"/>
				</g>
			</g>
            <g>
				<g>
					<g>
						<path style="fill:#3AAED5;" d="M519.591,168.302l-29.863,3.319c-1.418,0.158-2.694-0.864-2.852-2.281l-2.637-23.727
							c-0.158-1.417,0.864-2.694,2.281-2.852l29.864-3.319c1.418-0.158,2.694,0.864,2.852,2.281l2.637,23.727
							C522.031,166.868,521.009,168.145,519.591,168.302z"/>
                        <path style="fill:#233863;" d="M489.435,173.138c-0.922,0-1.811-0.311-2.542-0.895c-0.852-0.681-1.388-1.653-1.508-2.737
							l-2.637-23.728c-0.248-2.238,1.37-4.26,3.608-4.508l29.862-3.319c2.244-0.251,4.259,1.37,4.51,3.605l2.637,23.729
							c0.248,2.238-1.37,4.26-3.608,4.508l-29.862,3.319C489.74,173.129,489.587,173.138,489.435,173.138z M516.67,140.926
							c-0.04,0-0.08,0.002-0.12,0.007l-29.863,3.319c-0.594,0.066-1.022,0.602-0.956,1.195l2.637,23.728
							c0.031,0.287,0.174,0.545,0.399,0.726c0.226,0.181,0.511,0.261,0.796,0.23l29.863-3.319h0.001
							c0.593-0.066,1.021-0.602,0.955-1.195l-2.637-23.727C517.684,141.336,517.214,140.926,516.67,140.926z"/>
					</g>
                    <path style="fill:#FFFFFF;" d="M501.859,161.64c-0.522,0-1.026-0.172-1.445-0.497l-5.404-4.195
						c-0.654-0.508-0.772-1.451-0.265-2.105c0.507-0.654,1.45-0.773,2.105-0.265l4.9,3.805l8.986-11.712
						c0.505-0.657,1.445-0.782,2.103-0.277c0.657,0.504,0.781,1.446,0.277,2.103l-9.375,12.219
						c-0.386,0.503-0.945,0.825-1.575,0.906C502.065,161.633,501.962,161.64,501.859,161.64z"/>
				</g>
			</g>
            <circle style="fill:#3AAED5;" cx="160.199" cy="190.011" r="8.163"/>
            <circle style="fill:#3AAED5;" cx="374.108" cy="77.221" r="8.163"/>
            <path style="fill:#3D85FD;" d="M212.403,188.177c0,1.712-1.388,3.101-3.101,3.101s-3.101-1.388-3.101-3.101
				c0-1.712,1.388-3.101,3.101-3.101S212.403,186.464,212.403,188.177z"/>
            <path style="fill:#3D85FD;" d="M569.386,161.002c0,1.712-1.388,3.101-3.101,3.101c-1.713,0-3.101-1.388-3.101-3.101
				c0-1.712,1.388-3.101,3.101-3.101C567.998,157.901,569.386,159.289,569.386,161.002z"/>
            <circle style="fill:#3D85FD;" cx="271.618" cy="99.45" r="3.101"/>
            <circle style="fill:#FFB44F;" cx="169.538" cy="245.995" r="3.101"/>
            <circle style="fill:#FFB44F;" cx="586.121" cy="272.695" r="3.101"/>
            <path style="fill:#FFB44F;" d="M637.765,311.2c0,3.154-2.557,5.711-5.711,5.711c-3.154,0-5.711-2.557-5.711-5.711
				c0-3.154,2.557-5.711,5.711-5.711C635.208,305.489,637.765,308.046,637.765,311.2z"/>
            <path style="fill:#FFB44F;" d="M457.062,126.927c0,3.73-3.024,6.754-6.754,6.754c-3.73,0-6.754-3.024-6.754-6.754
				c0-3.73,3.024-6.754,6.754-6.754C454.038,120.174,457.062,123.197,457.062,126.927z"/>
		</g>
	</g>
        <g>
		<g>
			<g>
				<path style="fill:#3D85FD;" d="M285.459,411.623l-107.088,0.225c-8.218,0.017-14.957-6.693-14.974-14.911l-0.147-69.732
					c-0.017-8.218,6.693-14.957,14.911-14.974l107.088-0.225c8.218-0.017,14.957,6.693,14.974,14.911l0.147,69.732
					C300.388,404.867,293.677,411.606,285.459,411.623z"/>
                <path style="fill:#233863;" d="M178.339,413.348c-9.051,0.001-16.423-7.353-16.442-16.408l-0.145-69.732
					c-0.02-9.066,7.341-16.458,16.408-16.478l107.088-0.225c0.011,0,0.022,0,0.033,0c9.053,0,16.425,7.354,16.443,16.408
					l0.146,69.732c0.01,4.375-1.696,8.503-4.804,11.623s-7.229,4.844-11.604,4.853l0,0l-107.088,0.225
					C178.362,413.348,178.351,413.348,178.339,413.348z M285.459,411.623h0.01H285.459z M285.28,313.506c-0.009,0-0.018,0-0.027,0
					l-107.088,0.225c-7.412,0.016-13.43,6.06-13.414,13.472l0.145,69.732c0.016,7.402,6.044,13.414,13.442,13.414
					c0.01,0,0.02,0,0.029,0l107.088-0.225c3.574-0.008,6.942-1.418,9.484-3.97c2.542-2.553,3.938-5.927,3.93-9.501l-0.146-69.732
					C298.709,319.518,292.681,313.506,285.28,313.506z"/>
			</g>
            <path style="opacity:0.24;fill:#233863;" d="M285.459,411.623l-107.088,0.225c-8.218,0.017-14.957-6.693-14.974-14.911
				l-0.147-69.732c-0.017-8.218,6.693-14.957,14.911-14.974l107.088-0.225c8.218-0.017,14.957,6.693,14.974,14.911l0.147,69.732
				C300.388,404.867,293.677,411.606,285.459,411.623z"/>
		</g>
            <g>
			<g>
				<g>
					<path style="fill:#FFFFFF;" d="M279.438,396.065l-47.156-45.209c-0.509-0.488-0.526-1.297-0.038-1.806l61.209-63.844
						c0.488-0.509,1.297-0.526,1.806-0.038l47.156,45.209c0.509,0.488,0.526,1.297,0.038,1.806l-61.209,63.844
						C280.756,396.536,279.947,396.553,279.438,396.065z"/>
                    <path style="fill:#233863;" d="M280.32,397.92c-0.719,0-1.399-0.272-1.92-0.772c-0.001,0-0.001,0-0.001,0l-47.155-45.209
						c-0.535-0.514-0.84-1.205-0.855-1.946c-0.016-0.742,0.259-1.445,0.773-1.981l61.208-63.844
						c1.062-1.107,2.821-1.142,3.928-0.082l47.155,45.209c1.105,1.062,1.143,2.822,0.082,3.928l-61.208,63.843
						c-0.514,0.535-1.205,0.84-1.947,0.854C280.36,397.92,280.341,397.92,280.32,397.92z M280.476,394.981L280.476,394.981
						C280.475,394.981,280.475,394.981,280.476,394.981L280.476,394.981z M233.481,349.927l46.834,44.901l60.9-63.522
						l-46.834-44.901L233.481,349.927z"/>
				</g>
                <path style="fill:#FFB44F;" d="M328.492,331.831c-0.249,0-0.498-0.093-0.692-0.278l-17.753-17.021
					c-0.398-0.382-0.412-1.015-0.029-1.414c0.383-0.397,1.015-0.411,1.414-0.029l17.753,17.021c0.398,0.382,0.412,1.015,0.029,1.414
					C329.018,331.728,328.755,331.831,328.492,331.831z"/>
                <path style="fill:#233863;" d="M319.569,343.547c-0.249,0-0.498-0.093-0.692-0.278l-35.507-34.042
					c-0.398-0.382-0.412-1.015-0.029-1.414c0.383-0.397,1.016-0.411,1.414-0.029l35.507,34.042c0.398,0.382,0.412,1.015,0.029,1.414
					C320.095,343.443,319.832,343.547,319.569,343.547z"/>
                <path style="fill:#233863;" d="M307.995,355.619c-0.249,0-0.498-0.093-0.692-0.278l-35.507-34.042
					c-0.398-0.382-0.412-1.015-0.029-1.414c0.382-0.397,1.015-0.411,1.414-0.029l35.507,34.042c0.398,0.382,0.412,1.015,0.029,1.414
					C308.521,355.516,308.258,355.619,307.995,355.619z"/>
                <path style="fill:#233863;" d="M297.103,366.981c-0.249,0-0.498-0.093-0.692-0.278l-35.508-34.042
					c-0.398-0.382-0.412-1.015-0.029-1.414c0.382-0.397,1.015-0.411,1.414-0.029l35.508,34.042c0.398,0.382,0.412,1.015,0.029,1.414
					C297.628,366.878,297.365,366.981,297.103,366.981z"/>
                <path style="fill:#233863;" d="M285.528,379.054c-0.249,0-0.498-0.093-0.692-0.278l-35.508-34.042
					c-0.398-0.382-0.412-1.015-0.029-1.414c0.382-0.397,1.015-0.41,1.414-0.029l35.508,34.042c0.398,0.382,0.412,1.015,0.029,1.414
					C286.054,378.95,285.791,379.054,285.528,379.054z"/>
			</g>
                <g>
				<g>
					<path style="fill:#FFFFFF;" d="M252.285,338.428l-60.475,24.705c-0.653,0.267-1.399-0.046-1.665-0.699l-33.448-81.877
						c-0.267-0.653,0.046-1.399,0.699-1.665l60.475-24.705c0.653-0.267,1.399,0.046,1.665,0.699l33.448,81.877
						C253.251,337.416,252.938,338.161,252.285,338.428z"/>
                    <path style="fill:#233863;" d="M191.327,364.73c-0.364,0-0.729-0.073-1.075-0.219c-0.685-0.287-1.216-0.823-1.496-1.51
						l-33.448-81.877c-0.281-0.685-0.277-1.441,0.01-2.126c0.287-0.684,0.824-1.216,1.512-1.496l60.474-24.705
						c1.422-0.577,3.042,0.104,3.621,1.521l33.449,81.877c0.578,1.417-0.104,3.041-1.521,3.621c0,0.001-0.001,0.001-0.001,0.001
						l-60.475,24.705C192.038,364.661,191.683,364.73,191.327,364.73z M158.169,280.196l33.28,81.465l60.063-24.537l-33.281-81.465
						L158.169,280.196z M252.284,338.429h0.01H252.284z M251.716,337.041h-0.001H251.716L251.716,337.041z"/>
				</g>
                    <path style="fill:#233863;" d="M209.303,285.255c-0.393,0-0.768-0.234-0.926-0.622c-0.209-0.511,0.036-1.095,0.548-1.304
					l10.399-4.249c0.506-0.21,1.094,0.036,1.304,0.548c0.209,0.511-0.036,1.095-0.548,1.304l-10.399,4.249
					C209.558,285.231,209.429,285.255,209.303,285.255z"/>
                    <path style="fill:#233863;" d="M180.491,315.091c-0.394,0-0.768-0.234-0.926-0.622c-0.209-0.511,0.036-1.095,0.548-1.304
					l45.535-18.603c0.507-0.211,1.095,0.035,1.304,0.548c0.209,0.511-0.036,1.095-0.548,1.304l-45.535,18.603
					C180.746,315.067,180.617,315.091,180.491,315.091z"/>
                    <path style="fill:#FFB44F;" d="M212.23,314.416c-0.394,0-0.768-0.234-0.926-0.622c-0.209-0.511,0.036-1.095,0.548-1.304
					l18.1-7.393c0.51-0.211,1.095,0.036,1.304,0.548c0.209,0.511-0.036,1.095-0.548,1.304l-18.1,7.394
					C212.484,314.393,212.356,314.416,212.23,314.416z"/>
                    <path style="fill:#FFB44F;" d="M184.794,325.625c-0.393,0-0.767-0.234-0.926-0.622c-0.209-0.511,0.036-1.095,0.548-1.304
					l11.079-4.526c0.507-0.21,1.095,0.036,1.304,0.548c0.209,0.511-0.036,1.095-0.548,1.304l-11.079,4.526
					C185.049,325.602,184.92,325.625,184.794,325.625z"/>
                    <path style="fill:#233863;" d="M188.368,337.907c-0.394,0-0.768-0.234-0.926-0.622c-0.209-0.511,0.036-1.095,0.548-1.304
					l28.047-11.458c0.507-0.21,1.095,0.035,1.304,0.548c0.209,0.511-0.036,1.095-0.548,1.304l-28.047,11.458
					C188.623,337.884,188.494,337.907,188.368,337.907z"/>
                    <g>
					<path style="fill:#FFB44F;" d="M204.195,292.843l-24.181,10.477c-1.016,0.44-2.196-0.027-2.636-1.042l-11.239-25.94
						c-0.44-1.016,0.027-2.196,1.042-2.636l24.181-10.477c1.016-0.44,2.196,0.027,2.636,1.042l11.239,25.94
						C205.678,291.223,205.211,292.403,204.195,292.843z"/>
                        <path style="fill:#233863;" d="M179.219,304.486c-0.374,0-0.748-0.07-1.105-0.212c-0.747-0.295-1.333-0.863-1.652-1.6
						l-11.239-25.94c-0.318-0.736-0.332-1.553-0.037-2.299c0.295-0.747,0.863-1.333,1.6-1.652l24.181-10.477
						c1.52-0.657,3.293,0.041,3.951,1.563l11.239,25.94c0.318,0.736,0.332,1.553,0.037,2.299c-0.295,0.746-0.863,1.333-1.6,1.651
						c0,0.001,0,0.001,0,0.001l-24.181,10.477C180.029,304.403,179.624,304.486,179.219,304.486z M192.158,264.06
						c-0.133,0-0.269,0.026-0.398,0.082l-24.181,10.478c-0.246,0.106-0.436,0.302-0.534,0.552c-0.099,0.249-0.095,0.522,0.012,0.769
						l11.24,25.94c0.106,0.246,0.302,0.435,0.552,0.534c0.248,0.1,0.521,0.093,0.769-0.012l24.181-10.478
						c0.246-0.106,0.435-0.303,0.534-0.552c0.099-0.249,0.095-0.522-0.012-0.768l-11.239-25.94
						C192.917,264.286,192.547,264.06,192.158,264.06z M204.195,292.843h0.01H204.195z"/>
				</g>
                    <path style="fill:#233863;" d="M178.406,279.102c-0.294,0-0.589-0.056-0.87-0.167c-0.588-0.233-1.05-0.68-1.301-1.26
					l-1.318-3.041c-0.109-0.254,0.007-0.548,0.26-0.658c0.255-0.11,0.548,0.007,0.658,0.26l1.318,3.042
					c0.145,0.335,0.411,0.593,0.75,0.727c0.342,0.136,0.711,0.128,1.044-0.017l0.223-0.096c0.533-0.231,0.779-0.854,0.548-1.387
					l-3.336-7.699c-0.238-0.551-0.881-0.803-1.433-0.566l-0.379,0.165c-0.586,0.253-0.856,0.936-0.603,1.522l0.082,0.188
					c0.11,0.254-0.005,0.548-0.258,0.658c-0.251,0.111-0.548-0.004-0.658-0.258l-0.083-0.19c-0.474-1.094,0.03-2.366,1.122-2.839
					l0.379-0.165c1.054-0.455,2.29,0.03,2.748,1.086l3.336,7.7c0.449,1.039-0.029,2.251-1.068,2.702l-0.223,0.096
					C179.044,279.036,178.725,279.102,178.406,279.102z"/>
                    <path style="fill:#FFFFFF;" d="M192.591,267.739c0.822,0.837,0.809,2.182-0.028,3.004c-0.837,0.822-2.182,0.809-3.004-0.028
					c-0.822-0.837-0.809-2.182,0.028-3.004C190.424,266.889,191.769,266.901,192.591,267.739z"/>
			</g>
                <g>
				<g>
					<path style="fill:#FFFFFF;" d="M309.441,272.777l-60.132,25.528c-0.649,0.276-1.399-0.027-1.675-0.677l-34.562-81.413
						c-0.276-0.649,0.027-1.399,0.677-1.675l60.132-25.528c0.649-0.276,1.399,0.027,1.675,0.677l34.562,81.413
						C310.394,271.751,310.091,272.501,309.441,272.777z"/>
                    <path style="fill:#233863;" d="M248.811,299.907c-0.352,0-0.704-0.067-1.04-0.203c-0.688-0.278-1.227-0.808-1.517-1.49
						l-34.563-81.413c-0.598-1.409,0.061-3.042,1.471-3.641l60.133-25.528c0.682-0.29,1.437-0.296,2.126-0.019
						c0.688,0.278,1.226,0.808,1.516,1.491l34.563,81.412c0.29,0.683,0.296,1.438,0.019,2.125c-0.278,0.689-0.807,1.227-1.49,1.517
						l-60.132,25.528C249.547,299.833,249.179,299.907,248.811,299.907z M214.54,215.834l34.389,81.003l59.722-25.355
						l-34.389-81.002L214.54,215.834z"/>
				</g>
                    <path style="fill:#233863;" d="M265.725,220.195c-0.389,0-0.759-0.229-0.921-0.61c-0.216-0.508,0.021-1.095,0.53-1.311
					l10.34-4.39c0.504-0.214,1.095,0.02,1.312,0.53c0.216,0.508-0.022,1.095-0.53,1.311l-10.34,4.39
					C265.988,220.169,265.855,220.195,265.725,220.195z"/>
                    <path style="fill:#233863;" d="M237.322,250.421c-0.389,0-0.759-0.229-0.921-0.61c-0.216-0.508,0.021-1.095,0.53-1.311
					l45.278-19.222c0.503-0.215,1.095,0.021,1.312,0.53c0.216,0.508-0.022,1.095-0.53,1.311l-45.278,19.222
					C237.586,250.395,237.453,250.421,237.322,250.421z"/>
                    <path style="fill:#FFB44F;" d="M269.05,249.314c-0.389,0-0.759-0.229-0.921-0.61c-0.216-0.508,0.021-1.095,0.53-1.311
					l17.997-7.641c0.504-0.215,1.095,0.021,1.311,0.53c0.216,0.508-0.022,1.095-0.53,1.311l-17.997,7.641
					C269.314,249.288,269.181,249.314,269.05,249.314z"/>
                    <path style="fill:#FFB44F;" d="M241.769,260.895c-0.389,0-0.759-0.229-0.921-0.609c-0.216-0.508,0.021-1.096,0.53-1.312
					l11.017-4.677c0.504-0.213,1.095,0.021,1.312,0.53c0.216,0.508-0.021,1.096-0.53,1.312l-11.017,4.677
					C242.032,260.869,241.899,260.895,241.769,260.895z"/>
                    <path style="fill:#233863;" d="M245.51,273.128c-0.389,0-0.759-0.228-0.921-0.609c-0.216-0.508,0.021-1.096,0.53-1.312
					l27.889-11.84c0.505-0.214,1.095,0.022,1.311,0.53c0.216,0.508-0.021,1.096-0.53,1.312l-27.889,11.84
					C245.773,273.103,245.641,273.128,245.51,273.128z"/>
			</g>
                <g>
				<g>
					<path style="fill:#3AAED5;" d="M278.703,359.604l-64.587-9.799c-0.697-0.106-1.177-0.757-1.071-1.454l13.267-87.445
						c0.106-0.697,0.757-1.177,1.454-1.071l64.587,9.799c0.698,0.106,1.177,0.757,1.071,1.454l-13.267,87.445
						C280.052,359.23,279.401,359.71,278.703,359.604z"/>
                    <path style="fill:#233863;" d="M278.9,361.119c-0.14,0-0.281-0.01-0.422-0.031l0,0l-64.587-9.8
						c-0.733-0.111-1.381-0.501-1.82-1.1c-0.44-0.598-0.621-1.33-0.509-2.065l13.266-87.443c0.111-0.733,0.501-1.38,1.099-1.819
						c0.597-0.439,1.331-0.621,2.063-0.511l64.588,9.8c0.733,0.111,1.38,0.501,1.819,1.099c0.44,0.598,0.621,1.33,0.511,2.064
						l-13.268,87.445c-0.111,0.733-0.501,1.38-1.099,1.819C280.06,360.933,279.488,361.119,278.9,361.119z M214.561,348.355
						l64.147,9.732l13.2-87.005l-64.148-9.732L214.561,348.355z"/>
				</g>
                    <path style="fill:#FFFFFF;" d="M248.501,275.423c-0.05,0-0.101-0.004-0.151-0.012l-12.398-1.881
					c-0.546-0.082-0.921-0.592-0.838-1.139c0.083-0.546,0.594-0.925,1.139-0.838l12.398,1.881c0.546,0.082,0.921,0.592,0.838,1.139
					C249.413,275.068,248.987,275.423,248.501,275.423z"/>
                    <path style="fill:#233863;" d="M280.688,293.739c-0.05,0-0.101-0.004-0.151-0.012l-14.237-2.16
					c-0.546-0.082-0.921-0.592-0.838-1.139c0.083-0.546,0.59-0.923,1.139-0.838l14.237,2.16c0.546,0.082,0.921,0.592,0.838,1.139
					C281.6,293.385,281.174,293.739,280.688,293.739z"/>
                    <path style="fill:#FFFFFF;" d="M256.371,290.051c-0.05,0-0.101-0.004-0.151-0.012l-24.316-3.689
					c-0.546-0.082-0.921-0.592-0.838-1.139c0.083-0.546,0.589-0.924,1.139-0.838l24.316,3.69c0.546,0.082,0.921,0.592,0.838,1.139
					C257.283,289.696,256.857,290.051,256.371,290.051z"/>
                    <path style="fill:#233863;" d="M257.251,307.1c-0.05,0-0.101-0.004-0.151-0.012l-27.705-4.203
					c-0.546-0.082-0.921-0.592-0.838-1.139c0.083-0.546,0.591-0.923,1.139-0.838l27.705,4.203c0.546,0.082,0.921,0.592,0.838,1.139
					C258.163,306.745,257.737,307.1,257.251,307.1z"/>
                    <path style="fill:#FFFFFF;" d="M275.818,325.837c-0.05,0-0.101-0.004-0.151-0.012l-48.633-7.378
					c-0.546-0.082-0.921-0.592-0.838-1.139c0.083-0.546,0.591-0.922,1.139-0.838l48.633,7.378c0.546,0.082,0.921,0.592,0.838,1.139
					C276.73,325.482,276.305,325.837,275.818,325.837z"/>
                    <path style="fill:#FFFFFF;" d="M252.024,339.143c-0.05,0-0.1-0.004-0.151-0.012l-27.348-4.148
					c-0.546-0.082-0.921-0.592-0.838-1.139c0.082-0.546,0.582-0.921,1.139-0.838l27.348,4.148c0.546,0.082,0.921,0.592,0.838,1.139
					C252.938,338.788,252.511,339.143,252.024,339.143z"/>
			</g>
		</g>
            <g>
			<g>
				<path style="fill:#FFFFFF;" d="M289.414,424.067l-114.999,0.241c-6.043,0.013-10.997-4.921-11.01-10.964l-0.163-77.643
					c-0.013-6.043,4.921-10.998,10.964-11.01l114.999-0.242c6.043-0.013,10.997,4.921,11.01,10.964l0.163,77.643
					C300.391,419.099,295.457,424.054,289.414,424.067z"/>
                <path style="fill:#233863;" d="M174.392,425.309c-3.18,0-6.179-1.243-8.448-3.503c-2.275-2.266-3.531-5.271-3.538-8.46
					l-0.163-77.643c-0.007-3.189,1.237-6.199,3.503-8.474c2.265-2.275,5.27-3.531,8.459-3.538l114.999-0.241
					c0.009,0,0.017,0,0.025,0c6.599,0,11.974,5.36,11.987,11.962l0.163,77.643c0.014,6.609-5.353,11.998-11.963,12.012l-0.002-1
					l0.002,1l-114.999,0.242C174.409,425.309,174.399,425.309,174.392,425.309z M289.228,325.45c-0.008,0-0.014,0-0.021,0
					l-114.999,0.241c-2.655,0.006-5.158,1.053-7.046,2.949c-1.889,1.897-2.926,4.403-2.92,7.059l0.163,77.643
					c0.006,2.655,1.053,5.158,2.949,7.047c1.892,1.884,4.39,2.92,7.037,2.92c0.007,0,0.015,0,0.021,0l114.999-0.242l0,0
					c5.507-0.012,9.978-4.501,9.967-10.008l-0.163-77.643C299.204,329.917,294.726,325.45,289.228,325.45z"/>
			</g>
                <g>
				<path style="fill:#3D85FD;" d="M290.354,305.769l-29.006,0.061c-5.378,0.011-9.77,4.421-9.758,9.799l0.029,13.881l-73.468,0.154
					c-8.218,0.017-14.929,6.755-14.911,14.974l0.146,69.732c0.017,8.218,6.756,14.928,14.974,14.911l107.088-0.225
					c8.218-0.017,14.928-6.756,14.911-14.974l-0.143-68.303l-0.003-1.428l-0.06-28.823
					C300.142,310.149,295.732,305.758,290.354,305.769z"/>
                    <path style="fill:#233863;" d="M178.33,430.781c-9.051,0-16.424-7.354-16.443-16.408l-0.146-69.732
					c-0.02-9.065,7.341-16.457,16.408-16.477l71.968-0.151l-0.026-12.381c-0.007-3.001,1.164-5.833,3.295-7.973
					c2.131-2.141,4.958-3.322,7.96-3.329l29.006-0.061c0.008,0,0.017,0,0.024,0c6.208,0,11.265,5.043,11.278,11.255l0.207,98.555
					c0.018,9.066-7.343,16.458-16.408,16.477l-107.089,0.226C178.352,430.781,178.341,430.781,178.33,430.781z M290.356,307.27
					l-29.006,0.061c-2.2,0.005-4.274,0.873-5.84,2.445c-1.566,1.572-2.426,3.65-2.421,5.851l0.029,13.881
					c0.001,0.397-0.156,0.779-0.438,1.062c-0.28,0.281-0.661,0.44-1.059,0.441l-73.468,0.154
					c-7.412,0.016-13.43,6.059-13.414,13.471l0.146,69.732c0.016,7.402,6.044,13.414,13.443,13.414c0.009,0,0.018,0,0.027,0
					l107.089-0.226c7.411-0.015,13.429-6.058,13.414-13.471l-0.207-98.555c-0.01-4.559-3.722-8.261-8.278-8.261
					C290.369,307.27,290.363,307.27,290.356,307.27L290.356,307.27z M290.353,305.77h0.01H290.353z"/>
			</g>
                <path style="opacity:0.12;fill:#FFFFFF;" d="M289.346,316.891l-25.953,0.055c-4.812,0.01-8.741,3.956-8.731,8.77l0.026,12.422
				l-65.735,0.138c-7.353,0.016-13.357,6.046-13.342,13.401l0.131,62.405c0.015,7.355,6.044,13.36,13.398,13.344l95.817-0.201
				c7.353-0.015,13.357-6.046,13.342-13.401l-0.128-61.127l-0.003-1.278l-0.054-25.795
				C298.103,320.811,294.158,316.881,289.346,316.891z"/>
                <path style="fill:#FFFFFF;" d="M290.855,414.677c0,2.697-2.186,4.883-4.883,4.883c-2.697,0-4.883-2.186-4.883-4.883
				c0-2.697,2.186-4.883,4.883-4.883C288.669,409.794,290.855,411.98,290.855,414.677z"/>
                <path style="fill:#FFFFFF;" d="M294.268,332.135c-0.553,0-1-0.447-1-1v-13.292c0-2.23-1.979-4.045-4.411-4.045h-9.685
				c-0.553,0-1-0.447-1-1c0-0.553,0.447-1,1-1h9.685c3.535,0,6.411,2.712,6.411,6.045v13.292
				C295.268,331.688,294.82,332.135,294.268,332.135z"/>
                <g>
				<g>
					<path style="fill:#FFFFFF;" d="M222.738,371.569c-0.646,0-1.293-0.25-1.783-0.747c-0.968-0.985-0.954-2.567,0.03-3.536
						l11.75-11.551l11.566,11.566c0.977,0.977,0.977,2.559,0,3.535c-0.977,0.977-2.559,0.977-3.535,0l-8.061-8.061l-8.215,8.076
						C224.004,371.331,223.371,371.569,222.738,371.569z"/>
                    <path style="fill:#FFFFFF;" d="M232.637,387.057c-1.381,0-2.5-1.119-2.5-2.5v-25.301c0-1.381,1.119-2.5,2.5-2.5
						c1.381,0,2.5,1.119,2.5,2.5v25.301C235.137,385.938,234.018,387.057,232.637,387.057z"/>
				</g>
                    <path style="fill:#FFFFFF;" d="M251.042,399.071h-37.103c-2.964,0-5.376-2.412-5.376-5.376v-13.48c0-1.381,1.119-2.5,2.5-2.5
					c1.381,0,2.5,1.119,2.5,2.5v13.48c0,0.207,0.169,0.376,0.376,0.376h37.103c0.368,0,0.667-0.299,0.667-0.667v-13.189
					c0-1.381,1.119-2.5,2.5-2.5c1.381,0,2.5,1.119,2.5,2.5v13.189C256.709,396.529,254.167,399.071,251.042,399.071z"/>
			</g>
		</g>
	</g>
        <g>
		<g>
			<g>
				<path style="fill:#3D85FD;" d="M562.426,411.623l-107.088,0.225c-8.218,0.017-14.957-6.693-14.974-14.911l-0.146-69.732
					c-0.017-8.218,6.693-14.957,14.911-14.974l107.088-0.225c8.218-0.017,14.957,6.693,14.974,14.911l0.146,69.732
					C577.354,404.867,570.644,411.606,562.426,411.623z"/>
                <path style="fill:#233863;" d="M455.305,413.348c-4.362,0-8.477-1.705-11.588-4.804c-3.12-3.107-4.844-7.229-4.853-11.604
					l-0.147-69.732c-0.019-9.066,7.342-16.458,16.408-16.478l107.089-0.225c0.011,0,0.022,0,0.033,0
					c9.051,0,16.424,7.354,16.443,16.408l0.146,69.732c0.019,9.065-7.341,16.457-16.408,16.476l0,0l-107.089,0.225
					C455.328,413.348,455.316,413.348,455.305,413.348z M562.426,411.623h0.01H562.426z M562.247,313.506c-0.009,0-0.018,0-0.027,0
					l-107.089,0.225c-7.411,0.016-13.429,6.06-13.414,13.472l0.147,69.732c0.008,3.574,1.418,6.942,3.97,9.484
					c2.546,2.535,5.908,3.93,9.472,3.93c0.01,0,0.02,0,0.029,0l107.089-0.225c3.573-0.008,6.941-1.418,9.484-3.97
					c2.542-2.553,3.938-5.927,3.93-9.501l-0.146-69.732C575.675,319.518,569.646,313.506,562.247,313.506z"/>
			</g>
            <g>
				<path style="fill:#FFB44F;" d="M562.426,411.623l-107.088,0.225c-8.218,0.017-14.957-6.693-14.974-14.911l-0.146-69.732
					c-0.017-8.218,6.693-14.957,14.911-14.974l107.088-0.225c8.218-0.017,14.957,6.693,14.974,14.911l0.146,69.732
					C577.354,404.867,570.644,411.606,562.426,411.623z"/>
                <path style="fill:#233863;" d="M455.305,413.348c-4.362,0-8.477-1.705-11.588-4.804c-3.12-3.107-4.844-7.229-4.853-11.604
					l-0.147-69.732c-0.019-9.066,7.342-16.458,16.408-16.478l107.089-0.225c0.011,0,0.022,0,0.033,0
					c9.051,0,16.424,7.354,16.443,16.408l0.146,69.732c0.019,9.065-7.341,16.457-16.408,16.476l0,0l-107.089,0.225
					C455.328,413.348,455.316,413.348,455.305,413.348z M562.426,411.623h0.01H562.426z M562.247,313.506c-0.009,0-0.018,0-0.027,0
					l-107.089,0.225c-7.411,0.016-13.429,6.06-13.414,13.472l0.147,69.732c0.008,3.574,1.418,6.942,3.97,9.484
					c2.546,2.535,5.908,3.93,9.472,3.93c0.01,0,0.02,0,0.029,0l107.089-0.225c3.573-0.008,6.941-1.418,9.484-3.97
					c2.542-2.553,3.938-5.927,3.93-9.501l-0.146-69.732C575.675,319.518,569.646,313.506,562.247,313.506z"/>
			</g>
            <path style="opacity:0.24;fill:#233863;" d="M562.426,411.623l-107.088,0.225c-8.218,0.017-14.957-6.693-14.974-14.911
				l-0.146-69.732c-0.017-8.218,6.693-14.957,14.911-14.974l107.088-0.225c8.218-0.017,14.957,6.693,14.974,14.911l0.146,69.732
				C577.354,404.867,570.644,411.606,562.426,411.623z"/>
		</g>
            <g>
			<g>
				<path style="fill:#FFFFFF;" d="M566.381,417.841l-114.999,0.241c-6.043,0.013-10.998-4.921-11.01-10.964l-0.163-77.643
					c-0.013-6.043,4.921-10.997,10.964-11.01l114.999-0.242c6.043-0.013,10.997,4.921,11.01,10.964l0.163,77.643
					C577.358,412.874,572.424,417.828,566.381,417.841z"/>
                <path style="fill:#233863;" d="M451.358,419.082c-6.598,0-11.973-5.36-11.986-11.962l-0.163-77.643
					c-0.014-6.61,5.352-11.999,11.962-12.013l114.999-0.241c0.009,0,0.017,0,0.025,0c6.598,0,11.973,5.36,11.986,11.962
					l0.163,77.643c0.014,6.61-5.353,11.999-11.962,12.013l-114.999,0.241C451.375,419.082,451.367,419.082,451.358,419.082z
					 M566.379,416.841l0.002,1L566.379,416.841c5.507-0.012,9.977-4.501,9.966-10.009l-0.163-77.642
					c-0.012-5.499-4.49-9.966-9.986-9.966c-0.008,0-0.014,0-0.021,0l-114.999,0.241c-5.507,0.012-9.978,4.501-9.966,10.009
					l0.163,77.643c0.012,5.499,4.49,9.966,9.986,9.966c0.008,0,0.014,0,0.022,0L566.379,416.841z"/>
			</g>
                <g>
				<path style="fill:#FFFFFF;" d="M566.381,424.067l-114.999,0.241c-6.043,0.013-10.998-4.921-11.01-10.964l-0.163-77.643
					c-0.013-6.043,4.921-10.998,10.964-11.01l114.999-0.242c6.043-0.013,10.997,4.921,11.01,10.964l0.163,77.643
					C577.358,419.099,572.424,424.054,566.381,424.067z"/>
                    <path style="fill:#233863;" d="M451.358,425.309c-6.598,0-11.973-5.361-11.986-11.963l-0.163-77.643
					c-0.007-3.189,1.237-6.199,3.503-8.474c2.265-2.275,5.27-3.531,8.459-3.538l114.999-0.241c0.009,0,0.017,0,0.025,0
					c6.598,0,11.973,5.36,11.986,11.962l0.163,77.643c0.014,6.609-5.353,11.998-11.962,12.012l-0.002-1l0.002,1l-114.999,0.242
					C451.375,425.309,451.367,425.309,451.358,425.309z M566.195,325.45c-0.008,0-0.014,0-0.021,0l-114.999,0.241
					c-2.655,0.006-5.158,1.053-7.046,2.949c-1.889,1.897-2.926,4.403-2.92,7.059l0.163,77.643c0.012,5.5,4.49,9.967,9.986,9.967
					c0.008,0,0.014,0,0.022,0l114.999-0.242l0,0c5.507-0.012,9.977-4.501,9.966-10.008l-0.163-77.643
					C576.17,329.917,571.691,325.45,566.195,325.45z"/>
			</g>
		</g>
            <g>
			<g>
				<path style="fill:#FFB44F;" d="M567.32,305.769l-29.006,0.061c-5.378,0.011-9.769,4.421-9.758,9.799l0.029,13.881l-73.467,0.154
					c-8.218,0.017-14.928,6.755-14.911,14.974l0.146,69.732c0.017,8.218,6.756,14.928,14.974,14.911l107.088-0.225
					c8.218-0.017,14.928-6.756,14.911-14.974l-0.143-68.303l-0.003-1.428l-0.06-28.823
					C577.108,310.149,572.699,305.758,567.32,305.769z"/>
                <path style="fill:#233863;" d="M455.297,430.781c-9.053,0-16.425-7.354-16.443-16.408l-0.146-69.732
					c-0.02-9.065,7.341-16.457,16.408-16.477l71.967-0.151l-0.025-12.381c-0.007-3.001,1.163-5.833,3.295-7.973
					c2.131-2.141,4.958-3.322,7.96-3.329l29.006-0.061c0.008,0,0.017,0,0.024,0c2.993,0,5.815,1.17,7.949,3.295
					c2.14,2.131,3.322,4.958,3.328,7.96l0.207,98.555c0.01,4.375-1.696,8.504-4.804,11.624c-3.108,3.12-7.229,4.844-11.604,4.853
					l-107.088,0.226C455.319,430.781,455.308,430.781,455.297,430.781z M567.323,307.27l-29.006,0.061
					c-2.2,0.005-4.274,0.873-5.841,2.445c-1.566,1.572-2.425,3.65-2.42,5.851l0.028,13.881c0.002,0.828-0.669,1.501-1.497,1.503
					l-73.467,0.154c-7.412,0.016-13.43,6.059-13.414,13.471l0.146,69.732c0.015,7.402,6.043,13.414,13.443,13.414
					c0.009,0,0.018,0,0.027,0l107.088-0.226c3.574-0.007,6.942-1.417,9.484-3.97c2.542-2.552,3.938-5.927,3.93-9.501l-0.207-98.555
					c-0.004-2.2-0.873-4.274-2.445-5.84c-1.567-1.561-3.639-2.421-5.832-2.421C567.336,307.27,567.33,307.27,567.323,307.27
					L567.323,307.27z M567.32,305.77h0.01H567.32z"/>
			</g>
                <path style="opacity:0.12;fill:#FFFFFF;" d="M566.031,316.891l-25.953,0.055c-4.812,0.01-8.741,3.956-8.731,8.77l0.026,12.422
				l-65.735,0.138c-7.353,0.016-13.357,6.046-13.342,13.401l0.131,62.405c0.015,7.355,6.045,13.36,13.398,13.344l95.817-0.201
				c7.353-0.015,13.357-6.046,13.342-13.401l-0.128-61.127l-0.003-1.278l-0.054-25.795
				C574.789,320.811,570.843,316.881,566.031,316.891z"/>
                <path style="fill:#FFFFFF;" d="M567.54,414.677c0,2.697-2.186,4.883-4.883,4.883c-2.697,0-4.883-2.186-4.883-4.883
				c0-2.697,2.186-4.883,4.883-4.883C565.354,409.794,567.54,411.98,567.54,414.677z"/>
                <path style="fill:#FFFFFF;" d="M570.952,332.135c-0.553,0-1-0.447-1-1v-13.292c0-2.23-1.979-4.045-4.41-4.045h-9.686
				c-0.553,0-1-0.447-1-1c0-0.553,0.447-1,1-1h9.686c3.534,0,6.41,2.712,6.41,6.045v13.292
				C571.952,331.688,571.505,332.135,570.952,332.135z"/>
                <g>
				<g>
					<path style="fill:#FFFFFF;" d="M512.622,388.077l-11.566-11.566c-0.977-0.977-0.977-2.559,0-3.535
						c0.977-0.977,2.559-0.977,3.535,0l8.061,8.061l8.215-8.076c0.985-0.967,2.566-0.952,3.536,0.03
						c0.968,0.985,0.954,2.567-0.03,3.536L512.622,388.077z"/>
                    <path style="fill:#FFFFFF;" d="M512.721,387.057c-1.381,0-2.5-1.119-2.5-2.5v-25.301c0-1.381,1.119-2.5,2.5-2.5
						c1.381,0,2.5,1.119,2.5,2.5v25.301C515.221,385.938,514.102,387.057,512.721,387.057z"/>
				</g>
                    <path style="fill:#FFFFFF;" d="M531.127,399.071h-37.103c-2.964,0-5.376-2.412-5.376-5.376v-13.48c0-1.381,1.119-2.5,2.5-2.5
					c1.381,0,2.5,1.119,2.5,2.5v13.48c0,0.207,0.169,0.376,0.376,0.376h37.103c0.368,0,0.667-0.299,0.667-0.667v-13.189
					c0-1.381,1.119-2.5,2.5-2.5c1.381,0,2.5,1.119,2.5,2.5v13.189C536.794,396.529,534.252,399.071,531.127,399.071z"/>
			</g>
		</g>
	</g>
        <g>
		<g>
			<g>
				<path style="fill:#FFFFFF;" d="M500.604,296.211l-49.404-35.608c-0.572-0.412-0.702-1.211-0.289-1.783l48.244-66.935
					c0.413-0.572,1.211-0.702,1.783-0.289l49.404,35.608c0.572,0.412,0.702,1.211,0.289,1.783l-48.244,66.935
					C501.974,296.494,501.176,296.624,500.604,296.211z"/>
                <path style="fill:#233863;" d="M501.345,297.952c-0.578,0-1.14-0.18-1.618-0.524l0,0l-49.403-35.607
					c-1.241-0.897-1.523-2.635-0.629-3.877l48.244-66.935c0.434-0.602,1.075-0.999,1.808-1.118c0.728-0.117,1.465,0.054,2.068,0.488
					l49.403,35.608c1.241,0.895,1.524,2.634,0.631,3.876l-48.245,66.936c-0.434,0.602-1.076,0.999-1.809,1.117
					C501.645,297.94,501.494,297.952,501.345,297.952z M501.48,294.994L501.48,294.994c-0.001-0.001-0.001-0.001-0.001-0.001
					L501.48,294.994z M452.258,259.517l49.042,35.348l47.983-66.574l-49.041-35.347L452.258,259.517z"/>
			</g>
            <g>
				<path style="fill:#3AAED5;" d="M500.604,296.211l-49.404-35.608c-0.572-0.412-0.702-1.211-0.289-1.783l48.244-66.935
					c0.413-0.572,1.211-0.702,1.783-0.289l49.404,35.608c0.572,0.412,0.702,1.211,0.289,1.783l-48.244,66.935
					C501.974,296.494,501.176,296.624,500.604,296.211z"/>
                <path style="fill:#233863;" d="M501.345,297.952c-0.578,0-1.14-0.18-1.618-0.524l0,0l-49.403-35.607
					c-1.241-0.897-1.523-2.635-0.629-3.877l48.244-66.935c0.434-0.602,1.075-0.999,1.808-1.118c0.728-0.117,1.465,0.054,2.068,0.488
					l49.403,35.608c1.241,0.895,1.524,2.634,0.631,3.876l-48.245,66.936c-0.434,0.602-1.076,0.999-1.809,1.117
					C501.645,297.94,501.494,297.952,501.345,297.952z M501.48,294.994L501.48,294.994c-0.001-0.001-0.001-0.001-0.001-0.001
					L501.48,294.994z M452.258,259.517l49.042,35.348l47.983-66.574l-49.041-35.347L452.258,259.517z"/>
			</g>
            <path style="fill:#233863;" d="M530.847,242.493c-0.202,0-0.407-0.061-0.584-0.189l-8.519-6.14
				c-0.448-0.323-0.549-0.948-0.227-1.395c0.322-0.449,0.947-0.552,1.397-0.227l8.518,6.14c0.448,0.323,0.549,0.948,0.227,1.396
				C531.464,242.349,531.157,242.493,530.847,242.493z"/>
            <path style="fill:#233863;" d="M521.706,255.176c-0.202,0-0.407-0.061-0.584-0.188l-37.302-26.886
				c-0.448-0.323-0.549-0.948-0.227-1.395c0.322-0.448,0.947-0.551,1.396-0.227l37.302,26.885c0.448,0.323,0.549,0.948,0.227,1.396
				C522.323,255.031,522.017,255.176,521.706,255.176z"/>
            <path style="fill:#FFB44F;" d="M515.486,263.805c-0.202,0-0.407-0.061-0.584-0.188l-14.826-10.687
				c-0.448-0.323-0.549-0.948-0.227-1.396c0.322-0.447,0.947-0.549,1.396-0.227l14.826,10.687c0.448,0.323,0.549,0.948,0.227,1.396
				C516.104,263.66,515.797,263.805,515.486,263.805z"/>
            <path style="fill:#FFB44F;" d="M487.261,243.46c-0.202,0-0.407-0.061-0.584-0.189l-9.075-6.541
				c-0.448-0.323-0.549-0.948-0.227-1.395c0.322-0.449,0.947-0.551,1.397-0.227l9.075,6.541c0.448,0.323,0.549,0.948,0.227,1.396
				C487.878,243.316,487.571,243.46,487.261,243.46z"/>
            <path style="fill:#233863;" d="M493.193,262.396c-0.202,0-0.407-0.061-0.584-0.189l-22.976-16.56
				c-0.448-0.323-0.549-0.948-0.227-1.396c0.322-0.449,0.947-0.551,1.397-0.227l22.976,16.559c0.448,0.323,0.549,0.948,0.227,1.396
				C493.81,262.251,493.504,262.396,493.193,262.396z"/>
		</g>
            <g>
			<g>
				<path style="fill:#FFFFFF;" d="M505.488,288.15l-60.971-23.454c-0.658-0.253-0.987-0.992-0.734-1.651l31.754-82.549
					c0.253-0.658,0.992-0.987,1.651-0.733l60.971,23.454c0.658,0.253,0.987,0.992,0.733,1.651l-31.754,82.549
					C506.885,288.075,506.146,288.403,505.488,288.15z"/>
                <path style="fill:#233863;" d="M505.942,289.735c-0.331,0-0.667-0.06-0.993-0.185l0,0l-60.971-23.454
					c-1.431-0.552-2.145-2.162-1.595-3.591l31.753-82.547c0.551-1.429,2.16-2.144,3.589-1.596l60.972,23.455
					c1.429,0.55,2.144,2.16,1.596,3.588l-31.754,82.549C508.113,289.058,507.058,289.735,505.942,289.735z M445.263,263.376
					l60.556,23.295l31.595-82.134l-60.556-23.294L445.263,263.376z"/>
			</g>
                <g>
				<path style="fill:#FFFFFF;" d="M505.488,288.15l-60.971-23.454c-0.658-0.253-0.987-0.992-0.734-1.651l31.754-82.549
					c0.253-0.658,0.992-0.987,1.651-0.733l60.971,23.454c0.658,0.253,0.987,0.992,0.733,1.651l-31.754,82.549
					C506.885,288.075,506.146,288.403,505.488,288.15z"/>
                    <path style="fill:#233863;" d="M505.942,289.735c-0.331,0-0.667-0.06-0.993-0.185l0,0l-60.971-23.454
					c-1.431-0.552-2.145-2.162-1.595-3.591l31.753-82.547c0.551-1.429,2.16-2.144,3.589-1.596l60.972,23.455
					c1.429,0.55,2.144,2.16,1.596,3.588l-31.754,82.549C508.113,289.058,507.058,289.735,505.942,289.735z M445.263,263.376
					l60.556,23.295l31.595-82.134l-60.556-23.294L445.263,263.376z"/>
			</g>
                <path style="fill:#233863;" d="M487.967,210.383c-0.119,0-0.241-0.022-0.359-0.067l-10.485-4.033
				c-0.515-0.198-0.772-0.777-0.574-1.292c0.198-0.516,0.777-0.773,1.293-0.574l10.485,4.033c0.515,0.198,0.772,0.777,0.574,1.292
				C488.747,210.139,488.368,210.383,487.967,210.383z"/>
                <path style="fill:#233863;" d="M515.794,239.885c-0.119,0-0.241-0.022-0.359-0.067l-45.91-17.66
				c-0.515-0.198-0.772-0.777-0.574-1.292c0.199-0.516,0.776-0.774,1.293-0.574l45.91,17.66c0.515,0.198,0.772,0.777,0.574,1.292
				C516.574,239.641,516.195,239.885,515.794,239.885z"/>
                <path style="fill:#FFB44F;" d="M511.708,250.505c-0.119,0-0.241-0.022-0.359-0.067l-18.248-7.02
				c-0.515-0.198-0.772-0.777-0.574-1.292c0.198-0.516,0.776-0.773,1.293-0.574l18.248,7.02c0.515,0.198,0.772,0.777,0.574,1.292
				C512.488,250.261,512.109,250.505,511.708,250.505z"/>
                <path style="fill:#FFB44F;" d="M476.969,237.142c-0.119,0-0.241-0.022-0.359-0.067l-11.17-4.297
				c-0.515-0.198-0.773-0.777-0.574-1.292c0.198-0.516,0.775-0.773,1.293-0.574l11.17,4.297c0.515,0.198,0.772,0.777,0.574,1.292
				C477.749,236.898,477.37,237.142,476.969,237.142z"/>
                <path style="fill:#233863;" d="M488.262,255.116c-0.119,0-0.241-0.021-0.359-0.066l-28.278-10.878
				c-0.515-0.198-0.772-0.777-0.574-1.292c0.199-0.515,0.776-0.773,1.293-0.574l28.278,10.877c0.515,0.198,0.772,0.777,0.574,1.293
				C489.042,254.873,488.663,255.116,488.262,255.116z"/>
		</g>
            <g>
			<g>
				<g>
					<g>
						<path style="fill:#FFB44F;" d="M392.864,251.955l-72.21-24.655c-0.826-0.282-1.267-1.18-0.985-2.006l33.677-98.632
							c0.282-0.826,1.18-1.267,2.006-0.985l72.21,24.655c0.826,0.282,1.267,1.18,0.985,2.006L394.87,250.97
							C394.588,251.796,393.69,252.237,392.864,251.955z"/>
                        <path style="fill:#233863;" d="M393.372,253.539c-0.329,0-0.664-0.053-0.992-0.165l-72.21-24.655
							c-0.778-0.265-1.407-0.818-1.77-1.557c-0.362-0.739-0.416-1.575-0.15-2.354l33.677-98.632c0.267-0.779,0.819-1.407,1.559-1.77
							c0.738-0.362,1.573-0.417,2.353-0.15l72.208,24.655c0.779,0.266,1.407,0.819,1.771,1.558c0.362,0.739,0.416,1.575,0.149,2.354
							l-33.676,98.631C395.853,252.732,394.653,253.539,393.372,253.539z M354.849,127.093c-0.034,0-0.073,0.023-0.083,0.053
							l-33.677,98.632c-0.013,0.036,0.014,0.089,0.05,0.102l72.21,24.655c0,0,0,0,0.001,0c0.034,0.011,0.089-0.014,0.101-0.05
							l33.677-98.632c0.013-0.036-0.015-0.09-0.051-0.102l-72.208-24.655C354.861,127.094,354.855,127.093,354.849,127.093z"/>
					</g>
				</g>
			</g>
                <g>
				<g>
					<g>
						<path style="fill:#FFFFFF;" d="M407.851,245.382l-76.059-6.092c-0.87-0.07-1.519-0.831-1.449-1.702l8.321-103.89
							c0.07-0.87,0.832-1.519,1.702-1.449l76.059,6.092c0.87,0.07,1.519,0.832,1.449,1.702l-8.321,103.89
							C409.483,244.803,408.721,245.451,407.851,245.382z"/>
                        <path style="fill:#233863;" d="M407.982,246.887c-0.084,0-0.168-0.003-0.252-0.01l-76.059-6.092
							c-0.82-0.066-1.565-0.447-2.099-1.073c-0.534-0.626-0.792-1.424-0.726-2.244l8.32-103.889c0.137-1.694,1.626-2.96,3.317-2.825
							l76.059,6.092c1.692,0.136,2.959,1.623,2.824,3.316l-8.321,103.891c-0.066,0.82-0.446,1.566-1.073,2.1
							C409.412,246.63,408.713,246.887,407.982,246.887z M340.239,133.744c-0.042,0-0.077,0.032-0.081,0.075l-8.32,103.889
							c-0.003,0.039,0.036,0.084,0.074,0.087l76.059,6.092l0,0c0.047-0.009,0.084-0.036,0.087-0.073l8.321-103.891
							c0.003-0.044-0.029-0.083-0.074-0.087l-76.06-6.092C340.243,133.744,340.241,133.744,340.239,133.744z"/>
					</g>
                    <g>
						<g>
							<line style="fill:#FFFFFF;" x1="386.015" y1="153.304" x2="405.283" y2="154.847"/>
                            <path style="fill:#FFB44F;" d="M405.283,155.847c-0.026,0-0.054-0.001-0.081-0.003l-19.267-1.544
								c-0.551-0.044-0.961-0.526-0.917-1.077c0.044-0.55,0.51-0.962,1.077-0.917l19.267,1.544c0.55,0.044,0.961,0.526,0.917,1.077
								C406.237,155.45,405.8,155.847,405.283,155.847z"/>
						</g>
                        <g>
							<line style="fill:#FFFFFF;" x1="385.522" y1="159.459" x2="404.79" y2="161.002"/>
                            <path style="fill:#FFB44F;" d="M404.791,162.002c-0.026,0-0.054-0.001-0.081-0.003l-19.268-1.543
								c-0.55-0.044-0.961-0.526-0.917-1.077c0.044-0.55,0.521-0.963,1.077-0.917l19.268,1.544c0.55,0.044,0.961,0.526,0.917,1.077
								C405.745,161.605,405.308,162.002,404.791,162.002z"/>
						</g>
                        <g>
							<line style="fill:#FFFFFF;" x1="340.412" y1="225.64" x2="359.68" y2="227.184"/>
                            <path style="fill:#FFB44F;" d="M359.681,228.184c-0.026,0-0.054-0.001-0.081-0.003l-19.268-1.544
								c-0.55-0.044-0.961-0.526-0.917-1.077c0.044-0.55,0.525-0.963,1.077-0.917l19.268,1.543c0.55,0.044,0.961,0.526,0.917,1.077
								C360.635,227.787,360.197,228.184,359.681,228.184z"/>
						</g>
                        <g>
							<g>
								<line style="fill:#FFFFFF;" x1="343.393" y1="192.331" x2="360.525" y2="193.704"/>
                                <path style="fill:#233863;" d="M360.525,194.704c-0.026,0-0.054-0.001-0.081-0.003l-17.131-1.372
									c-0.55-0.044-0.961-0.526-0.917-1.077c0.044-0.549,0.518-0.967,1.077-0.916l17.131,1.372
									c0.55,0.044,0.961,0.526,0.917,1.077C361.479,194.307,361.042,194.704,360.525,194.704z"/>
							</g>
                            <g>
								<line style="fill:#FFFFFF;" x1="341.564" y1="215.167" x2="371.025" y2="217.526"/>
                                <path style="fill:#233863;" d="M371.026,218.526c-0.026,0-0.054-0.001-0.081-0.003l-29.461-2.359
									c-0.55-0.044-0.961-0.526-0.917-1.076c0.045-0.55,0.518-0.968,1.077-0.917l29.461,2.359c0.55,0.044,0.961,0.526,0.917,1.076
									C371.98,218.129,371.543,218.526,371.026,218.526z"/>
							</g>
                            <g>
								<line style="fill:#FFFFFF;" x1="342.479" y1="203.749" x2="364.783" y2="205.536"/>
                                <path style="fill:#233863;" d="M364.783,206.536c-0.026,0-0.054-0.001-0.081-0.003l-22.304-1.787
									c-0.55-0.044-0.961-0.526-0.917-1.077c0.044-0.55,0.509-0.962,1.077-0.917l22.304,1.787
									c0.551,0.044,0.961,0.526,0.917,1.077C365.737,206.139,365.3,206.536,364.783,206.536z"/>
							</g>
                            <g>
								<line style="fill:#FFFFFF;" x1="344.145" y1="181.828" x2="401.826" y2="186.448"/>
                                <path style="fill:#233863;" d="M401.827,187.448c-0.026,0-0.054-0.001-0.081-0.003l-57.681-4.62
									c-0.55-0.044-0.961-0.526-0.917-1.077c0.044-0.55,0.511-0.97,1.077-0.917l57.681,4.62c0.55,0.044,0.961,0.526,0.917,1.077
									C402.781,187.051,402.344,187.448,401.827,187.448z"/>
							</g>
                            <g>
								<line style="fill:#FFFFFF;" x1="371.897" y1="206.016" x2="399.458" y2="208.223"/>
                                <path style="fill:#233863;" d="M399.459,209.223c-0.026,0-0.054-0.001-0.081-0.003l-27.561-2.207
									c-0.55-0.044-0.961-0.526-0.917-1.077c0.044-0.549,0.512-0.966,1.077-0.917l27.561,2.208
									c0.55,0.044,0.961,0.526,0.917,1.077C400.413,208.826,399.976,209.223,399.459,209.223z"/>
							</g>
                            <g>
								<line style="fill:#FFFFFF;" x1="366.92" y1="194.064" x2="402.266" y2="197.047"/>
                                <path style="fill:#233863;" d="M402.267,198.047c-0.028,0-0.057-0.001-0.085-0.003l-35.346-2.983
									c-0.551-0.046-0.959-0.53-0.912-1.081c0.047-0.551,0.534-0.951,1.08-0.913l35.346,2.983c0.551,0.046,0.959,0.53,0.912,1.081
									C403.218,197.653,402.781,198.047,402.267,198.047z"/>
							</g>
						</g>
					</g>
				</g>
                    <g>
					<g>
						<path style="fill:none;stroke:#233863;stroke-width:3;stroke-linecap:round;stroke-linejoin:round;stroke-miterlimit:10;"
                              d="
							M363.288,139.953"/>
					</g>
				</g>
			</g>
		</g>
	</g>
</g>

</svg>
